<svg width="620" height="833" viewBox="0 0 620 833" fill="none" xmlns="http://www.w3.org/2000/svg">
<rect width="620" height="833" fill="#E5E5E5"/>
<g clip-path="url(#clip0)">
<path d="M244.98 801C397.963 801 521.98 776.823 521.98 747C521.98 717.177 397.963 693 244.98 693C91.9971 693 -32.02 717.177 -32.02 747C-32.02 776.823 91.9971 801 244.98 801Z" fill="#3F3D56"/>
<path d="M23.25 734C23.25 734 -28.11 720.19 -37.8 721.21C-47.49 722.23 -23.12 673.85 -6.89 679.75C9.34 685.65 30.98 701.17 43.35 679.25C55.72 657.33 62.66 645.53 77.73 646.71C92.8 647.89 113.67 637.28 128.73 646.71C143.79 656.14 154.37 667.77 175.17 667.27C195.97 666.77 215.69 619.58 231.89 638.46C248.09 657.34 267.52 674.61 282.75 668.33C297.98 662.05 315.36 671.49 329.27 682.11C343.18 692.73 367.53 688.01 376.8 679.75C386.07 671.49 393.04 665.59 412.74 666.75C432.44 667.91 495.05 682.09 518.24 699.75C541.43 717.41 488.1 739.87 462.59 739.87C437.08 739.87 432.45 746.95 410.42 757.57C388.39 768.19 352.42 751.67 326.95 769.37C301.48 787.07 268.95 759.93 224.95 769.37C180.95 778.81 190.17 791.78 164.66 782.37C139.15 772.96 148.43 769.37 111.33 767.03C74.23 764.69 33.66 772.93 30.18 757.59C26.7 742.25 3.54 738.71 -10.38 733.99C-24.3 729.27 23.25 734 23.25 734Z" fill="#3F3D56"/>
<path d="M511.64 593.73L513.64 592.45L514.23 592.07C509.851 591.327 505.856 589.114 502.902 585.797C499.948 582.48 498.212 578.256 497.979 573.821C497.746 569.385 499.031 565.002 501.621 561.394C504.211 557.786 507.953 555.168 512.23 553.97L512.13 562.03L516.56 553.26C519.126 553.14 521.691 553.527 524.107 554.399C526.524 555.27 528.745 556.609 530.644 558.339C532.543 560.069 534.082 562.156 535.175 564.481C536.267 566.806 536.891 569.324 537.01 571.89C537.01 572.27 537.01 572.63 537.01 573C538.572 571.302 539.873 569.381 540.87 567.3C542.75 563.11 542.78 558.38 542.64 552.62C542.34 541.22 541.85 529.73 541.21 518.27C536.585 517.758 532.294 515.613 529.11 512.22C525.926 508.826 524.057 504.408 523.84 499.76C523.81 499.17 523.81 498.58 523.84 497.99C523.84 497.84 523.84 497.69 523.84 497.55C523.84 496.98 523.93 496.42 524.02 495.86C524.015 495.77 524.015 495.68 524.02 495.59C524.09 495.12 524.19 494.66 524.3 494.2C524.3 494.03 524.39 493.86 524.43 493.69C524.57 493.19 524.72 492.69 524.9 492.21C524.96 492.05 525.02 491.9 525.09 491.74C525.23 491.38 525.38 491.03 525.54 490.68C525.62 490.5 525.7 490.31 525.79 490.13L525.86 489.99C527.929 485.908 531.363 482.681 535.565 480.868C539.767 479.056 544.471 478.773 548.86 480.07L548.73 490.56L553.11 481.9C555.948 483.535 558.329 485.857 560.035 488.653C561.74 491.449 562.715 494.629 562.87 497.9C562.951 499.595 562.806 501.293 562.44 502.95V502.95C562.44 503.09 562.36 503.22 562.33 503.36C562.3 503.5 562.2 503.88 562.13 504.13C562.06 504.38 561.94 504.78 561.83 505.13C561.72 505.48 561.67 505.61 561.58 505.85C561.49 506.09 561.29 506.53 561.14 506.85C561.05 507.04 560.97 507.24 560.88 507.44C560.63 507.94 560.36 508.44 560.07 508.92C559.97 509.09 559.85 509.25 559.75 509.41C559.54 509.73 559.33 510.06 559.1 510.41C558.87 510.76 558.81 510.79 558.66 510.97C558.51 511.15 558.23 511.51 558 511.77C557.77 512.03 557.67 512.13 557.5 512.31C557.33 512.49 557.02 512.81 556.76 513.05L556.25 513.53L555.36 514.27L554.9 514.63C554.43 514.97 553.96 515.29 553.46 515.63L553.18 515.79C552.769 516.042 552.345 516.272 551.91 516.48L551.35 516.73C551 516.89 550.64 517.05 550.27 517.18L549.63 517.41C549.27 517.54 548.91 517.65 548.54 517.75L547.88 517.92C547.48 518.02 547.07 518.1 546.66 518.17H546.58C546.847 523.01 547.087 527.847 547.3 532.68C548.465 530.285 550.107 528.154 552.125 526.417C554.144 524.679 556.496 523.373 559.038 522.578C561.58 521.783 564.257 521.516 566.905 521.793C569.554 522.07 572.118 522.886 574.44 524.19L570.99 533.67L578.1 526.84C581.912 530.325 584.185 535.18 584.42 540.34C584.509 542.151 584.34 543.966 583.92 545.73C583.035 549.557 581.017 553.028 578.131 555.692C575.244 558.355 571.622 560.087 567.736 560.663C563.851 561.238 559.882 560.63 556.348 558.917C552.813 557.204 549.876 554.466 547.92 551.06C547.92 551.55 547.92 552.06 547.92 552.53C548.05 557.61 548.21 563.93 545.68 569.53C543.87 573.168 541.433 576.459 538.48 579.25C536.7 581.06 534.86 582.81 532.98 584.51C531.12 586.998 528.697 589.009 525.91 590.38C522.81 592.767 519.603 595.003 516.29 597.09L514.56 598.35C512.7 599.51 510.79 600.69 508.92 601.92L509.92 601.84C514.064 601.646 518.162 602.775 521.623 605.063C525.083 607.352 527.726 610.681 529.17 614.57L516.95 624.57L530.4 621.45C530.388 624.75 529.542 627.993 527.941 630.879C526.341 633.765 524.037 636.2 521.244 637.957C518.451 639.715 515.259 640.739 511.965 640.933C508.671 641.128 505.381 640.487 502.4 639.07C502.71 639.44 503.01 639.82 503.31 640.2L505.09 642.42C513.09 652.5 515.26 662.06 511.32 669.35L506.53 666.76C510.36 659.66 504.6 650.58 500.82 645.76C500.25 645.03 499.66 644.3 499.07 643.57C493.99 637.26 488.23 630.1 488.37 621.32C488.47 608.08 501.32 600.12 511.64 593.73Z" fill="#F1F1F1"/>
<path d="M414.99 580.4L411.92 578.48C411.62 578.3 411.33 578.11 411.04 577.92C417.591 576.797 423.565 573.48 427.981 568.513C432.397 563.547 434.993 557.226 435.342 550.589C435.69 543.952 433.772 537.394 429.901 531.991C426.03 526.589 420.437 522.663 414.04 520.86L414.19 532.93L407.56 519.8H407.48C403.637 519.621 399.797 520.201 396.179 521.506C392.561 522.812 389.235 524.817 386.391 527.408C383.548 529.999 381.243 533.124 379.607 536.606C377.972 540.088 377.038 543.857 376.86 547.7C376.86 548.26 376.86 548.81 376.86 549.36C374.518 546.812 372.567 543.93 371.07 540.81C368.26 534.55 368.21 527.46 368.43 518.81C368.87 501.73 369.61 484.52 370.57 467.37C377.492 466.6 383.912 463.386 388.678 458.307C393.443 453.229 396.242 446.617 396.57 439.66C396.57 438.76 396.57 437.88 396.57 437V436.34C396.51 435.49 396.43 434.65 396.3 433.82C396.3 433.68 396.3 433.55 396.23 433.41C396.11 432.71 395.96 432.02 395.79 431.33C395.73 431.07 395.67 430.82 395.6 430.56C395.39 429.81 395.17 429.08 394.9 428.35C394.82 428.11 394.72 427.88 394.62 427.64C394.41 427.1 394.19 426.58 393.95 426.06C393.82 425.78 393.7 425.51 393.57 425.24C393.533 425.172 393.499 425.102 393.47 425.03C391.128 420.412 387.604 416.498 383.256 413.688C378.908 410.877 373.892 409.27 368.72 409.03C365.465 408.883 362.208 409.275 359.08 410.19L359.27 425.9L352.72 412.9C347.324 415.978 343.055 420.702 340.536 426.38C338.017 432.059 337.381 438.394 338.72 444.46V444.46C338.72 444.66 338.83 444.86 338.88 445.07C338.97 445.46 339.07 445.84 339.17 446.22C339.27 446.6 339.47 447.22 339.63 447.67C339.79 448.12 339.87 448.39 340.01 448.74C340.2 449.26 340.43 449.74 340.66 450.27C340.79 450.57 340.91 450.87 341.05 451.16C341.42 451.91 341.82 452.65 342.26 453.37C342.41 453.63 342.58 453.87 342.74 454.11C343.06 454.6 343.37 455.11 343.74 455.55C343.95 455.84 344.18 456.11 344.4 456.39C344.62 456.67 345.05 457.2 345.4 457.59L346.14 458.4C346.5 458.78 346.87 459.15 347.25 459.51L348.02 460.22C348.45 460.6 348.9 460.97 349.36 461.32C349.59 461.5 349.81 461.69 350.05 461.87C350.74 462.38 351.45 462.87 352.19 463.31C352.33 463.4 352.48 463.47 352.62 463.55C353.24 463.91 353.87 464.26 354.51 464.55L355.36 464.93C355.89 465.17 356.42 465.4 356.97 465.6C357.29 465.73 357.61 465.84 357.97 465.95C358.51 466.13 359.06 466.3 359.61 466.45L360.61 466.71C361.22 466.85 361.83 466.97 362.44 467.08H362.56C362.147 474.32 361.787 481.56 361.48 488.8C359.733 485.215 357.273 482.024 354.249 479.424C351.225 476.824 347.701 474.87 343.895 473.68C340.088 472.491 336.079 472.092 332.113 472.508C328.146 472.924 324.307 474.147 320.83 476.1L326.01 490.28L315.36 480.06C312.531 482.643 310.24 485.758 308.616 489.228C306.993 492.697 306.07 496.453 305.9 500.28C305.764 502.991 306.014 505.708 306.64 508.35C307.972 514.067 310.993 519.251 315.309 523.23C319.626 527.208 325.039 529.796 330.845 530.659C336.651 531.522 342.583 530.618 347.87 528.067C353.156 525.515 357.553 521.433 360.49 516.35C360.49 517.09 360.49 517.83 360.42 518.56C360.23 526.17 359.98 535.63 363.77 544.08C366.34 549.81 370.48 554.45 374.56 558.62C377.227 561.34 379.973 563.967 382.8 566.5C385.575 570.23 389.199 573.246 393.37 575.3C398.037 578.867 402.843 582.2 407.79 585.3L410.89 587.22C413.67 588.95 416.53 590.73 419.33 592.57C418.84 592.57 418.33 592.47 417.85 592.45C411.644 592.157 405.506 593.846 400.323 597.273C395.14 600.699 391.182 605.685 389.02 611.51L407.31 626.4L387.18 621.74C387.19 626.692 388.453 631.561 390.853 635.893C393.253 640.225 396.712 643.878 400.905 646.512C405.099 649.146 409.891 650.675 414.836 650.956C419.78 651.237 424.715 650.262 429.18 648.12C428.72 648.68 428.27 649.24 427.82 649.81C426.92 650.93 426.02 652.04 425.15 653.14C413.24 668.23 409.93 682.54 415.82 693.46L423 689.59C417.26 678.96 425.89 665.36 431.55 658.2C432.4 657.11 433.28 656.02 434.17 654.92C441.78 645.47 450.4 634.75 450.17 621.61C449.68 601.9 430.45 590.01 414.99 580.4Z" fill="#F1F1F1"/>
<path d="M417.97 744.56C417.97 744.56 383.36 735.4 376.84 736.07C370.32 736.74 386.73 704.73 397.66 708.63C408.59 712.53 423.18 722.81 431.51 708.3C439.84 693.79 444.51 685.98 454.68 686.76C464.85 687.54 478.89 680.51 489.04 686.76C499.19 693.01 506.31 700.7 520.33 700.37C534.35 700.04 547.62 668.8 558.55 681.29C569.48 693.78 582.55 705.23 592.81 701.07C603.07 696.91 614.81 703.16 624.16 710.19C633.51 717.22 649.93 714.1 656.16 708.63C662.39 703.16 667.1 699.26 680.38 700.04C693.66 700.82 735.83 710.19 751.45 721.91C767.07 733.63 731.14 748.46 713.96 748.46C696.78 748.46 693.65 753.15 678.81 760.18C663.97 767.21 639.76 756.27 622.58 767.99C605.4 779.71 583.53 761.74 553.85 767.99C524.17 774.24 530.42 782.83 513.23 776.58C496.04 770.33 502.3 767.99 477.31 766.43C452.32 764.87 424.98 770.33 422.63 760.18C420.28 750.03 404.63 747.68 395.3 744.56C385.97 741.44 417.97 744.56 417.97 744.56Z" fill="#3F3D56"/>
<path d="M553.28 623.59L539.88 664.66L539.3 666.45L516.87 735.21L478.47 761.16L292 682.75L309.67 611.29L310.61 607.53L320.07 569.28L320.09 569.19L377.49 562.01L553.28 623.59Z" fill="#F8CE6D"/>
<path opacity="0.1" d="M553.28 623.59L516.87 735.21L478.47 761.16L513.72 639.35L320.07 569.28L320.09 569.19L377.49 562.01L553.28 623.59Z" fill="black"/>
<path opacity="0.1" d="M361.91 576.94L358.82 575.06L389.8 571.81L522.52 618.73L518.78 620.69L387.85 574.52L361.91 576.94Z" fill="black"/>
<path opacity="0.1" d="M539.88 664.66L501.12 682.89L310.61 607.53L309.67 611.29L500.35 685.57L539.3 666.45" fill="black"/>
<path d="M333.619 596.259C334.712 592.741 332.519 588.934 328.721 587.754C324.923 586.575 320.959 588.471 319.867 591.989C318.775 595.507 320.968 599.315 324.765 600.494C328.563 601.674 332.527 599.777 333.619 596.259Z" fill="#3F3D56"/>
<path d="M626.324 755.008C627.417 751.49 625.223 747.682 621.426 746.503C617.628 745.324 613.664 747.22 612.572 750.738C611.479 754.256 613.672 758.064 617.47 759.243C621.268 760.422 625.232 758.526 626.324 755.008Z" fill="#3F3D56"/>
<path d="M464.406 687.261C465.498 683.743 463.305 679.935 459.508 678.756C455.71 677.577 451.746 679.473 450.654 682.991C449.561 686.509 451.754 690.317 455.552 691.496C459.349 692.675 463.314 690.779 464.406 687.261Z" fill="#3F3D56"/>
<path d="M342.78 573.39C342.38 574.69 339.17 573.39 335.09 572.11C331.01 570.83 327.83 569.43 328.23 568.11C328.63 566.79 332.47 566.11 336.55 567.38C340.63 568.65 343.19 572.09 342.78 573.39Z" fill="#3F3D56"/>
<path d="M363.322 568.705C363.725 567.407 361.05 565.423 357.347 564.274C353.645 563.124 350.316 563.244 349.914 564.541C349.511 565.839 352.186 567.823 355.888 568.972C359.591 570.122 362.919 570.002 363.322 568.705Z" fill="#3F3D56"/>
<path d="M429.14 605.01C428.74 606.31 424.73 605.11 420.84 603.9C416.95 602.69 413.92 601.34 414.32 600.04C414.72 598.74 418.41 598.04 422.32 599.21C426.23 600.38 429.56 603.69 429.14 605.01Z" fill="#3F3D56"/>
<path d="M548.32 624.17C547.86 625.63 544.32 624.59 540.94 623.53C537.56 622.47 534.94 621.19 535.35 619.73C535.76 618.27 539.17 617.19 542.58 618.25C545.99 619.31 548.77 622.71 548.32 624.17Z" fill="#3F3D56"/>
<path d="M468.21 594.95C467.85 596.11 464.21 595.04 460.75 593.95C457.29 592.86 454.52 591.64 454.89 590.48C455.26 589.32 458.56 588.65 462.06 589.73C465.56 590.81 468.56 593.78 468.21 594.95Z" fill="#3F3D56"/>
<path d="M390.353 567.536C390.756 566.239 388.491 564.382 385.295 563.39C382.099 562.397 379.181 562.645 378.778 563.942C378.375 565.24 380.64 567.096 383.836 568.089C387.033 569.081 389.95 568.834 390.353 567.536Z" fill="#3F3D56"/>
<path opacity="0.1" d="M426.56 644.26C426.986 642.886 426.931 641.408 426.404 640.07C425.877 638.732 424.909 637.614 423.66 636.9C424.255 636.224 424.701 635.43 424.97 634.57C425.294 633.526 425.343 632.416 425.11 631.348C424.877 630.28 424.371 629.291 423.642 628.477C422.912 627.662 421.984 627.051 420.948 626.703C419.912 626.355 418.803 626.282 417.73 626.49C418.152 625.038 418.039 623.484 417.413 622.108C416.786 620.733 415.688 619.627 414.316 618.992C412.944 618.357 411.391 618.235 409.936 618.647C408.482 619.059 407.224 619.979 406.39 621.24C405.577 620.652 404.636 620.266 403.644 620.114C402.652 619.962 401.638 620.049 400.686 620.366C399.734 620.684 398.872 621.223 398.17 621.941C397.468 622.658 396.947 623.532 396.65 624.49C396.65 624.63 396.58 624.76 396.55 624.89L396.33 625C395.628 624.368 394.793 623.901 393.887 623.634C392.981 623.367 392.026 623.306 391.094 623.457C390.161 623.608 389.274 623.965 388.498 624.504C387.722 625.042 387.076 625.748 386.609 626.569C386.141 627.39 385.864 628.305 385.797 629.248C385.73 630.19 385.875 631.135 386.221 632.014C386.568 632.893 387.107 633.683 387.799 634.326C388.491 634.969 389.318 635.449 390.22 635.73C390.546 635.833 390.881 635.907 391.22 635.95L391.3 638.27L421.56 650.64L421.36 648.64C422.553 648.479 423.676 647.982 424.597 647.206C425.518 646.43 426.199 645.408 426.56 644.26V644.26Z" fill="black"/>
<path opacity="0.1" d="M570.82 677.11C570.173 678.395 569.107 679.421 567.798 680.019C566.489 680.617 565.015 680.752 563.62 680.4C563.587 681.299 563.358 682.179 562.95 682.98C562.577 683.722 562.062 684.384 561.434 684.927C560.805 685.47 560.076 685.884 559.287 686.145C558.499 686.406 557.667 686.509 556.838 686.448C556.01 686.387 555.202 686.163 554.46 685.79C553.533 685.321 552.734 684.635 552.13 683.79C551.423 685.121 550.263 686.155 548.86 686.706C547.457 687.257 545.904 687.289 544.479 686.795C543.055 686.302 541.855 685.315 541.094 684.014C540.333 682.713 540.062 681.183 540.33 679.7C539.634 679.604 538.958 679.395 538.33 679.08C536.833 678.328 535.697 677.012 535.17 675.422C534.643 673.832 534.769 672.097 535.52 670.6L535.72 670.23L535.64 670C534.725 669.972 533.827 669.743 533.01 669.33C531.508 668.569 530.369 667.242 529.845 665.641C529.321 664.041 529.454 662.297 530.215 660.795C530.976 659.293 532.303 658.154 533.904 657.63C535.504 657.106 537.248 657.239 538.75 658C539.046 658.148 539.33 658.319 539.6 658.51L541.26 656.9L571.7 669.07L570.17 670.37C570.907 671.316 571.359 672.452 571.474 673.646C571.589 674.839 571.362 676.041 570.82 677.11Z" fill="black"/>
<path opacity="0.1" d="M552.24 643.64L544.89 667.46C544.348 669.206 544.494 671.094 545.299 672.736C546.104 674.378 547.507 675.649 549.22 676.29V676.29C550.131 676.629 551.101 676.778 552.072 676.729C553.043 676.68 553.993 676.434 554.865 676.005C555.738 675.577 556.514 674.975 557.145 674.236C557.777 673.498 558.252 672.638 558.54 671.71L565.89 647.88C566.171 646.956 566.262 645.984 566.157 645.023C566.051 644.063 565.752 643.134 565.277 642.292C564.802 641.451 564.161 640.715 563.393 640.128C562.626 639.542 561.747 639.117 560.81 638.88C559.044 638.43 557.172 638.672 555.579 639.557C553.986 640.442 552.791 641.903 552.24 643.64V643.64Z" fill="black"/>
<path d="M552.56 645.09L545.89 666.45C545.401 668.016 545.532 669.709 546.256 671.181C546.98 672.653 548.241 673.791 549.78 674.36C550.597 674.663 551.466 674.796 552.336 674.751C553.206 674.707 554.058 674.485 554.839 674.101C555.62 673.716 556.315 673.176 556.881 672.514C557.447 671.852 557.872 671.082 558.13 670.25L564.76 648.88C565.017 648.048 565.102 647.172 565.01 646.305C564.918 645.439 564.651 644.6 564.224 643.841C563.797 643.081 563.221 642.416 562.529 641.886C561.837 641.357 561.045 640.974 560.2 640.76V640.76C558.615 640.376 556.943 640.61 555.524 641.414C554.105 642.219 553.045 643.533 552.56 645.09V645.09Z" fill="#3F3D56"/>
<path d="M465.61 755.49C465.61 755.49 431 746.33 424.48 747.01C417.96 747.69 434.37 715.66 445.3 719.57C456.23 723.48 470.82 733.74 479.15 719.23C487.48 704.72 492.15 696.92 502.32 697.7C512.49 698.48 526.53 691.45 536.68 697.7C546.83 703.95 553.95 711.63 567.97 711.3C581.99 710.97 595.26 679.73 606.2 692.23C617.14 704.73 630.2 716.16 640.46 712.01C650.72 707.86 662.46 714.1 671.8 721.13C681.14 728.16 697.58 725.03 703.8 719.57C710.02 714.11 714.73 710.19 728.01 710.97C741.29 711.75 783.46 721.13 799.08 732.84C814.7 744.55 778.78 759.4 761.59 759.4C744.4 759.4 741.29 764.08 726.45 771.11C711.61 778.14 687.39 767.21 670.21 778.92C653.03 790.63 631.16 772.68 601.48 778.92C571.8 785.16 578.05 793.76 560.87 787.52C543.69 781.28 549.93 778.92 524.94 777.36C499.95 775.8 472.61 781.27 470.27 771.11C467.93 760.95 452.32 758.62 442.94 755.49C433.56 752.36 465.61 755.49 465.61 755.49Z" fill="#3F3D56"/>
<path d="M165.2 254.18C165.128 253.452 165.235 252.718 165.51 252.04C166.32 250.6 168.44 250.99 170.04 251.4C176.48 253.02 183.26 251.55 189.88 251.93C196.5 252.31 203.97 255.62 205.3 262.12C210.11 258.712 214.255 254.452 217.53 249.55C219.37 246.8 220.97 243.65 220.72 240.35C220.36 235.59 216.37 232.03 212.67 229.01L201.67 220.01C200.224 218.677 198.551 217.614 196.73 216.87C194.19 216 191.41 216.41 188.73 216.41C180.73 216.41 172.16 212.77 165.02 216.41C162.02 217.94 159.8 220.56 157.64 223.12L147.8 234.77C147.057 235.511 146.516 236.43 146.23 237.44C145.95 238.86 146.68 240.26 146.93 241.69C147.4 244.29 146.27 247.06 147.14 249.56C148.57 253.71 153.6 254.3 156.68 256.67C157.83 257.56 159.63 260.56 160.99 260.53C163.43 260.5 165.13 256.09 165.2 254.18Z" fill="#3F3D56"/>
<path d="M166.82 282C166.71 285.24 164.82 288.12 163 290.81C160.57 294.39 158 298.11 154.16 300.11C173.459 310.3 195.94 312.67 216.94 306.73C220.31 305.73 224.29 303.65 224.09 300.14C220.09 299.05 215.95 297.92 212.55 295.51C208.49 292.63 205.81 288.15 204.08 283.51C202.35 278.87 201.47 273.91 200.26 269.08C200.181 268.585 199.966 268.121 199.64 267.74C199.089 267.346 198.413 267.168 197.74 267.24L184.42 267C178.95 267 173.01 266.87 167.93 269.19C161.61 272.09 167 276.62 166.82 282Z" fill="#FFC0C6"/>
<path opacity="0.1" d="M166.82 282C166.71 285.24 164.82 288.12 163 290.81C160.57 294.39 158 298.11 154.16 300.11C173.459 310.3 195.94 312.67 216.94 306.73C220.31 305.73 224.29 303.65 224.09 300.14C220.09 299.05 215.95 297.92 212.55 295.51C208.49 292.63 205.81 288.15 204.08 283.51C202.35 278.87 201.47 273.91 200.26 269.08C200.181 268.585 199.966 268.121 199.64 267.74C199.089 267.346 198.413 267.168 197.74 267.24L184.42 267C178.95 267 173.01 266.87 167.93 269.19C161.61 272.09 167 276.62 166.82 282Z" fill="black"/>
<path d="M155.23 738.24C151.95 743.24 147.66 747.47 144.06 752.24C140.46 757.01 137.45 762.57 137.41 768.54C137.362 768.919 137.399 769.304 137.519 769.668C137.638 770.031 137.837 770.363 138.1 770.64C138.509 770.904 138.983 771.053 139.47 771.07L153.37 772.85C155.483 773.218 157.637 773.292 159.77 773.07C162.067 772.616 164.28 771.81 166.33 770.68C167.897 770.066 169.261 769.027 170.27 767.68C170.94 766.58 171.12 765.23 171.76 764.11C173.69 760.72 178.55 760.87 182.41 761.46C183.52 751.15 180.67 740.87 177.84 730.89C177.718 730.278 177.454 729.702 177.07 729.21C176.565 728.724 175.941 728.379 175.26 728.21C171.93 727.12 163.88 722.85 161.08 724.85C159.03 726.33 156.89 735.59 155.23 738.24Z" fill="#575A88"/>
<path d="M222.25 758.57C224.92 757.32 227.77 755.71 230.65 756.37C234.71 757.28 236.52 762.08 239.97 764.37C242.09 765.8 244.71 766.22 247.24 766.55C255.032 767.558 262.884 768.022 270.74 767.94C273.25 767.94 276.41 767.34 277.02 764.94C277.63 762.54 275.32 760.63 273.27 759.38C268.82 756.65 264.182 754.241 259.39 752.17C257.035 751.301 254.808 750.117 252.77 748.65C249.34 745.88 247.67 741.54 246.14 737.41C244.91 734.09 243.78 726.92 241.26 724.41C238.5 721.7 234.79 723.5 231.33 724.26C225.95 725.44 219.65 726.26 216.19 731.09C211.13 738.16 207.24 765.52 222.25 758.57Z" fill="#575A88"/>
<path d="M142.74 439.46C138.146 450.765 135.62 462.802 135.28 475C135.04 484.11 136.02 493.19 137.01 502.25C138.59 516.917 140.177 531.583 141.77 546.25C142.279 552.349 143.238 558.402 144.64 564.36C146.37 571.01 149.18 577.36 151.19 583.9C157.41 604.28 155.64 626.26 151.53 647.17C150.983 649.464 150.695 651.812 150.67 654.17C150.79 657.7 152.15 661.06 153.03 664.48C158.41 685.33 146.03 708.48 154.11 728.48C154.315 729.194 154.765 729.814 155.38 730.23C155.786 730.382 156.218 730.451 156.651 730.432C157.084 730.413 157.509 730.307 157.9 730.12C160.202 729.319 162.411 728.273 164.49 727C168.843 732.268 174.467 736.339 180.83 738.83C185.57 737.66 186.46 731.9 188.01 727.27C189.192 723.981 190.154 720.617 190.89 717.2C191.575 713.008 191.927 708.768 191.94 704.52L196.04 560.17L195.74 604.22C195.597 607.787 195.821 611.359 196.41 614.88C197.01 617.81 198.11 620.62 198.74 623.55C199.63 627.74 199.52 632.08 199.48 636.37C199.231 661.813 201.559 687.216 206.43 712.19C208.03 720.37 209.95 728.63 214.04 735.88C214.175 736.213 214.376 736.514 214.633 736.765C214.889 737.017 215.195 737.212 215.53 737.34C216.4 737.53 217.2 736.84 217.86 736.23C221.811 732.738 226.747 730.556 231.989 729.987C237.232 729.417 242.521 730.487 247.13 733.05C246.25 728.81 250.29 723.88 247.4 720.66C246.57 719.73 245.33 719.28 244.4 718.47C242.56 716.9 242.12 714.26 241.86 711.85C240.725 701.123 240.725 690.307 241.86 679.58C243.27 666.17 246.44 652.65 244.1 639.38C242.4 629.75 237.82 620.38 238.73 610.69C239.33 604.19 242.35 598.2 244.43 592.01C253.51 564.95 244.43 534.79 251 507.01C252.51 500.63 254.79 493.73 252.05 487.78L256.22 486.51L247.56 466.74C245.72 462.53 243.8 458.2 240.56 454.96C235.12 449.55 226.99 448.1 219.4 446.96L157.66 437.33C152.19 436.44 144.81 434.38 142.74 439.46Z" fill="#3C354C"/>
<path d="M181.61 281.86C196.207 281.86 208.04 270.027 208.04 255.43C208.04 240.833 196.207 229 181.61 229C167.013 229 155.18 240.833 155.18 255.43C155.18 270.027 167.013 281.86 181.61 281.86Z" fill="#FFC0C6"/>
<path d="M167.2 286.9C165.918 286.142 164.404 285.875 162.94 286.15C162.22 286.406 161.545 286.774 160.94 287.24L148.44 296C146.648 297.113 145.05 298.511 143.71 300.14C141.57 303.05 141.23 306.92 141.51 310.52C142.13 318.64 145.41 326.3 147.19 334.24C148.97 342.18 148.97 351.24 143.85 357.6C142.969 358.512 142.234 359.554 141.67 360.69C141.365 361.66 141.226 362.674 141.26 363.69C141.075 367.491 141.155 371.3 141.5 375.09C142.06 379.98 143.5 384.73 144.28 389.58C145.65 397.84 145.28 406.31 146.34 414.58C146.293 415.133 146.361 415.69 146.541 416.215C146.721 416.741 147.008 417.223 147.384 417.631C147.76 418.039 148.218 418.365 148.726 418.586C149.235 418.808 149.785 418.922 150.34 418.92C156.521 419.825 162.764 420.236 169.01 420.15C176.24 420.15 183.46 419.75 190.68 419.37L223.54 417.64C224.008 417.7 224.483 417.657 224.933 417.515C225.383 417.372 225.796 417.133 226.144 416.813C226.491 416.494 226.765 416.103 226.946 415.667C227.127 415.232 227.21 414.761 227.19 414.29C230.07 400.47 232.97 386.4 231.61 372.36C230.73 363.29 228.09 354.5 225.61 345.74C223.61 338.64 221.69 331.19 223.19 323.96C224.19 319.19 226.62 314.78 227.25 309.96C227.614 307.452 227.396 304.893 226.612 302.483C225.828 300.072 224.5 297.874 222.73 296.06C219.05 292.53 213.68 291.19 210.01 287.65C209.002 286.505 207.905 285.442 206.73 284.47C206.13 283.992 205.408 283.692 204.647 283.603C203.885 283.515 203.113 283.642 202.42 283.97C201.743 284.45 201.183 285.075 200.78 285.8C197.58 290.66 192.78 298.67 186.03 297.41C178.73 296.1 173.63 290 167.2 286.9Z" fill="#6C63FF"/>
<path d="M233.24 465.58C230.9 467.33 229.16 470.44 230.24 473.15C233.419 473.717 236.696 473.262 239.6 471.85C241.47 470.94 243.8 469.66 245.42 470.98C245.945 471.485 246.351 472.099 246.61 472.78C248.362 476.495 250.487 480.023 252.95 483.31C254.73 482.47 256.6 481.55 257.67 479.9C258.316 478.776 258.734 477.536 258.9 476.25C259.527 473.032 259.991 469.785 260.29 466.52C260.5 464.15 260.54 461.52 258.92 459.76C251.97 452.26 239.01 461.27 233.24 465.58Z" fill="#FFC0C6"/>
<path d="M163.55 244.26C163.479 243.535 163.585 242.804 163.86 242.13C164.67 240.69 166.79 241.13 168.39 241.48C174.83 243.11 181.61 241.64 188.23 242.02C194.85 242.4 202.32 245.71 203.65 252.21C208.462 248.8 212.61 244.541 215.89 239.64C217.73 236.89 219.33 233.74 219.08 230.44C218.72 225.68 214.73 222.12 211.03 219.1L200.03 210.1C198.583 208.771 196.91 207.71 195.09 206.97C192.55 206.1 189.77 206.51 187.09 206.51C179.09 206.51 170.52 202.87 163.38 206.51C160.38 208.05 158.16 210.67 155.99 213.23L146.16 224.88C145.417 225.619 144.874 226.534 144.58 227.54C144.3 228.96 145.03 230.37 145.29 231.79C145.75 234.39 144.63 237.17 145.49 239.67C146.92 243.82 151.96 244.4 155.04 246.78C156.19 247.67 157.98 250.67 159.35 250.63C161.78 250.59 163.48 246.18 163.55 244.26Z" fill="#3F3D56"/>
<path d="M228.82 297.87C231.587 297.217 234.46 297.146 237.255 297.662C240.051 298.179 242.709 299.271 245.06 300.87C252.62 306.05 255.73 315.51 258.36 324.29L264.25 343.98C266.83 352.61 269.43 361.32 270.03 370.31C270.58 378.48 269.46 386.66 268.34 394.77C266.79 406 270.44 418.31 270.49 429.64C270.49 442.64 270.41 456.43 263.79 467.64C263.515 466.659 263.008 465.759 262.312 465.016C261.616 464.273 260.751 463.708 259.79 463.37C257.874 462.716 255.865 462.378 253.84 462.37L236.24 461.24C237.74 458.706 239.031 456.054 240.1 453.31C246.85 435.97 244.26 416.59 241.57 398.19C241.358 396.436 241.024 394.698 240.57 392.99C238.796 386.426 238.391 379.567 239.38 372.84C239.783 369.797 239.887 366.723 239.69 363.66C239.659 362.367 239.385 361.091 238.88 359.9C238.362 358.92 237.709 358.018 236.94 357.22L233.38 353.22C233.09 341.12 231.19 328.93 229.31 316.97C228.398 310.645 228.233 304.234 228.82 297.87V297.87Z" fill="#6C63FF"/>
<path d="M194.24 351.3C177.145 338.035 165.757 318.746 162.4 297.37C161.82 293.58 160.31 288.63 156.48 288.76C155.32 288.883 154.204 289.273 153.22 289.9L139.34 297.34C138.348 297.743 137.503 298.441 136.92 299.34C136.01 301.12 137.3 303.17 138.41 304.83C145.88 316.13 146.41 330.48 146.71 344.02C146.8 348.02 146.83 352.23 144.9 355.73C143.33 358.56 140.6 360.64 139.16 363.55C137.81 366.28 137.75 369.44 137.71 372.49C137.43 394.25 137.15 416.04 138.29 437.78C138.46 441.06 138.72 444.5 140.47 447.28C142.1 449.85 144.79 451.51 147.39 453.08L168.44 465.8C172.44 468.23 176.6 470.7 181.23 471.48C185.86 472.26 191.15 470.94 193.81 467.07C195.1 465.19 195.67 462.9 196.91 460.99C198.15 459.08 200.52 457.53 202.63 458.38C204.13 458.98 204.95 460.55 205.63 462C206.97 464.77 208.37 467.61 210.56 469.78C212.75 471.95 215.92 473.41 218.93 472.78C221.53 472.21 223.56 470.24 225.43 468.36C231.21 462.57 237.05 456.7 241.3 449.69C241.912 448.876 242.229 447.878 242.2 446.86C241.927 445.869 241.392 444.971 240.65 444.26C237.99 441 236.94 436.73 236.15 432.59C228.24 390.99 239.41 347.75 233.26 305.85C232.56 301.05 231.02 296.64 227.42 293.39C223.82 290.14 219.34 288.07 214.93 286.05C213.48 285.39 211.82 284.71 210.34 285.31C207.89 286.31 207.88 289.68 208.06 292.31C208.268 297.7 208 303.097 207.26 308.44L205.11 328.23C204.905 331.253 204.341 334.24 203.43 337.13C201.539 342.518 198.388 347.376 194.24 351.3V351.3Z" fill="#575A88"/>
<path d="M71.63 194.07C71.63 194.07 64 200.27 54.99 184.01C45.98 167.75 2.47002 128.67 2.47002 128.67C2.47002 128.67 -3.15998 123.52 18.23 114.94C39.62 106.36 68.83 75 68.83 75C68.83 75 117.57 118.33 122.34 139.79C127.11 161.25 116.67 164.89 98.75 176.29C80.83 187.69 71.63 194.07 71.63 194.07Z" fill="#3F3D56"/>
<path d="M211.32 401.59L88.32 179.92L98.76 176.29L219.68 397C219.984 397.559 220.174 398.174 220.238 398.807C220.302 399.441 220.239 400.081 220.053 400.69C219.867 401.299 219.561 401.865 219.154 402.354C218.746 402.843 218.245 403.247 217.68 403.54C216.575 404.107 215.292 404.221 214.104 403.857C212.916 403.492 211.917 402.679 211.32 401.59V401.59Z" fill="#656380"/>
<path d="M160.81 345C164.03 338.11 160.73 330.16 158.53 322.88C156.777 317.094 155.733 311.117 155.42 305.08C155.21 303.181 155.422 301.258 156.04 299.45C156.367 298.553 156.944 297.769 157.702 297.189C158.46 296.61 159.369 296.26 160.32 296.18C163.192 300.476 164.338 305.696 163.53 310.8C165.393 310.32 167.283 309.949 169.19 309.69C171.662 309.358 174.172 309.909 176.278 311.246C178.384 312.583 179.95 314.621 180.7 317C183.87 327.16 184.95 338 180.53 347.5C179.121 350.311 177.486 353.004 175.64 355.55L166 369.63C165.34 370.63 164.53 371.63 163.37 371.8C162.21 371.97 161 370.92 160.15 369.95C157.22 366.64 152.02 361.82 152.59 357.26C153.16 352.7 158.89 349.05 160.81 345Z" fill="#FFC0C6"/>
<path d="M138.53 302.53C128.74 301.42 117.53 304.07 112.41 312.53C109.84 316.8 109.2 321.92 108.75 326.88C108.12 333.83 107.75 340.8 107.4 347.76L105.51 384.4C105.28 388.78 105.06 393.17 104.98 397.55C104.752 400.974 105.121 404.412 106.07 407.71C107.28 411.26 109.68 414.26 112.07 417.18C114.46 420.1 117.45 423.11 120.96 422.26C122.397 421.786 123.702 420.981 124.77 419.91L132.77 412.99C138.21 408.32 143.71 403.58 147.85 397.72C149.85 394.9 151.49 391.85 153.51 389.05C159.45 380.81 168.59 374.56 171.72 364.9C168.72 364.74 164.36 363.75 162.98 361.09C162.25 359.68 162.15 358 161.34 356.65C160.11 354.59 157.34 353.47 156.93 351.11C149.07 357.44 142.49 364.79 136.21 372.68L138.76 362.77C138.939 361.839 139.325 360.961 139.89 360.2C140.785 359.416 141.797 358.779 142.89 358.31C146 356.43 147.18 352.54 147.81 348.96C150.621 332.868 147.311 316.305 138.53 302.53Z" fill="#6C63FF"/>
</g>
<defs>
<clipPath id="clip0">
<rect width="853.78" height="726" fill="white" transform="translate(-40 75)"/>
</clipPath>
</defs>
</svg>
