<svg width="1001" height="1326" viewBox="0 0 1001 1326" fill="none" xmlns="http://www.w3.org/2000/svg">
<rect width="1001" height="1326" fill="#E5E5E5"/>
<g clip-path="url(#clip0)">
<path opacity="0.1" d="M343.62 790.89C536.273 790.89 692.45 782.437 692.45 772.01C692.45 761.583 536.273 753.13 343.62 753.13C150.967 753.13 -5.21002 761.583 -5.21002 772.01C-5.21002 782.437 150.967 790.89 343.62 790.89Z" fill="#6C63FF"/>
<path d="M633.21 633.18C633.21 633.18 638.7 640.37 630.67 651.18C622.64 661.99 616.02 671.18 618.67 677.95C618.67 677.95 630.78 657.8 640.67 657.52C650.56 657.24 644.05 645.3 633.21 633.18Z" fill="#6C63FF"/>
<path opacity="0.1" d="M633.21 633.18C633.684 633.876 634.06 634.633 634.33 635.43C643.95 646.74 649.07 657.29 639.83 657.55C631.21 657.8 620.88 673.2 618.41 677.09C618.488 677.392 618.585 677.689 618.7 677.98C618.7 677.98 630.81 657.83 640.7 657.55C650.59 657.27 644.05 645.3 633.21 633.18Z" fill="black"/>
<path d="M643.42 642.34C643.42 644.87 643.14 646.92 642.79 646.92C642.44 646.92 642.15 644.87 642.15 642.34C642.15 639.81 642.51 641 642.86 641C643.21 641 643.42 639.81 643.42 642.34Z" fill="#FFD037"/>
<path d="M646.92 645.36C644.7 646.57 642.77 647.3 642.6 646.99C642.43 646.68 644.1 645.45 646.32 644.24C648.54 643.03 647.66 643.91 647.83 644.24C648 644.57 649.14 644.15 646.92 645.36Z" fill="#FFD037"/>
<path d="M604.19 633.18C604.19 633.18 598.7 640.37 606.73 651.18C614.76 661.99 621.37 671.18 618.73 677.95C618.73 677.95 606.61 657.8 596.73 657.52C586.85 657.24 593.34 645.3 604.19 633.18Z" fill="#6C63FF"/>
<path opacity="0.1" d="M604.19 633.18C603.712 633.873 603.335 634.631 603.07 635.43C593.45 646.74 588.32 657.29 597.57 657.55C606.18 657.8 616.57 673.2 618.99 677.09C618.91 677.39 618.81 677.68 618.7 677.98C618.7 677.98 606.58 657.83 596.7 657.55C586.82 657.27 593.34 645.3 604.19 633.18Z" fill="black"/>
<path d="M593.98 642.34C593.98 644.87 594.26 646.92 594.61 646.92C594.96 646.92 595.25 644.87 595.25 642.34C595.25 639.81 594.89 641 594.54 641C594.19 641 593.98 639.81 593.98 642.34Z" fill="#FFD037"/>
<path d="M590.47 645.36C592.69 646.57 594.63 647.3 594.8 646.99C594.97 646.68 593.3 645.45 591.08 644.24C588.86 643.03 589.74 643.91 589.57 644.24C589.4 644.57 588.25 644.15 590.47 645.36Z" fill="#FFD037"/>
<path d="M595.73 677.04C595.73 677.04 611.09 676.56 615.73 673.27C620.37 669.98 639.36 666.03 640.51 671.27C641.66 676.51 663.59 697.56 646.25 697.7C628.91 697.84 605.96 695 601.34 692.19C596.72 689.38 595.73 677.04 595.73 677.04Z" fill="#A8A8A8"/>
<path opacity="0.2" d="M646.55 695.91C629.21 696.05 606.26 693.21 601.64 690.4C598.12 688.25 596.72 680.56 596.25 677.02H595.74C595.74 677.02 596.74 689.4 601.33 692.22C605.92 695.04 628.9 697.87 646.24 697.73C651.24 697.73 652.98 695.91 652.88 693.27C652.18 694.89 650.27 695.88 646.55 695.91Z" fill="black"/>
<path d="M161.436 682.695C163.086 681.184 164.29 679.148 164.889 676.855C165.329 674.545 164.448 671.811 162.479 670.914C160.267 669.965 157.902 671.69 156.104 673.425C154.305 675.16 152.264 677.148 149.917 676.774C151.124 675.548 152.027 673.992 152.538 672.258C153.048 670.523 153.149 668.67 152.831 666.879C152.728 666.137 152.449 665.439 152.021 664.861C150.789 663.389 148.568 664.014 147.094 665.174C142.418 668.866 141.114 675.998 141.087 682.403C140.619 680.093 141.015 677.682 141.006 675.342C140.997 673.002 140.413 670.298 138.632 669.058C137.527 668.396 136.288 668.069 135.036 668.109C132.931 668.019 130.593 668.261 129.155 669.975C127.356 672.124 127.833 675.715 129.389 678.045C130.944 680.375 133.3 681.889 135.467 683.513C137.211 684.676 138.699 686.265 139.819 688.163C139.947 688.432 140.055 688.712 140.143 689H153.316C156.264 687.319 158.995 685.198 161.436 682.695V682.695Z" fill="#6C63FF"/>
<path d="M56.5878 698C56.5878 698 44.9378 650.381 58.7671 615.338C64.6541 600.68 66.4336 584.118 63.8381 568.138C62.5576 560.569 60.702 553.159 58.2948 546" stroke="#535461" stroke-width="2" stroke-miterlimit="10"/>
<path d="M68 524.241C68 530.078 58.5045 547 58.5045 547C58.5045 547 49 530.038 49 524.241C49.0759 521.497 50.1101 518.893 51.8834 516.981C53.6567 515.069 56.0298 514 58.5 514C60.9702 514 63.3433 515.069 65.1166 516.981C66.8899 518.893 67.9241 521.497 68 524.241V524.241Z" fill="#6C63FF"/>
<path d="M83.5771 556.379C80.6608 561.374 64 570 64 570C64 570 64.3036 549.655 67.2291 544.67C68.6667 542.358 70.8633 540.757 73.3517 540.208C75.8402 539.659 78.4241 540.206 80.5539 541.731C82.6836 543.256 84.1911 545.64 84.7557 548.376C85.3203 551.111 84.8975 553.983 83.5771 556.379V556.379Z" fill="#6C63FF"/>
<path d="M82.5915 611.614C77.8988 614.175 60 612.403 60 612.403C60 612.403 69.3315 595.76 74.0242 593.199C75.1433 592.557 76.3695 592.163 77.6309 592.041C78.8923 591.919 80.1635 592.07 81.3701 592.487C82.5768 592.903 83.6946 593.576 84.6581 594.467C85.6216 595.357 86.4114 596.446 86.9814 597.672C87.5513 598.897 87.8899 600.232 87.9773 601.601C88.0647 602.97 87.8991 604.343 87.4903 605.642C87.0815 606.94 86.4377 608.137 85.5965 609.163C84.7553 610.188 83.7337 611.021 82.5915 611.614V611.614Z" fill="#6C63FF"/>
<path d="M73.8534 653.096C69.6833 656.509 52 658 52 658C52 658 58.5126 639.767 62.6472 636.354C63.6316 635.462 64.7697 634.8 65.9923 634.409C67.215 634.018 68.4968 633.906 69.76 634.079C71.0231 634.252 72.2413 634.707 73.3405 635.416C74.4398 636.126 75.3972 637.074 76.1547 638.205C76.9123 639.336 77.4541 640.625 77.7473 641.994C78.0405 643.363 78.079 644.784 77.8605 646.17C77.642 647.556 77.171 648.879 76.4761 650.057C75.7811 651.236 74.8768 652.247 73.818 653.027L73.8534 653.096Z" fill="#6C63FF"/>
<path d="M44.0305 570.599C47.7331 574.718 65 579 65 579C65 579 60.7672 559.353 57.047 555.223C56.1734 554.2 55.13 553.388 53.9781 552.835C52.8263 552.281 51.5894 551.997 50.3403 552C49.0912 552.003 47.8553 552.292 46.7053 552.85C45.5553 553.409 44.5146 554.225 43.6444 555.252C42.7742 556.278 42.0923 557.494 41.6387 558.827C41.1852 560.16 40.9692 561.584 41.0035 563.014C41.0379 564.444 41.3218 565.852 41.8387 567.155C42.3555 568.457 43.0947 569.628 44.0128 570.599H44.0305Z" fill="#6C63FF"/>
<path d="M34.9445 619.601C39.5259 622.186 57 620.397 57 620.397C57 620.397 47.8899 603.615 43.3086 601.021C41.1147 599.844 38.5963 599.678 36.2941 600.557C33.9918 601.436 32.0892 603.291 30.9945 605.723C29.8997 608.155 29.7002 610.97 30.4387 613.565C31.1772 616.16 32.7949 618.327 34.9445 619.601Z" fill="#6C63FF"/>
<path d="M30.5133 668.969C34.8061 672.46 53 674 53 674C53 674 46.3051 655.293 42.0398 651.791C39.9742 650.273 37.4579 649.689 35.0118 650.158C32.5657 650.628 30.3773 652.116 28.8995 654.314C27.4218 656.513 26.768 659.253 27.0735 661.968C27.379 664.683 28.6204 667.164 30.5407 668.898L30.5133 668.969Z" fill="#6C63FF"/>
<path d="M68 524.241C68 530.078 58.5045 547 58.5045 547C58.5045 547 49 530.038 49 524.241C49.0759 521.497 50.1101 518.893 51.8834 516.981C53.6567 515.069 56.0298 514 58.5 514C60.9702 514 63.3433 515.069 65.1166 516.981C66.8899 518.893 67.9241 521.497 68 524.241V524.241Z" fill="#6C63FF"/>
<path d="M83.5771 556.379C80.6608 561.374 64 570 64 570C64 570 64.3036 549.655 67.2291 544.67C68.6667 542.358 70.8633 540.757 73.3517 540.208C75.8402 539.659 78.4241 540.206 80.5539 541.731C82.6836 543.256 84.1911 545.64 84.7557 548.376C85.3203 551.111 84.8975 553.983 83.5771 556.379V556.379Z" fill="#6C63FF"/>
<path d="M82.5915 611.614C77.8988 614.175 60 612.403 60 612.403C60 612.403 69.3315 595.76 74.0242 593.199C75.1433 592.557 76.3695 592.163 77.6309 592.041C78.8923 591.919 80.1635 592.07 81.3701 592.487C82.5768 592.903 83.6946 593.576 84.6581 594.467C85.6216 595.357 86.4114 596.446 86.9814 597.672C87.5513 598.897 87.8899 600.232 87.9773 601.601C88.0647 602.97 87.8991 604.343 87.4903 605.642C87.0815 606.94 86.4377 608.137 85.5965 609.163C84.7553 610.188 83.7337 611.021 82.5915 611.614V611.614Z" fill="#6C63FF"/>
<path d="M73.8534 653.096C69.6833 656.509 52 658 52 658C52 658 58.5126 639.767 62.6472 636.354C63.6316 635.462 64.7697 634.8 65.9923 634.409C67.215 634.018 68.4968 633.906 69.76 634.079C71.0231 634.252 72.2413 634.707 73.3405 635.416C74.4398 636.126 75.3972 637.074 76.1547 638.205C76.9123 639.336 77.4541 640.625 77.7473 641.994C78.0405 643.363 78.079 644.784 77.8605 646.17C77.642 647.556 77.171 648.879 76.4761 650.057C75.7811 651.236 74.8768 652.247 73.818 653.027L73.8534 653.096Z" fill="#6C63FF"/>
<path d="M44.0305 570.599C47.7331 574.718 65 579 65 579C65 579 60.7672 559.353 57.047 555.223C56.1734 554.2 55.13 553.388 53.9781 552.835C52.8263 552.281 51.5894 551.997 50.3403 552C49.0912 552.003 47.8553 552.292 46.7053 552.85C45.5553 553.409 44.5146 554.225 43.6444 555.252C42.7742 556.278 42.0923 557.494 41.6387 558.827C41.1852 560.16 40.9692 561.584 41.0035 563.014C41.0379 564.444 41.3218 565.852 41.8387 567.155C42.3555 568.457 43.0947 569.628 44.0128 570.599H44.0305Z" fill="#6C63FF"/>
<path d="M34.9445 619.601C39.5259 622.186 57 620.397 57 620.397C57 620.397 47.8899 603.615 43.3086 601.021C41.1147 599.844 38.5963 599.678 36.2941 600.557C33.9918 601.436 32.0892 603.291 30.9945 605.723C29.8997 608.155 29.7002 610.97 30.4387 613.565C31.1772 616.16 32.7949 618.327 34.9445 619.601Z" fill="#6C63FF"/>
<path d="M30.5133 668.969C34.8061 672.46 53 674 53 674C53 674 46.3051 655.293 42.0398 651.791C39.9742 650.273 37.4579 649.689 35.0118 650.158C32.5657 650.628 30.3773 652.116 28.8995 654.314C27.4218 656.513 26.768 659.253 27.0735 661.968C27.379 664.683 28.6204 667.164 30.5407 668.898L30.5133 668.969Z" fill="#6C63FF"/>
<path d="M27 695.334C27 695.334 42.2894 692.007 46.3618 687.574C50.4342 683.142 68.7779 675.382 70.8141 680.921C72.8503 686.459 98.3207 705.305 80.9951 708.631C63.6695 711.958 40.2442 713.064 35.1537 710.843C30.0632 708.622 27 695.334 27 695.334Z" fill="#A8A8A8"/>
<path d="M504.27 261.98C509.64 255.98 507.54 246.63 507.54 246.63C507.54 246.63 482.2 182.05 479.39 181.34C476.58 180.63 469.53 164.34 469.53 164.34C469.53 164.34 401.96 100.11 399.53 100.11C397.1 100.11 372.43 82.37 369.27 82.02C366.11 81.67 361.17 79.89 355.89 77.02C350.61 74.15 297.11 77.38 295 79.86C292.89 82.34 283 84.12 283 84.12C283 84.12 262.94 85.18 260.12 88.73C257.3 92.28 236.55 94.16 236.55 94.16C236.55 94.16 226.34 97.96 240.2 108.05C235.76 108.75 230.57 109.29 225.3 109.67C223.98 109.76 222.64 109.85 221.3 109.92H220.51C219.625 107.244 217.899 104.926 215.59 103.31C214.08 102.49 212.52 101.765 210.92 101.14C208.442 99.8222 206.121 98.2288 204 96.39C193.74 88.2313 182.793 80.9775 171.28 74.71C169.503 73.5973 167.52 72.8526 165.45 72.52C161.16 72.11 157.33 75.12 153.13 76.13C145.75 77.9 138.31 73.4 130.72 73.33C121.24 73.24 112.61 80.62 109.72 89.72C108.65 93.09 108.17 96.84 105.86 99.51C102.86 103 97.79 103.51 93.68 105.58C90.7019 107.133 88.2064 109.473 86.4646 112.345C84.7227 115.217 83.8012 118.511 83.8 121.87V121.95C83.8 122.48 83.8 123.01 83.89 123.54C84.36 127.82 86.34 131.77 87.79 135.83C89.2801 139.99 90.2214 144.327 90.59 148.73C90.595 148.777 90.595 148.823 90.59 148.87C90.65 149.6 90.7 150.33 90.73 151.07C90.73 151.22 90.73 151.38 90.73 151.54C90.73 152.24 90.73 152.95 90.73 153.66C90.73 157.48 90.6 161.33 90.61 165.15V165.35V167.08C90.61 167.22 90.61 167.36 90.61 167.5C90.61 168.01 90.61 168.5 90.67 169.04V169.58C90.67 170.05 90.74 170.53 90.79 171C90.79 171.2 90.79 171.41 90.84 171.61C90.84 172.07 90.95 172.52 91.01 172.97L91.1 173.61C91.17 174.06 91.25 174.51 91.33 174.96L91.45 175.58C91.55 176.06 91.67 176.58 91.79 177.02C91.84 177.19 91.87 177.35 91.91 177.52C92.09 178.187 92.29 178.827 92.51 179.44C94.0073 183.639 96.4794 187.423 99.7232 190.481C102.967 193.538 106.89 195.783 111.17 197.03C112.781 197.474 114.449 197.683 116.12 197.65C119.12 197.58 121.99 196.65 123.77 194.6C124.21 195.1 124.64 195.6 125.1 196.1C131.622 203.193 139.759 208.609 148.819 211.888C157.88 215.168 167.598 216.214 177.149 214.938C186.7 213.663 195.803 210.103 203.686 204.56C211.568 199.018 217.998 191.656 222.43 183.1C223.48 182.87 224.52 182.66 225.57 182.46C227.39 182.12 229.22 181.8 231.06 181.46L232.83 181.18L233.53 181.06C242.53 179.64 251.27 178.69 257.53 178.06L232.79 181.13C232.79 181.13 226.79 209.94 225.06 213.13C223.33 216.32 231.06 221.64 231.06 221.64C231.06 221.64 237.75 229.8 237.75 232.29C237.75 234.78 245.49 241.87 247.6 245.77C247.868 246.265 248.205 246.719 248.6 247.12C247.038 247.724 245.595 248.601 244.34 249.71C239.45 254.34 241.08 262.46 238.84 268.82C237.44 272.82 234.51 276.06 231.69 279.21C230.677 280.238 229.827 281.415 229.17 282.7C228.803 283.551 228.577 284.456 228.5 285.38V285.38C228.45 285.892 228.43 286.406 228.44 286.92V287.1C228.44 287.5 228.44 287.89 228.52 288.28C228.52 288.45 228.52 288.62 228.52 288.79C229.01 292.97 230.43 297.01 230.86 301.19C231.29 305.37 230.77 309.58 231.63 313.65C231.928 315.069 232.391 316.449 233.01 317.76L218.69 333.76C218.69 333.76 218.6 334.55 218.57 335.85C206.63 345.76 188.17 364.46 194.76 380.95C195.48 382.757 196.147 384.487 196.76 386.14C191.91 389.23 190.31 392.9 197.58 396.56C198.73 397.14 199.84 397.64 200.93 398.09C204.66 409.04 206.12 412.09 212.37 404.02C213.04 403.14 213.82 402.02 214.67 400.81C223.47 400.63 228.56 396.56 228.56 396.56C228.56 396.56 253.19 395.14 259.56 399.05C262.75 401.05 270.25 401.45 276.89 401.4C276.801 408.553 277.135 415.706 277.89 422.82C277.89 422.82 276.83 452.98 279.65 459.37C282.47 465.76 284.03 476.76 284.03 476.76C284.03 476.76 279.3 487.4 282.11 493.08C284.92 498.76 279.65 506.92 279.65 506.92V527.85L281.65 527.71C281.5 529.12 281.31 530.6 281.06 532.01C280.48 535.28 279.61 538.21 278.27 539.16C274.75 541.69 274.4 555.16 274.4 555.16C274.4 555.16 268.77 571.49 269.82 574.33C270.87 577.17 263.14 582.84 264.9 587.1C266.66 591.36 270.26 618.32 273.39 626.1C276.52 633.88 267.01 631.78 267.01 631.78L269.82 652C269.82 652 272.64 672.58 270.53 674C268.42 675.42 256.28 685.71 264.63 691.74C265.28 692.21 265.94 692.64 266.63 693.05C266.667 693.984 266.644 694.919 266.56 695.85C266.4 697.44 266 698.71 265.11 698.85C262.63 699.21 257.7 701.69 256.66 700.63C255.62 699.57 249.66 703.31 243.66 704.53L242.83 704.66L235.04 702.66C223.769 698.366 211.397 697.909 199.84 701.36C199.84 701.36 194.19 702.24 191.45 706.46C190.06 708.62 189.45 711.66 190.69 715.9C194.45 728.44 220.08 732.76 220.08 732.76C220.08 732.76 228.96 734.59 239.63 737.01C239.28 737.01 238.92 737.01 238.56 737.01C235.615 736.99 232.77 738.074 230.585 740.049C228.401 742.024 227.036 744.746 226.76 747.678C226.485 750.61 227.318 753.539 229.097 755.887C230.875 758.234 233.468 759.83 236.366 760.358C239.263 760.887 242.253 760.311 244.745 758.743C247.238 757.175 249.053 754.729 249.831 751.889C250.609 749.048 250.293 746.02 248.947 743.4C247.601 740.781 245.322 738.761 242.56 737.74C254.56 740.5 267.85 743.86 273.25 746.23C277.271 747.744 281.39 748.98 285.58 749.93C285.787 752.412 286.78 754.763 288.415 756.641C290.05 758.52 292.242 759.827 294.672 760.374C297.101 760.92 299.642 760.677 301.924 759.68C304.206 758.683 306.11 756.984 307.36 754.83C323.69 758.24 339.42 761.13 339.42 761.13L365.69 761.56H365.87C362.774 761.581 359.813 762.829 357.635 765.029C355.457 767.23 354.239 770.204 354.25 773.3C354.261 776.396 355.498 779.361 357.691 781.547C359.884 783.733 362.854 784.96 365.95 784.96C369.046 784.96 372.016 783.733 374.209 781.547C376.402 779.361 377.639 776.396 377.65 773.3C377.66 770.204 376.443 767.23 374.265 765.029C372.087 762.829 369.126 761.581 366.03 761.56L405.8 762.21C405.323 763.828 405.2 765.531 405.44 767.201C405.68 768.871 406.277 770.47 407.19 771.889C408.104 773.307 409.313 774.512 410.734 775.421C412.156 776.331 413.757 776.923 415.428 777.157C417.099 777.392 418.801 777.264 420.417 776.781C422.034 776.299 423.528 775.473 424.797 774.361C426.066 773.249 427.081 771.877 427.772 770.337C428.462 768.798 428.813 767.127 428.8 765.44C428.798 764.475 428.677 763.515 428.44 762.58L463.52 763.15L470.52 755.45C470.911 754.702 471.146 753.882 471.21 753.04C471.42 750.51 470.11 746.67 461.15 745.04C460.49 744.92 442.21 745.21 426.06 745.48V739.14C426.06 739.14 425.61 735.65 425.33 731.54C425.25 730.33 425.18 729.07 425.15 727.83C426.064 728.456 427.079 728.919 428.15 729.2C434.84 730.27 443.99 710.75 443.99 710.75C443.99 710.75 443.99 699.75 446.1 690.88C448.21 682.01 452.1 652.2 452.1 652.2L460.56 616.37C460.56 616.37 464.06 543.27 462.3 540.43C460.54 537.59 464.42 532.62 464.42 532.62C464.42 532.62 467.23 517.01 463.01 511.69C458.79 506.37 465.47 501.04 465.47 501.04C465.47 501.04 467.23 482.59 462.3 475.5C457.37 468.41 464.61 463.44 464.61 463.44L466.37 434.7C473.76 427.25 480.44 382.9 480.8 373.32C480.892 367.927 482.09 362.611 484.32 357.7C484.32 357.7 489.24 350.25 489.95 345.28C490.66 340.31 495.95 330.03 495.95 330.03L505.1 295.96C508.79 282.22 507.85 272.06 505.4 264.82C505.04 263.8 504.66 262.87 504.27 261.98ZM338.96 263.98C344.59 267.53 342.83 268.59 344.59 270.72C346.35 272.85 344.94 272.49 343.53 276.04C342.12 279.59 343.18 278.53 343.88 282.43C344.58 286.33 344.24 286.33 344.24 286.33L346 286.58L343.55 303.05C339.55 305.66 337.72 310.66 336.89 315.82C334.53 312.74 332.15 309.54 330.02 306.56C330.75 304.93 330.61 302.99 330.63 301.16C330.71 295.16 332.95 289.43 333.98 283.52C335.032 277.508 334.838 271.344 333.41 265.41C332.897 263.177 332.108 261.017 331.06 258.98C333.34 260.5 336.23 262.3 338.96 264.02V263.98ZM345.29 611.71C345.29 611.71 349.74 608.71 354.06 605.98C355.51 616.51 356.88 627.46 357.85 637.36C356.3 633.92 355.22 631.58 355.22 631.58C353.633 629.672 352.682 627.315 352.5 624.84C352.33 620.98 345.29 611.75 345.29 611.75V611.71ZM318.9 246.99C319.9 247.13 321.32 248.4 322.66 249.92C321.42 248.92 320.17 247.92 318.89 246.98L318.9 246.99ZM254.49 378.27C250.43 379.55 236.67 379.36 228.49 378.88C231.55 373.65 234.59 368.33 237.29 363.56C238.882 363.972 240.504 364.263 242.14 364.43L268.93 340.9C279.007 344.434 289.999 344.364 300.03 340.7L300.76 341.84C301.07 342.34 301.4 342.84 301.76 343.4L301.09 342.31C301.09 342.31 290.75 348.47 291.8 351.31C292.85 354.15 290.4 361.24 286.53 368.84C285.53 370.74 284.66 372.62 283.82 374.51C275.06 375.33 258.55 376.99 254.49 378.27ZM305.32 706.11L305.17 703.3C306.87 702.93 307.99 702.59 307.99 702.59C307.639 698.42 307.051 694.273 306.23 690.17C305.17 685.91 305.72 687.33 309.84 684.17C313.96 681.01 309.84 645.17 309.84 645.17C309.84 645.17 311.84 642.68 315.01 649.07C318.18 655.46 321.36 659.36 322.42 659.71C323.48 660.06 318.19 667.17 322.42 673.91C325.046 678.27 326.834 683.083 327.69 688.1C327.69 688.1 324.88 699.37 329.1 704.38C329.67 704.964 330.35 705.429 331.1 705.75C331.1 706.68 331.1 707.67 331.1 708.6C331.1 710.47 331.1 712.07 331.01 712.41C330.969 712.65 330.867 712.875 330.713 713.063C330.56 713.252 330.36 713.397 330.134 713.486C329.907 713.574 329.662 713.603 329.421 713.569C329.18 713.534 328.953 713.438 328.76 713.29C327.67 712.58 320.76 714.17 321.23 718.62C319.596 720.551 317.744 722.286 315.71 723.79L306.12 721.31L305.32 706.11Z" fill="url(#paint0_linear)"/>
<path d="M218.95 338.5C218.95 338.5 215.6 365.95 242.17 368.76L246.17 349.76L237.8 338.5L225.81 334.44L218.95 338.5Z" fill="#6C63FF"/>
<path opacity="0.1" d="M225.81 334.44L218.95 338.49C218.95 338.49 215.6 365.94 242.17 368.75" fill="black"/>
<path d="M267.16 183.29C267.16 183.29 249.23 184.39 231.25 187.37C229.41 187.683 227.58 188.017 225.76 188.37C224.7 188.57 223.66 188.78 222.62 189.01C213.2 190.95 204.62 193.47 199.62 196.69C193.62 200.54 191.62 190.17 191.43 175.76C191.35 170.69 191.52 165.13 191.79 159.51C192.14 153.01 192.65 146.43 193.19 140.51C194.38 127.39 195.75 117.19 195.75 117.19C195.75 117.19 202.03 117.19 210.42 116.9L213.12 116.8C215.75 116.7 218.54 116.56 221.35 116.39C222.68 116.32 224.02 116.24 225.35 116.14C230.67 115.76 235.92 115.22 240.35 114.52C245.07 113.76 248.9 112.8 250.98 111.52C260.48 105.86 267.16 183.29 267.16 183.29Z" fill="#F8BDC5"/>
<path d="M347.05 284.65L343.55 307.88C343.55 307.88 335.92 317.38 336.92 322.66C337.92 327.94 346.72 561.28 346.72 561.28C346.72 561.28 363.97 659.82 357.98 672.49C351.99 685.16 357.63 714.73 357.63 714.73L393.53 709.1L405.53 278.31L347.05 284.65Z" fill="#474463"/>
<path opacity="0.1" d="M347.05 284.65L343.55 307.88C343.55 307.88 335.92 317.38 336.92 322.66C337.92 327.94 346.72 561.28 346.72 561.28C346.72 561.28 363.97 659.82 357.98 672.49C351.99 685.16 357.63 714.73 357.63 714.73L393.53 709.1L405.53 278.31L347.05 284.65Z" fill="black"/>
<path d="M426.24 720.71C425.1 722.6 425.19 728.16 425.51 732.89C425.79 736.96 426.24 740.42 426.24 740.42V764.35C426.24 764.35 387.88 750.98 366.76 736.9C358.05 731.09 355.57 725.69 356.05 721.37C356.75 715.22 363.45 711.21 366.76 711.21C369.92 711.21 379.9 705.7 388.08 700.83C394.51 697.02 399.85 693.61 399.85 693.61C399.85 693.61 428.35 717.19 426.24 720.71Z" fill="#575988"/>
<path opacity="0.1" d="M426.24 720.71C425.1 722.6 425.19 728.16 425.51 732.89C416.98 728.89 390.57 703.27 388.08 700.83C394.51 697.02 399.85 693.61 399.85 693.61C399.85 693.61 428.35 717.19 426.24 720.71Z" fill="black"/>
<path d="M505.08 300.84L495.93 334.63C495.93 334.63 490.65 344.83 489.93 349.76C489.21 354.69 484.3 362.08 484.3 362.08C482.078 366.944 480.88 372.213 480.78 377.56C480.43 387.07 473.78 431.06 466.35 438.45L464.59 466.96C464.59 466.96 457.59 471.88 462.48 478.96C467.37 486.04 465.65 504.3 465.65 504.3C465.65 504.3 458.96 509.58 463.19 514.86C467.42 520.14 464.59 535.63 464.59 535.63C464.59 535.63 460.72 540.55 462.48 543.37C464.24 546.19 460.74 618.69 460.74 618.69L452.28 654.23C452.28 654.23 448.4 683.8 446.28 692.6C444.16 701.4 444.17 712.3 444.17 712.3C444.17 712.3 435.02 731.66 428.33 730.61C421.64 729.56 389.27 697.87 389.27 697.87L393.84 590.87C393.84 590.87 397.71 545.47 395.25 536.67C392.79 527.87 391.03 483.88 391.03 483.88L386.1 414.55L336.88 337.12C336.88 337.12 333.31 314.59 343.51 307.91L345.36 295.74L347.03 284.68L405.46 278.34L494.85 255.12C494.85 255.12 501.74 259.37 505.35 269.98C507.82 277.13 508.77 287.21 505.08 300.84Z" fill="#474463"/>
<path d="M349.55 336.44C349.55 336.44 308.02 387.44 309.78 373.19C310.88 364.24 305.2 353.31 300.78 346.4C298.17 342.29 296.01 339.6 296.01 339.6C296.01 339.6 321.35 293.15 322.76 299.48C323.21 301.48 326.14 306.07 329.91 311.31C337.86 322.29 349.55 336.44 349.55 336.44Z" fill="#FFC1C8"/>
<path opacity="0.3" d="M426.24 759.37V764.37C426.24 764.37 387.88 751 366.76 736.92C358.05 731.11 355.57 725.71 356.05 721.39C367.71 727.29 389.4 738.54 395.97 743.61C401.55 747.91 415.97 754.72 426.24 759.37Z" fill="white"/>
<path d="M417.21 778.36C423.688 778.36 428.94 773.108 428.94 766.63C428.94 760.152 423.688 754.9 417.21 754.9C410.732 754.9 405.48 760.152 405.48 766.63C405.48 773.108 410.732 778.36 417.21 778.36Z" fill="#474463"/>
<path d="M297.39 761.89C303.868 761.89 309.12 756.638 309.12 750.16C309.12 743.682 303.868 738.43 297.39 738.43C290.912 738.43 285.66 743.682 285.66 750.16C285.66 756.638 290.912 761.89 297.39 761.89Z" fill="#474463"/>
<path d="M471.39 754.33C471.324 755.165 471.089 755.978 470.7 756.72L463.7 764.35L365.86 762.78L339.55 762.35C339.55 762.35 284.17 752.27 273.38 747.57C262.59 742.87 220.17 734.27 220.17 734.27C220.17 734.27 194.55 729.97 190.79 717.54C189.52 713.33 190.16 710.32 191.55 708.18C194.28 703.99 199.94 703.11 199.94 703.11C211.501 699.695 223.862 700.151 235.14 704.41L399.14 746.6L401.68 747.25C401.68 747.25 460.14 746.16 461.32 746.37C470.29 748.01 471.6 751.82 471.39 754.33Z" fill="#6C63FF"/>
<path opacity="0.3" d="M471.39 754.33C461.55 753.05 444.39 751.16 439.97 752.98C439.97 752.98 408.76 749.12 365.82 762.78L339.55 762.35C339.55 762.35 284.17 752.27 273.38 747.57C262.59 742.87 220.17 734.27 220.17 734.27C220.17 734.27 194.55 729.97 190.79 717.54C189.52 713.33 190.16 710.32 191.55 708.18C193.3 713.28 196.67 720.67 202.05 722.74C210.5 725.99 245.23 732.61 245.23 732.61L313.97 749.44C313.97 749.44 353.66 758.05 369.11 752.44C375.44 750.16 387.32 748.13 399.11 746.54L401.65 747.19C401.65 747.19 460.11 746.1 461.29 746.31C470.29 748.01 471.6 751.82 471.39 754.33Z" fill="white"/>
<path d="M376.46 741.66C376.377 743.134 376.193 744.601 375.91 746.05C375.91 746.05 337.03 747.44 316.79 744.44C311.2 743.61 308.04 741.82 306.47 739.68C305.769 738.669 305.335 737.497 305.207 736.274C305.079 735.05 305.263 733.814 305.74 732.68C305.964 732.028 306.248 731.399 306.59 730.8C308.1 728.16 310.42 726.29 311.69 726.54C315.21 727.25 321.25 720.03 321.25 720.03C320.77 715.62 327.7 714.03 328.78 714.75C328.973 714.898 329.2 714.994 329.441 715.029C329.682 715.063 329.927 715.034 330.154 714.946C330.38 714.857 330.58 714.712 330.733 714.523C330.887 714.335 330.989 714.11 331.03 713.87C331.1 713.54 331.12 711.95 331.12 710.09C331.12 706.99 331.03 703.09 331.03 703.09L370.11 707.84L371.66 715.31C373.08 721.97 375.06 731.12 375.91 734.25C376.501 736.673 376.687 739.177 376.46 741.66Z" fill="#474463"/>
<path opacity="0.1" d="M376.46 741.66C376.377 743.134 376.193 744.601 375.91 746.05C375.91 746.05 337.03 747.44 316.79 744.44C311.2 743.61 308.04 741.82 306.47 739.68C311.66 739.37 318.41 739.2 322.59 740.22C328.55 741.7 364.2 741.7 376.46 741.66Z" fill="black"/>
<path d="M306.55 730.78C306.593 731.141 306.536 731.507 306.386 731.838C306.236 732.169 305.999 732.453 305.7 732.66C300.78 736.46 277.17 732.33 277.17 732.33C277.17 732.33 228.93 729.33 221.72 724.41C221.069 723.982 220.525 723.411 220.13 722.74C217.13 717.32 227.99 708.22 228.93 708.22C229.87 708.22 242.84 706.45 243.71 706.28C249.71 705.07 255.71 701.35 256.71 702.41C257.71 703.47 262.71 701 265.15 700.65C266.04 700.52 266.45 699.26 266.6 697.65C266.741 695.471 266.667 693.284 266.38 691.12L304.91 701.49L305.25 707.63L306.36 728.07L306.5 730.58C306.524 730.645 306.541 730.712 306.55 730.78Z" fill="#474463"/>
<path opacity="0.1" d="M277.21 732.33C277.21 732.33 228.97 729.33 221.76 724.41C221.109 723.982 220.565 723.411 220.17 722.74C229.94 723.54 246.23 724.89 249.17 725.64C253.4 726.64 277.17 728.1 277.17 728.1H306.4L306.54 730.61C307.81 737.69 277.21 732.33 277.21 732.33Z" fill="black"/>
<path d="M238.65 761.89C245.128 761.89 250.38 756.638 250.38 750.16C250.38 743.682 245.128 738.43 238.65 738.43C232.172 738.43 226.92 743.682 226.92 750.16C226.92 756.638 232.172 761.89 238.65 761.89Z" fill="#474463"/>
<path d="M366.05 786.24C372.528 786.24 377.78 780.988 377.78 774.51C377.78 768.032 372.528 762.78 366.05 762.78C359.572 762.78 354.32 768.032 354.32 774.51C354.32 780.988 359.572 786.24 366.05 786.24Z" fill="#474463"/>
<path d="M246.75 351.17C246.75 351.17 244.53 355.17 241.19 361.11C233.19 375.23 218.8 400.26 212.61 408.18C203.81 419.44 204.52 408.89 195.01 385.31C187.95 367.77 209.68 347.7 221.3 338.58C225.3 335.41 228.1 333.58 228.1 333.58L246.75 351.17Z" fill="#F8BDC5"/>
<path d="M289.33 378.27C289.33 378.27 260.12 380.73 254.49 382.49C248.86 384.25 224.58 383.19 222.49 382.49C220.4 381.79 178.84 391.29 197.85 400.79C216.86 410.29 228.85 400.79 228.85 400.79C228.85 400.79 253.49 399.38 259.85 403.26C266.21 407.14 289.41 405.02 289.41 405.02L289.33 378.27Z" fill="#FFC1C8"/>
<path opacity="0.1" d="M228.65 162.88C232.25 172.09 230 180.11 225.76 188.34C215.14 190.34 205.15 193.09 199.59 196.66C183.75 206.87 195.72 117.12 195.72 117.12C195.72 117.12 203.38 117.12 213.09 116.73C210.15 130.15 221.29 144.08 228.65 162.88Z" fill="black"/>
<path d="M229.55 160.88C229.531 175.621 224.087 189.839 214.255 200.822C204.423 211.805 190.893 218.784 176.244 220.429C161.595 222.073 146.854 218.268 134.832 209.739C122.809 201.209 114.348 188.552 111.061 174.183C107.774 159.813 109.892 144.736 117.01 131.828C124.129 118.921 135.75 109.085 149.657 104.197C163.564 99.31 178.783 99.7131 192.412 105.33C206.04 110.946 217.125 121.383 223.55 134.65C227.51 142.826 229.562 151.795 229.55 160.88V160.88Z" fill="#F8BDC5"/>
<path opacity="0.1" d="M505.37 269.95C503.47 272.715 500.625 274.689 497.37 275.5C483.64 279.37 386.85 302.6 380.52 301.19C374.93 299.95 350.94 296.5 345.41 295.71L347.08 284.65L405.51 278.31L494.9 255.09C494.9 255.09 501.76 259.34 505.37 269.95Z" fill="black"/>
<path opacity="0.1" d="M267.16 183.29C255.719 183.976 244.321 185.244 233.01 187.09C233.171 186.575 233.15 186.021 232.95 185.52L256.35 182.63C256.35 182.63 252.93 127.63 240.35 114.45C245.07 113.69 248.9 112.73 250.98 111.45C260.48 105.86 267.16 183.29 267.16 183.29Z" fill="black"/>
<path d="M236.55 100.69C236.55 100.69 257.32 98.82 260.13 95.3C262.94 91.78 283.01 90.73 283.01 90.73C283.01 90.73 292.86 88.97 295.01 86.5C297.16 84.03 350.61 80.87 355.89 83.69C361.17 86.51 366.1 88.26 369.27 88.62C372.44 88.98 397.07 106.56 399.53 106.56C401.99 106.56 469.53 170.27 469.53 170.27C469.53 170.27 476.53 186.46 479.39 187.16C482.25 187.86 507.55 251.92 507.55 251.92C507.55 251.92 511.07 267.4 497.35 271.28C483.63 275.16 386.83 298.38 380.5 296.97C374.17 295.56 344.25 291.34 344.25 291.34C344.25 291.34 344.6 291.34 343.9 287.47C343.2 283.6 342.14 284.65 343.54 281.13C344.94 277.61 346.36 277.96 344.6 275.85C342.84 273.74 344.6 272.68 338.97 269.16C333.34 265.64 326.97 261.77 326.65 260.72C326.33 259.67 321.37 252.62 318.91 252.27C316.45 251.92 247.46 232.56 247.46 232.56L231.27 227.28C231.27 227.28 223.53 222 225.27 218.84C227.01 215.68 233 187.09 233 187.09L257.75 184.04C257.75 184.04 254.06 124.44 240.2 114.44C226.34 104.44 236.55 100.69 236.55 100.69Z" fill="#6C63FF"/>
<path opacity="0.1" d="M246.75 351.17C246.75 351.17 244.53 355.17 241.19 361.11C240.67 342.75 227.83 339.19 221.3 338.58C225.3 335.41 228.1 333.58 228.1 333.58L246.75 351.17Z" fill="black"/>
<path d="M229.55 217.78L231.25 227.28C231.25 227.28 237.94 235.38 237.94 237.84C237.94 240.3 245.68 247.34 247.8 251.21C249.92 255.08 257.3 255.79 254.48 262.48C251.66 269.17 235.48 320.2 235.48 320.2L218.94 338.5C218.94 338.5 246.39 336.03 242.16 368.76L277.71 337.76L305.55 287.11C305.55 287.11 278.45 235.73 277.4 231.51C276.35 227.29 229.55 217.78 229.55 217.78Z" fill="#6C63FF"/>
<path opacity="0.1" d="M311.86 235.38C311.86 235.38 334.38 219.54 334.38 217.78C334.38 216.02 311.86 235.38 311.86 235.38Z" fill="black"/>
<path opacity="0.1" d="M349.55 255.09C349.55 255.09 361.55 252.27 362.55 245.94C363.55 239.61 349.55 255.09 349.55 255.09Z" fill="black"/>
<path opacity="0.1" d="M359.37 271.28C359.37 271.28 376.27 262.91 375.56 261.46C374.85 260.01 359.37 271.28 359.37 271.28Z" fill="black"/>
<path opacity="0.1" d="M449.82 217.67C449.82 217.67 442.82 222.24 444.9 226.52C446.98 230.8 449.82 217.67 449.82 217.67Z" fill="black"/>
<path opacity="0.1" d="M470.55 219.54C470.55 219.54 450.61 238.54 455.12 238.9C459.63 239.26 470.55 219.54 470.55 219.54Z" fill="black"/>
<path opacity="0.1" d="M425.19 514.12C425.19 514.12 450.88 519.05 451.58 520.81C452.28 522.57 425.19 514.12 425.19 514.12Z" fill="black"/>
<path opacity="0.1" d="M434.34 531.01C434.34 531.01 448.06 539.46 448.41 541.92C448.76 544.38 434.34 531.01 434.34 531.01Z" fill="black"/>
<path opacity="0.1" d="M431.17 550.02C431.17 550.02 433.28 559.52 436.8 560.93C440.32 562.34 431.17 550.02 431.17 550.02Z" fill="black"/>
<path opacity="0.1" d="M223.61 134.34C223.61 134.44 223.61 134.55 223.56 134.65C223.08 137.78 221.8 141.17 218.86 142.21C217.084 142.71 215.185 142.535 213.53 141.72C208.53 139.53 204.08 134.27 198.74 135.54C196.2 136.14 194.42 138.07 193.16 140.44C192.286 142.146 191.615 143.948 191.16 145.81C190.16 149.73 189.36 153.99 190.89 157.72C191.142 158.33 191.443 158.919 191.79 159.48C193.21 161.75 195.21 163.68 196.61 165.97C198.35 168.83 198.8 173.12 196.09 175.08C195.41 175.527 194.639 175.817 193.833 175.93C193.027 176.042 192.206 175.974 191.43 175.73C189.445 175.106 187.536 174.261 185.74 173.21C182.2 171.36 177.74 170.21 174.38 172.35C173.22 173.07 172.29 174.11 171.18 174.87C168.873 176.299 166.136 176.869 163.45 176.48C157.09 175.83 154.71 171.8 149.85 168.68C146.29 166.38 138.85 165.4 136.73 170.1C135.37 173.1 137.39 176.88 136.06 179.94C134.73 183 130.5 183.94 128.54 186.78C125.96 190.52 128.36 195.93 126.47 200.08C126.181 200.723 125.793 201.317 125.32 201.84C114.723 190.421 108.967 175.338 109.262 159.763C109.557 144.187 115.88 129.333 126.902 118.324C137.924 107.315 152.786 101.009 168.362 100.732C183.938 100.456 199.014 106.23 210.42 116.84L213.12 116.74C215.75 116.64 218.54 116.5 221.35 116.33C222.014 117.737 222.534 119.208 222.9 120.72C223.988 125.175 224.229 129.796 223.61 134.34V134.34Z" fill="black"/>
<path d="M135.3 168.7C133.93 171.7 135.95 175.48 134.63 178.53C133.31 181.58 129.05 182.53 127.11 185.37C124.52 189.12 126.92 194.53 125.04 198.67C122.88 203.4 116.36 204.14 111.36 202.76C107.088 201.54 103.168 199.321 99.9238 196.287C96.6791 193.253 94.203 189.49 92.7 185.31C89.31 175.66 91.5 165.04 90.62 154.85C90.2453 150.483 89.304 146.184 87.82 142.06C86.37 138.06 84.39 134.12 83.92 129.87C83.5836 126.264 84.3355 122.64 86.0788 119.465C87.8221 116.291 90.4766 113.711 93.7 112.06C97.82 110.06 102.89 109.49 105.89 106.06C108.19 103.4 108.68 99.69 109.75 96.34C112.64 87.34 121.27 80 130.75 80.09C138.33 80.15 145.75 84.62 153.16 82.86C157.35 81.86 161.16 78.86 165.48 79.29C167.549 79.6154 169.532 80.3533 171.31 81.46C182.812 87.6723 193.755 94.8657 204.02 102.96C206.143 104.789 208.468 106.369 210.95 107.67C212.548 108.293 214.108 109.011 215.62 109.82C218.85 111.82 220.54 115.63 221.46 119.33C222.564 123.783 222.815 128.404 222.2 132.95C221.76 136.16 220.5 139.76 217.45 140.83C215.668 141.327 213.765 141.145 212.11 140.32C207.11 138.15 202.67 132.89 197.33 134.15C192.97 135.15 190.87 140.09 189.73 144.42C188.73 148.34 187.91 152.6 189.46 156.34C190.74 159.44 193.46 161.71 195.17 164.58C196.88 167.45 197.37 171.74 194.65 173.69C191.65 175.86 187.58 173.55 184.29 171.83C180.77 169.98 176.29 168.83 172.94 170.96C171.79 171.68 170.86 172.72 169.74 173.49C167.431 174.905 164.701 175.471 162.02 175.09C155.65 174.44 153.27 170.41 148.42 167.29C144.85 164.97 137.43 163.99 135.3 168.7Z" fill="#474463"/>
<path opacity="0.1" d="M329.92 311.26C329.65 312.76 327.59 312.93 327.17 314.39C323.17 328.5 314.37 341.19 300.79 346.39C298.18 342.28 296.02 339.59 296.02 339.59C296.02 339.59 321.36 293.14 322.77 299.47C323.22 301.44 326.15 306.02 329.92 311.26Z" fill="black"/>
<path d="M330.67 301.54C330.672 310.729 327.949 319.713 322.845 327.355C317.741 334.996 310.486 340.953 301.996 344.471C293.507 347.989 284.165 348.91 275.152 347.119C266.139 345.327 257.86 340.903 251.361 334.406C244.863 327.909 240.437 319.63 238.643 310.618C236.85 301.605 237.769 292.263 241.286 283.773C244.802 275.283 250.757 268.026 258.397 262.921C266.038 257.815 275.021 255.09 284.21 255.09C290.317 255.068 296.367 256.254 302.014 258.58C307.66 260.906 312.79 264.327 317.109 268.644C321.427 272.962 324.849 278.091 327.176 283.737C329.504 289.383 330.691 295.433 330.67 301.54Z" fill="#FFC1C8"/>
<path opacity="0.1" d="M304.99 701.52L305.33 707.66C301.26 708.56 293.52 709.74 289.01 706.98C283.18 703.41 274.57 702.54 266.68 697.68C266.821 695.501 266.747 693.314 266.46 691.15L304.99 701.52Z" fill="black"/>
<path opacity="0.1" d="M371.66 715.33C371.39 716.7 371.14 717.54 371.14 717.54C371.14 717.54 340.09 714.36 331.14 710.07C331.14 706.97 331.05 703.07 331.05 703.07L370.13 707.82L371.66 715.33Z" fill="black"/>
<path d="M364.65 575.71C362.54 581.34 361.48 582.4 363.6 585.21C365.72 588.02 364.65 602.81 361.29 604.21C357.93 605.61 345.29 614.06 345.29 614.06C345.29 614.06 352.29 623.21 352.5 627.06C352.684 629.52 353.635 631.86 355.22 633.75C355.22 633.75 366.06 656.98 368.22 664.37C370.38 671.76 372.36 683.37 372.36 683.37C372.36 683.37 368.57 693.93 371.19 699.92C373.81 705.91 371.19 714.7 371.19 714.7C371.19 714.7 333.38 710.83 329.19 705.86C325 700.89 327.79 689.71 327.79 689.71C326.926 684.728 325.135 679.952 322.51 675.63C318.28 668.94 323.51 661.91 322.51 661.55C321.51 661.19 318.28 657.33 315.1 651C311.92 644.67 309.94 647.12 309.94 647.12C309.94 647.12 314.06 682.67 309.94 685.84C305.82 689.01 305.26 687.6 306.32 691.84C307.141 695.91 307.729 700.023 308.08 704.16C308.08 704.16 295.41 708.03 289.08 704.16C282.75 700.29 273.22 699.58 264.85 693.6C256.48 687.62 268.64 677.41 270.75 676C272.86 674.59 270.05 654.18 270.05 654.18L267.23 634.12C267.23 634.12 276.73 636.23 273.61 628.49C270.49 620.75 266.88 594 265.12 589.78C263.36 585.56 271.12 579.92 270.05 577.11C268.98 574.3 274.62 558.11 274.62 558.11C274.62 558.11 274.98 544.74 278.49 542.23C279.83 541.29 280.7 538.37 281.28 535.14C281.895 531.328 282.259 527.48 282.37 523.62C282.37 523.62 362.96 517.99 375.98 525.73C381.84 529.21 381.43 535.62 378.98 542.11C375.98 550.03 369.82 558.11 368.27 561.04C365.36 566.44 366.76 570.08 364.65 575.71Z" fill="#575988"/>
<path opacity="0.1" d="M378.88 542.11C368.88 544.92 355.56 549.05 353.39 551.42C349.87 555.3 337.9 529.6 337.9 529.6C337.9 529.6 338.61 548.92 322.77 540.84C309.06 533.84 286.93 534.76 281.21 535.14C281.825 531.328 282.189 527.48 282.3 523.62C282.3 523.62 362.89 517.99 375.91 525.73C381.77 529.21 381.36 535.62 378.88 542.11Z" fill="black"/>
<path d="M337.9 329.35C337.9 329.35 344.9 320.9 346.35 324.07C347.8 327.24 356.06 333.57 356.06 333.57C356.06 333.57 358.43 340.96 362.6 342.02C366.77 343.08 398.09 385.31 398.09 385.31L386.82 408.18L377.67 463.79C377.67 463.79 378.07 472.59 375.58 475.79C373.09 478.99 363.58 478.25 367.99 482.12C372.4 485.99 378.73 489.51 382.25 507.12C385.77 524.73 389.99 534.92 389.99 534.92C389.99 534.92 356.91 543.37 353.39 547.24C349.87 551.11 337.9 525.42 337.9 525.42C337.9 525.42 338.61 544.73 322.77 536.66C306.93 528.59 279.83 531.05 279.83 531.05V510.25C279.83 510.25 285.11 502.15 282.3 496.52C279.49 490.89 284.22 480.33 284.22 480.33C284.22 480.33 282.65 469.42 279.83 463.09C277.01 456.76 278.07 426.84 278.07 426.84C278.07 426.84 275.93 407.48 277.88 397.62C279.535 389.074 282.457 380.823 286.55 373.14C290.42 365.6 292.87 358.56 291.82 355.74C290.77 352.92 301.11 346.82 301.11 346.82L306.84 356.09L308.3 361.63C308.3 361.63 338.61 339.91 337.9 329.35Z" fill="#DCE6F2"/>
<path d="M388.55 378.27C388.55 378.27 408.26 397.62 410.37 400.79C412.48 403.96 419.55 420.44 410.4 425.44C401.25 430.44 365.4 438.15 361.84 435.49C358.28 432.83 336.84 438.49 336.84 438.49C336.84 438.49 300.98 447.29 308.72 432.86C316.46 418.43 334.77 420.86 334.77 420.86C334.77 420.86 364.35 420.81 367.51 417.86C370.67 414.91 394.51 408.58 389.11 395.54C383.71 382.5 388.55 378.27 388.55 378.27Z" fill="#FFC1C8"/>
<path opacity="0.1" d="M330.67 464.85C330.67 464.85 284.76 504.62 289.33 504.62C293.9 504.62 330.67 464.85 330.67 464.85Z" fill="black"/>
<path opacity="0.1" d="M361.29 481.04C361.29 481.04 346.7 484.55 349.52 486.67C352.34 488.79 361.29 481.04 361.29 481.04Z" fill="black"/>
<path opacity="0.1" d="M309.84 384.6C309.84 384.6 328.05 386.23 324.84 391.93C321.63 397.63 309.84 384.6 309.84 384.6Z" fill="black"/>
<path opacity="0.1" d="M298.49 555.53C298.49 555.53 296.02 562.69 298.49 566.53C300.96 570.37 298.49 579.53 298.49 579.53V611.53C298.49 611.53 298.15 634.76 306.58 642.85L298.49 555.53Z" fill="black"/>
<path opacity="0.1" d="M274.38 655.25C274.38 655.25 279.3 662.46 280.01 665.1C280.72 667.74 274.38 655.25 274.38 655.25Z" fill="black"/>
<path opacity="0.1" d="M275.61 640.82C275.61 640.82 287.05 638.71 288.81 639.94C290.57 641.17 275.61 640.82 275.61 640.82Z" fill="black"/>
<path opacity="0.1" d="M272.27 683.93C272.27 683.93 268.92 684.28 275.61 687.93C282.3 691.58 295.32 696.2 295.49 694.62C295.66 693.04 272.27 683.93 272.27 683.93Z" fill="black"/>
<path opacity="0.1" d="M321.24 648.91C322.42 648.91 337.15 648.03 336.3 650.32C335.45 652.61 321.24 648.91 321.24 648.91Z" fill="black"/>
<path opacity="0.1" d="M341.25 628.32C341.25 628.32 344.59 622.52 345.82 624.98C347.05 627.44 341.25 628.32 341.25 628.32Z" fill="black"/>
<path opacity="0.1" d="M330.67 301.54C330.675 305.859 330.076 310.157 328.89 314.31C326.95 316.07 323.6 316.09 321.21 314.78C318.41 313.24 316.58 310.44 314.76 307.78C312.94 305.12 310.87 302.46 307.89 301.32C304.12 299.9 299.82 301.32 296.54 303.68C293.26 306.04 290.64 309.16 287.54 311.68C284.44 314.2 280.49 316.24 276.54 315.62C273.99 315.23 271.73 313.79 269.54 312.4C266.54 310.51 263.32 307.57 260.03 306.3C256.74 305.03 254.03 307.3 250.9 307.3C248.41 308.2 245.7 310.25 246.2 312.84C246.468 313.801 246.901 314.708 247.48 315.52C248.485 317.5 248.882 319.733 248.62 321.937C248.358 324.142 247.45 326.22 246.01 327.91C241.865 321.918 239.188 315.034 238.194 307.816C237.2 300.598 237.918 293.247 240.29 286.357C242.662 279.468 246.621 273.233 251.847 268.156C257.074 263.079 263.421 259.302 270.376 257.131C277.332 254.96 284.7 254.455 291.886 255.657C299.073 256.86 305.876 259.735 311.746 264.052C317.616 268.369 322.388 274.006 325.677 280.508C328.966 287.009 330.68 294.194 330.68 301.48L330.67 301.54Z" fill="black"/>
<path d="M250.89 305.95C248.4 306.85 245.69 308.9 246.18 311.5C246.458 312.456 246.894 313.358 247.47 314.17C250.39 319.38 247.92 326.86 242.47 329.28C241.616 329.725 240.64 329.879 239.69 329.72C238.937 329.486 238.251 329.075 237.69 328.52C234.759 325.9 232.738 322.415 231.92 318.57C231.06 314.57 231.59 310.33 231.15 306.22C230.71 302.11 229.3 298.06 228.81 293.92C228.463 291.874 228.681 289.772 229.44 287.84C230.1 286.565 230.949 285.399 231.96 284.38C234.77 281.25 237.7 278.05 239.11 274.08C241.34 267.76 239.72 259.71 244.6 255.08C246.86 252.96 250.02 252.17 252.82 250.83C255.456 249.43 257.981 247.829 260.37 246.04C269.42 239.82 280.42 235.04 291.18 237.24C295.479 238.281 299.596 239.967 303.39 242.24C310.438 246.125 317.13 250.622 323.39 255.68C326.097 257.682 328.461 260.11 330.39 262.87C331.827 265.233 332.861 267.818 333.45 270.52C334.887 276.415 335.084 282.545 334.03 288.52C333.03 294.38 330.76 300.07 330.67 306.02C330.67 308.02 330.83 310.18 329.8 311.9C328.15 314.64 324.06 314.9 321.26 313.38C318.46 311.86 316.63 309.04 314.82 306.38C313.01 303.72 310.93 301.06 307.95 299.93C304.18 298.5 299.88 299.93 296.6 302.28C293.32 304.63 290.71 307.76 287.6 310.28C284.49 312.8 280.6 314.84 276.6 314.22C274.05 313.83 271.79 312.4 269.6 311.01C266.6 309.11 263.38 306.17 260.1 304.91C256.82 303.65 254.01 305.95 250.89 305.95Z" fill="#794F6A"/>
<path d="M357.61 378.27C357.61 378.27 305.88 426.13 316.43 450.06C326.98 473.99 373.43 431.76 373.43 431.76L389.99 393.44L357.61 378.27Z" fill="#F8BDC5"/>
<g opacity="0.1">
<path opacity="0.1" d="M242.45 326.44C241.599 326.885 240.627 327.039 239.68 326.88C238.923 326.648 238.236 326.233 237.68 325.67C234.749 323.053 232.725 319.572 231.9 315.73C231.05 311.68 231.58 307.48 231.14 303.37C230.7 299.26 229.28 295.22 228.8 291.07C228.8 290.87 228.8 290.66 228.75 290.45C228.642 291.595 228.658 292.749 228.8 293.89C229.28 298.03 230.7 302.03 231.14 306.19C231.58 310.35 231.05 314.5 231.9 318.54C232.722 322.386 234.746 325.871 237.68 328.49C238.239 329.046 238.926 329.458 239.68 329.69C240.627 329.849 241.599 329.695 242.45 329.25C246.75 327.34 249.18 322.31 248.61 317.71C248.401 319.566 247.728 321.34 246.651 322.866C245.574 324.392 244.129 325.621 242.45 326.44V326.44Z" fill="black"/>
<path opacity="0.1" d="M333.96 285.69C332.96 291.55 330.69 297.24 330.61 303.19C330.61 305.19 330.77 307.35 329.73 309.07C328.09 311.81 324 312.07 321.2 310.55C318.4 309.03 316.57 306.22 314.75 303.55C312.93 300.88 310.87 298.23 307.88 297.1C304.12 295.68 299.82 297.1 296.54 299.46C293.26 301.82 290.64 304.93 287.54 307.46C284.44 309.99 280.49 312.02 276.54 311.41C273.99 311.01 271.73 309.58 269.54 308.19C266.54 306.29 263.32 303.36 260.04 302.09C256.76 300.82 254.04 303.09 250.91 303.09C248.42 304 245.71 306.04 246.19 308.65C246.251 308.932 246.342 309.207 246.46 309.47C247.44 307.763 249.03 306.491 250.91 305.91C254.03 305.91 256.79 303.67 260.04 304.91C263.29 306.15 266.57 309.11 269.54 311.01C271.71 312.4 273.97 313.83 276.54 314.22C280.54 314.84 284.46 312.83 287.54 310.28C290.62 307.73 293.27 304.58 296.54 302.28C299.81 299.98 304.12 298.5 307.88 299.93C310.88 301.06 312.94 303.75 314.75 306.38C316.56 309.01 318.4 311.8 321.2 313.38C324 314.96 328.09 314.64 329.73 311.9C330.73 310.18 330.58 308.03 330.61 306.02C330.69 300.07 332.93 294.38 333.96 288.52C334.488 285.51 334.702 282.454 334.6 279.4C334.536 281.509 334.323 283.611 333.96 285.69V285.69Z" fill="black"/>
</g>
<path opacity="0.1" d="M295.67 134.72C295.67 134.72 276.67 169.21 302.67 186.81C328.67 204.41 331.18 202.65 331.18 202.65C331.18 202.65 330.82 206.87 331.18 207.93C331.54 208.99 338.18 211.44 338.18 211.44C338.18 211.44 346.27 224.44 357.88 230.1C369.49 235.76 371.61 249.1 371.61 249.1C371.61 249.1 371.61 253.68 377.61 257.9C383.61 262.12 388.23 274.44 388.23 274.44V285.71C388.23 287.47 390.34 292.71 385.77 293.27C381.2 293.83 385.06 304.36 385.06 304.36C385.06 304.36 380.14 310.36 381.19 313.16C382.24 315.96 379.08 321.6 379.08 321.6C379.08 321.6 375.21 327.23 375.56 328.29C375.91 329.35 371.34 333.22 372.39 335.68C373.44 338.14 367.12 341.31 368.17 344.13C369.22 346.95 363.67 348.35 363.67 348.35L348.46 383.55C348.46 383.55 380.46 390.55 388.72 408.18L429.06 334.27C429.06 334.27 451.58 279.02 452.29 275.5C453 271.98 447.36 259.31 447.36 259.31L419.91 209.31L378.73 151.24C378.73 151.24 346 81.58 295.67 134.72Z" fill="black"/>
<path opacity="0.1" d="M336.3 149.27C336.3 149.27 286.86 166.62 312.9 184.22C338.94 201.82 341.41 200.05 341.41 200.05C341.41 200.05 341.06 204.28 341.41 205.33C341.76 206.38 348.41 208.85 348.41 208.85C348.41 208.85 356.51 221.85 368.12 227.51C379.73 233.17 381.85 246.51 381.85 246.51C381.85 246.51 381.85 251.09 387.85 255.31C393.85 259.53 398.41 271.85 398.41 271.85V283.11C398.41 284.87 400.52 290.11 395.94 290.68C391.36 291.25 395.24 301.77 395.24 301.77C395.24 301.77 390.31 307.77 391.37 310.56C392.43 313.35 389.26 319.01 389.26 319.01C389.26 319.01 385.39 324.64 385.74 325.7C386.09 326.76 381.51 330.63 382.57 333.09C383.63 335.55 377.29 338.72 378.35 341.54C379.41 344.36 373.84 345.76 373.84 345.76L358.64 380.95C358.64 380.95 385 382.31 393.32 399.95L439.23 331.72C439.23 331.72 461.76 276.47 462.46 272.95C463.16 269.43 457.55 256.72 457.55 256.72L430.1 206.72L367.48 170.6C367.48 170.6 386.63 96.12 336.3 149.27Z" fill="black"/>
<path d="M298.49 134.72C298.49 134.72 279.49 169.21 305.49 186.81C331.49 204.41 334 202.65 334 202.65C334 202.65 333.65 206.87 334 207.93C334.35 208.99 341 211.44 341 211.44C341 211.44 349.1 224.44 360.71 230.1C372.32 235.76 374.44 249.1 374.44 249.1C374.44 249.1 374.44 253.68 380.44 257.9C386.44 262.12 391.05 274.44 391.05 274.44V285.71C391.05 287.47 393.16 292.71 388.58 293.27C384 293.83 387.88 304.36 387.88 304.36C387.88 304.36 382.95 310.36 384.01 313.16C385.07 315.96 381.9 321.6 381.9 321.6C381.9 321.6 378.03 327.23 378.38 328.29C378.73 329.35 374.15 333.22 375.21 335.68C376.27 338.14 369.93 341.31 370.99 344.13C372.05 346.95 366.48 348.35 366.48 348.35L351.28 383.55C351.28 383.55 383.22 390.55 391.53 408.18L431.87 334.27C431.87 334.27 454.4 279.02 455.1 275.5C455.8 271.98 450.17 259.31 450.17 259.31L422.72 209.31L381.55 151.26C381.55 151.26 348.81 81.58 298.49 134.72Z" fill="#6C63FF"/>
<g opacity="0.1">
<path opacity="0.1" d="M90.62 152.04C90.2501 147.669 89.3087 143.366 87.82 139.24C86.37 135.24 84.39 131.3 83.92 127.05C83.92 126.92 83.92 126.8 83.92 126.67C83.815 127.734 83.815 128.806 83.92 129.87C84.39 134.12 86.37 138.03 87.82 142.06C89.3088 146.182 90.2502 150.483 90.62 154.85C90.76 156.49 90.82 158.15 90.84 159.85C90.87 157.2 90.84 154.61 90.62 152.04Z" fill="black"/>
<path opacity="0.1" d="M125.04 195.86C122.89 200.58 116.36 201.33 111.36 199.94C107.092 198.717 103.175 196.498 99.9307 193.466C96.6868 190.434 94.2086 186.676 92.7 182.5C91.31 178.203 90.6344 173.706 90.7 169.19C90.64 174.7 90.85 180.14 92.7 185.31C94.208 189.487 96.6858 193.247 99.9297 196.281C103.174 199.314 107.091 201.535 111.36 202.76C116.36 204.14 122.89 203.4 125.04 198.67C125.95 196.67 125.86 194.35 125.82 192.07C125.802 193.371 125.537 194.657 125.04 195.86V195.86Z" fill="black"/>
<path opacity="0.1" d="M222.2 130.12C221.77 133.32 220.5 136.92 217.45 137.99C215.672 138.487 213.774 138.309 212.12 137.49C207.12 135.31 202.67 130.05 197.33 131.32C192.97 132.32 190.88 137.25 189.73 141.59C188.896 144.332 188.534 147.196 188.66 150.06C188.851 148.146 189.209 146.252 189.73 144.4C190.88 140.07 192.97 135.17 197.33 134.13C202.67 132.87 207.08 138.13 212.12 140.3C213.772 141.126 215.672 141.307 217.45 140.81C220.5 139.74 221.77 136.14 222.2 132.93C222.475 130.886 222.575 128.821 222.5 126.76C222.45 127.88 222.35 129.01 222.2 130.12Z" fill="black"/>
<path opacity="0.1" d="M194.65 170.86C191.65 173.03 187.58 170.72 184.29 168.99C180.77 167.14 176.29 165.99 172.94 168.12C171.79 168.84 170.86 169.88 169.74 170.65C167.435 172.076 164.701 172.642 162.02 172.25C155.65 171.6 153.27 167.57 148.42 164.45C144.86 162.16 137.42 161.18 135.3 165.88C134.791 167.264 134.65 168.755 134.89 170.21C134.956 169.69 135.094 169.182 135.3 168.7C137.43 163.99 144.86 164.97 148.42 167.27C153.27 170.39 155.65 174.42 162.02 175.07C164.702 175.454 167.435 174.884 169.74 173.46C170.86 172.7 171.79 171.66 172.94 170.94C176.32 168.84 180.77 169.94 184.29 171.81C187.58 173.53 191.63 175.81 194.65 173.67C196.41 172.41 196.83 170.17 196.44 167.96C196.235 169.119 195.594 170.157 194.65 170.86V170.86Z" fill="black"/>
<path opacity="0.1" d="M134.63 175.72C133.26 178.86 129.05 179.72 127.11 182.55C125.66 184.65 125.78 187.27 125.83 189.9C125.812 188.298 126.256 186.725 127.11 185.37C129.05 182.54 133.26 181.67 134.63 178.53C135.109 177.164 135.24 175.7 135.01 174.27C134.948 174.768 134.821 175.256 134.63 175.72V175.72Z" fill="black"/>
</g>
</g>
<defs>
<linearGradient id="paint0_linear" x1="295.88" y1="785.33" x2="295.88" y2="72.53" gradientUnits="userSpaceOnUse">
<stop stop-color="#808080" stop-opacity="0.25"/>
<stop offset="0.54" stop-color="#808080" stop-opacity="0.12"/>
<stop offset="1" stop-color="#808080" stop-opacity="0.1"/>
</linearGradient>
<clipPath id="clip0">
<rect width="1097.1" height="790.89" fill="white" transform="translate(-220)"/>
</clipPath>
</defs>
</svg>
