<svg width="1111" height="655" viewBox="0 0 1111 655" fill="none" xmlns="http://www.w3.org/2000/svg">
<g clip-path="url(#clip0)">
<path opacity="0.1" d="M508.327 644.707C772.026 630.103 985.073 605.219 984.182 589.128C983.291 573.037 768.799 571.832 505.1 586.436C241.402 601.041 28.3542 625.925 29.2454 642.016C30.1366 658.107 244.629 659.312 508.327 644.707Z" fill="#6C63FF"/>
<g opacity="0.1">
<path opacity="0.1" d="M590.51 421.68C590.51 421.68 619.06 354.05 672.37 328.96C694.75 318.43 713.25 301.55 724.59 280.23C729.924 270.126 734.296 259.542 737.65 248.62" stroke="#535461" stroke-width="2" stroke-miterlimit="10"/>
<path opacity="0.1" d="M771.17 232.62C765.62 239.34 736.85 249.14 736.85 249.14C736.85 249.14 740.32 219.99 745.85 213.28C748.6 210.038 752.488 207.973 756.714 207.51C760.94 207.046 765.183 208.22 768.57 210.79C770.222 212.017 771.606 213.569 772.638 215.349C773.669 217.13 774.327 219.102 774.57 221.145C774.814 223.189 774.638 225.26 774.053 227.233C773.468 229.206 772.487 231.039 771.17 232.62V232.62Z" fill="#6C63FF"/>
<path opacity="0.1" d="M761.3 285.81C752.84 288.54 723.15 281.74 723.15 281.74C723.15 281.74 742.54 259.09 751 256.35C759.46 253.61 768.63 258 771.47 266.13C772.132 268.089 772.392 270.16 772.236 272.221C772.08 274.283 771.51 276.292 770.561 278.128C769.612 279.965 768.303 281.591 766.712 282.911C765.121 284.231 763.28 285.217 761.3 285.81V285.81Z" fill="#6C63FF"/>
<path opacity="0.1" d="M707.79 348.68C699.05 346.94 676.99 326.68 676.99 326.68C676.99 326.68 705.65 316.51 714.37 318.29C716.41 318.652 718.356 319.417 720.096 320.542C721.836 321.667 723.333 323.127 724.5 324.839C725.667 326.55 726.481 328.477 726.893 330.507C727.305 332.537 727.308 334.629 726.9 336.66C725.09 345.03 716.53 350.43 707.79 348.68Z" fill="#6C63FF"/>
<path opacity="0.1" d="M656.16 387.49C647.24 387.19 621.93 370.79 621.93 370.79C621.93 370.79 648.37 356.13 657.29 356.43C666.21 356.73 673.19 363.93 672.88 372.5C672.57 381.07 665.08 387.79 656.16 387.49Z" fill="#6C63FF"/>
<path opacity="0.1" d="M695.52 262.74C696.66 271.25 715.99 293.95 715.99 293.95C715.99 293.95 728.72 267.28 727.58 258.77C726.44 250.26 718.34 244.25 709.48 245.34C700.62 246.43 694.38 254.23 695.52 262.74Z" fill="#6C63FF"/>
<path opacity="0.1" d="M635.73 308.86C639.47 316.65 664.98 332.75 664.98 332.75C664.98 332.75 668.83 303.64 665.09 295.85C663.176 292.073 659.88 289.179 655.886 287.77C651.893 286.362 647.51 286.548 643.65 288.29C641.754 289.089 640.038 290.263 638.606 291.741C637.174 293.219 636.055 294.97 635.316 296.891C634.576 298.811 634.232 300.861 634.303 302.918C634.374 304.974 634.86 306.995 635.73 308.86V308.86Z" fill="#6C63FF"/>
<path opacity="0.1" d="M584.02 361.35C586.33 369.64 608.65 389.65 608.65 389.65C608.65 389.65 617.56 361.59 615.24 353.3C612.92 345.01 604.07 340.09 595.44 342.3C593.424 342.774 591.523 343.647 589.851 344.868C588.178 346.09 586.767 347.634 585.703 349.411C584.638 351.187 583.94 353.159 583.651 355.21C583.362 357.261 583.488 359.349 584.02 361.35V361.35Z" fill="#6C63FF"/>
<path opacity="0.25" d="M771.17 232.62C765.62 239.34 736.85 249.14 736.85 249.14C736.85 249.14 740.32 219.99 745.85 213.28C748.6 210.038 752.488 207.973 756.714 207.51C760.94 207.046 765.183 208.22 768.57 210.79C770.222 212.017 771.606 213.569 772.638 215.349C773.669 217.13 774.327 219.102 774.57 221.145C774.814 223.189 774.638 225.26 774.053 227.233C773.468 229.206 772.487 231.039 771.17 232.62V232.62Z" fill="black"/>
<path opacity="0.25" d="M761.3 285.81C752.84 288.54 723.15 281.74 723.15 281.74C723.15 281.74 742.54 259.09 751 256.35C759.46 253.61 768.63 258 771.47 266.13C772.132 268.089 772.392 270.16 772.236 272.221C772.08 274.283 771.51 276.292 770.561 278.128C769.612 279.965 768.303 281.591 766.712 282.911C765.121 284.231 763.28 285.217 761.3 285.81V285.81Z" fill="black"/>
<path opacity="0.25" d="M707.79 348.68C699.05 346.94 676.99 326.68 676.99 326.68C676.99 326.68 705.65 316.51 714.37 318.29C716.41 318.652 718.356 319.417 720.096 320.542C721.836 321.667 723.333 323.127 724.5 324.839C725.667 326.55 726.481 328.477 726.893 330.507C727.305 332.537 727.308 334.629 726.9 336.66C725.09 345.03 716.53 350.43 707.79 348.68Z" fill="black"/>
<path opacity="0.25" d="M656.16 387.49C647.24 387.19 621.93 370.79 621.93 370.79C621.93 370.79 648.37 356.13 657.29 356.43C666.21 356.73 673.19 363.93 672.88 372.5C672.57 381.07 665.08 387.79 656.16 387.49Z" fill="black"/>
<path opacity="0.25" d="M695.52 262.74C696.66 271.25 715.99 293.95 715.99 293.95C715.99 293.95 728.72 267.28 727.58 258.77C726.44 250.26 718.34 244.25 709.48 245.34C700.62 246.43 694.38 254.23 695.52 262.74Z" fill="black"/>
<path opacity="0.25" d="M635.73 308.86C639.47 316.65 664.98 332.75 664.98 332.75C664.98 332.75 668.83 303.64 665.09 295.85C663.176 292.073 659.88 289.179 655.886 287.77C651.893 286.362 647.51 286.548 643.65 288.29C641.754 289.089 640.038 290.263 638.606 291.741C637.174 293.219 636.055 294.97 635.316 296.891C634.576 298.811 634.232 300.861 634.303 302.918C634.374 304.974 634.86 306.995 635.73 308.86V308.86Z" fill="black"/>
<path opacity="0.25" d="M584.02 361.35C586.33 369.64 608.65 389.65 608.65 389.65C608.65 389.65 617.56 361.59 615.24 353.3C612.92 345.01 604.07 340.09 595.44 342.3C593.424 342.774 591.523 343.647 589.851 344.868C588.178 346.09 586.767 347.634 585.703 349.411C584.638 351.187 583.94 353.159 583.651 355.21C583.362 357.261 583.488 359.349 584.02 361.35V361.35Z" fill="black"/>
</g>
<g opacity="0.1">
<path opacity="0.1" d="M611.88 319.29C611.88 319.29 615.48 246.38 657.12 205.72C674.6 188.65 686.23 166.83 689.57 143.1C691.126 131.838 691.608 120.453 691.01 109.1" stroke="#535461" stroke-width="2" stroke-miterlimit="10"/>
<path opacity="0.1" d="M717.1 83.29C714.17 91.39 690.41 109.81 690.41 109.81C690.41 109.81 683.65 81.29 686.55 73.14C689.45 64.99 698.69 60.74 707.12 63.56C709.089 64.1729 710.915 65.1749 712.489 66.5067C714.064 67.8385 715.354 69.473 716.285 71.3131C717.216 73.1532 717.768 75.1615 717.908 77.2189C718.048 79.2762 717.773 81.3408 717.1 83.29Z" fill="#6C63FF"/>
<path opacity="0.1" d="M726.13 136.65C719.13 141.93 688.74 144.98 688.74 144.98C688.74 144.98 699.21 117.42 706.25 112.15C709.658 109.609 713.912 108.472 718.133 108.975C722.355 109.477 726.223 111.58 728.94 114.85C730.241 116.443 731.204 118.286 731.769 120.264C732.335 122.242 732.49 124.314 732.227 126.355C731.964 128.395 731.288 130.361 730.24 132.131C729.191 133.901 727.793 135.439 726.13 136.65V136.65Z" fill="#6C63FF"/>
<path opacity="0.1" d="M697.34 213.03C688.49 214.17 660.68 202.03 660.68 202.03C660.68 202.03 684.2 183.32 693.04 182.19C701.88 181.06 710.04 187.02 711.21 195.52C712.38 204.02 706.18 211.89 697.34 213.03Z" fill="#6C63FF"/>
<path opacity="0.1" d="M662.01 266.1C653.49 268.66 623.96 261.25 623.96 261.25C623.96 261.25 643.85 239 652.37 236.44C660.89 233.88 669.95 238.44 672.62 246.63C673.235 248.605 673.447 250.682 673.244 252.741C673.041 254.799 672.426 256.795 671.437 258.611C670.447 260.427 669.103 262.026 667.483 263.312C665.864 264.599 664.003 265.547 662.01 266.1V266.1Z" fill="#6C63FF"/>
<path opacity="0.1" d="M656.11 135.86C660.11 143.52 686.19 158.77 686.19 158.77C686.19 158.77 689 129.56 684.99 121.89C682.956 118.169 679.564 115.375 675.522 114.092C671.48 112.808 667.098 113.134 663.29 115C661.416 115.861 659.736 117.093 658.352 118.622C656.968 120.151 655.909 121.944 655.237 123.894C654.566 125.844 654.298 127.91 654.447 129.966C654.597 132.023 655.163 134.028 656.11 135.86Z" fill="#6C63FF"/>
<path opacity="0.1" d="M615.65 198.43C621.86 204.59 651.48 211.64 651.48 211.64C651.48 211.64 645.07 182.96 638.86 176.8C635.816 173.831 631.75 172.142 627.498 172.079C623.246 172.015 619.132 173.583 616 176.46C614.482 177.848 613.263 179.532 612.419 181.408C611.574 183.284 611.122 185.313 611.089 187.37C611.056 189.427 611.444 191.469 612.228 193.37C613.013 195.272 614.177 196.994 615.65 198.43V198.43Z" fill="#6C63FF"/>
<path opacity="0.1" d="M584.94 264.43C589.94 271.51 617.94 283.28 617.94 283.28C617.94 283.28 616.65 253.97 611.65 246.88C609.128 243.465 605.392 241.146 601.212 240.402C597.032 239.658 592.726 240.545 589.18 242.88C587.448 243.983 585.958 245.426 584.8 247.122C583.642 248.819 582.841 250.732 582.444 252.747C582.048 254.762 582.065 256.836 582.494 258.844C582.923 260.853 583.755 262.753 584.94 264.43V264.43Z" fill="#6C63FF"/>
</g>
<path opacity="0.1" d="M400.56 534.09C410.529 534.09 418.61 532.98 418.61 531.61C418.61 530.24 410.529 529.13 400.56 529.13C390.591 529.13 382.51 530.24 382.51 531.61C382.51 532.98 390.591 534.09 400.56 534.09Z" fill="#6C63FF"/>
<path opacity="0.1" d="M331.42 541.1C341.389 541.1 349.47 539.99 349.47 538.62C349.47 537.25 341.389 536.14 331.42 536.14C321.451 536.14 313.37 537.25 313.37 538.62C313.37 539.99 321.451 541.1 331.42 541.1Z" fill="#6C63FF"/>
<path opacity="0.1" d="M249.98 531.61C259.949 531.61 268.03 530.5 268.03 529.13C268.03 527.76 259.949 526.65 249.98 526.65C240.011 526.65 231.93 527.76 231.93 529.13C231.93 530.5 240.011 531.61 249.98 531.61Z" fill="#6C63FF"/>
<path opacity="0.1" d="M359.09 560.34C366.176 560.34 371.92 559.552 371.92 558.58C371.92 557.608 366.176 556.82 359.09 556.82C352.004 556.82 346.26 557.608 346.26 558.58C346.26 559.552 352.004 560.34 359.09 560.34Z" fill="#6C63FF"/>
<path opacity="0.1" d="M287.33 558.58C294.416 558.58 300.16 557.792 300.16 556.82C300.16 555.848 294.416 555.06 287.33 555.06C280.244 555.06 274.5 555.848 274.5 556.82C274.5 557.792 280.244 558.58 287.33 558.58Z" fill="#6C63FF"/>
<path d="M331.03 538.06C331.03 538.06 356.34 455.06 327.03 421.84C305.13 396.98 280.27 399.95 269.14 403.03C266.261 403.791 263.582 405.169 261.289 407.068C258.996 408.968 257.143 411.343 255.86 414.03C251.97 422.43 252.67 436.03 280.14 451.97C326.14 478.6 329.01 515.14 329.01 515.14L331.03 538.06Z" fill="#6C63FF"/>
<path d="M273.14 414.8C273.14 414.8 347.76 438.13 331.03 538.06" stroke="#565987" stroke-miterlimit="10"/>
<path d="M316.72 423.16C316.72 423.16 306.45 430.09 309.72 440.49" stroke="#565987" stroke-miterlimit="10"/>
<path d="M280.65 429.29C280.65 429.29 286.93 422.9 294.57 426.43" stroke="#565987" stroke-miterlimit="10"/>
<path d="M310.12 461.46C310.12 461.46 321.12 455.86 324 462.87" stroke="#565987" stroke-miterlimit="10"/>
<path d="M337.41 473.13C337.41 473.13 329.13 472.47 328.98 476.43" stroke="#565987" stroke-miterlimit="10"/>
<path d="M332.05 538.72C332.05 538.72 302.41 478.41 294.26 479.72C290.4 480.35 288.61 484.15 287.81 487.98C286.81 492.922 287.373 498.052 289.42 502.66C293.65 512.29 304.93 530.65 332.05 538.72Z" fill="#6C63FF"/>
<path d="M294.48 491.18C294.48 491.18 325.65 536.29 331.65 538.29" stroke="#565987" stroke-miterlimit="10"/>
<path d="M291.62 498.22H298.88" stroke="#565987" stroke-miterlimit="10"/>
<path d="M300.32 514.73L311.71 515.22" stroke="#565987" stroke-miterlimit="10"/>
<path d="M307.25 501.52L306.01 507.45" stroke="#565987" stroke-miterlimit="10"/>
<path d="M319.36 519.57L319.14 524.96" stroke="#565987" stroke-miterlimit="10"/>
<path d="M331.17 538.72C331.17 538.72 360.82 478.41 368.97 479.72C372.83 480.35 374.62 484.15 375.42 487.98C376.42 492.922 375.857 498.052 373.81 502.66C369.65 512.29 358.3 530.65 331.17 538.72Z" fill="#6C63FF"/>
<path d="M368.74 491.18C368.74 491.18 337.65 536.29 331.65 538.29" stroke="#565987" stroke-miterlimit="10"/>
<path d="M371.6 498.22H364.34" stroke="#565987" stroke-miterlimit="10"/>
<path d="M362.9 514.73L351.52 515.22" stroke="#565987" stroke-miterlimit="10"/>
<path d="M355.98 501.52L357.21 507.45" stroke="#565987" stroke-miterlimit="10"/>
<path d="M343.87 519.57L344.09 524.96" stroke="#565987" stroke-miterlimit="10"/>
<path d="M280.27 552.81C279.463 552.15 278.874 551.261 278.58 550.26C278.448 549.758 278.493 549.227 278.708 548.755C278.923 548.283 279.295 547.9 279.76 547.67C280.84 547.25 282 548 282.88 548.76C283.76 549.52 284.76 550.38 285.88 550.22C285.29 549.684 284.848 549.005 284.598 548.248C284.347 547.491 284.296 546.682 284.45 545.9C284.504 545.58 284.642 545.279 284.85 545.03C285.45 544.38 286.54 544.66 287.26 545.17C289.55 546.78 290.19 549.89 290.2 552.68C290.315 551.653 290.315 550.617 290.2 549.59C290.156 549.072 290.239 548.552 290.443 548.074C290.647 547.596 290.965 547.176 291.37 546.85C291.912 546.555 292.523 546.41 293.14 546.43C293.651 546.357 294.171 546.392 294.667 546.533C295.164 546.674 295.625 546.919 296.02 547.25C296.398 547.766 296.592 548.394 296.572 549.034C296.552 549.673 296.319 550.288 295.91 550.78C295.055 551.743 294.04 552.552 292.91 553.17C292.059 553.668 291.331 554.352 290.78 555.17C290.711 555.282 290.657 555.403 290.62 555.53H284.17C282.757 554.797 281.446 553.883 280.27 552.81V552.81Z" fill="#6C63FF"/>
<path d="M393.24 528.52C392.433 527.859 391.844 526.971 391.55 525.97C391.418 525.468 391.463 524.937 391.678 524.465C391.893 523.993 392.265 523.61 392.73 523.38C393.81 522.96 394.97 523.71 395.85 524.47C396.73 525.23 397.73 526.09 398.85 525.93C398.258 525.395 397.815 524.716 397.565 523.959C397.314 523.202 397.264 522.392 397.42 521.61C397.474 521.29 397.612 520.989 397.82 520.74C398.42 520.09 399.51 520.37 400.23 520.88C402.52 522.49 403.16 525.6 403.17 528.39C403.285 527.363 403.285 526.327 403.17 525.3C403.125 524.783 403.208 524.264 403.41 523.786C403.612 523.308 403.928 522.887 404.33 522.56C404.875 522.264 405.49 522.119 406.11 522.14C406.621 522.067 407.141 522.102 407.637 522.244C408.133 522.385 408.594 522.629 408.99 522.96C409.368 523.477 409.562 524.106 409.54 524.746C409.518 525.386 409.282 526 408.87 526.49C408.018 527.456 407.002 528.265 405.87 528.88C405.02 529.376 404.294 530.06 403.75 530.88C403.681 530.992 403.627 531.113 403.59 531.24H397.14C395.725 530.51 394.414 529.595 393.24 528.52V528.52Z" fill="#6C63FF"/>
<path d="M355.59 552.81C354.783 552.15 354.194 551.261 353.9 550.26C353.768 549.758 353.813 549.227 354.028 548.755C354.243 548.283 354.615 547.9 355.08 547.67C356.16 547.25 357.32 548 358.2 548.76C359.08 549.52 360.08 550.38 361.2 550.22C360.608 549.685 360.165 549.006 359.915 548.249C359.664 547.492 359.614 546.682 359.77 545.9C359.824 545.58 359.962 545.279 360.17 545.03C360.77 544.38 361.86 544.66 362.58 545.17C364.87 546.78 365.51 549.89 365.52 552.68C365.635 551.653 365.635 550.617 365.52 549.59C365.475 549.073 365.558 548.553 365.76 548.076C365.962 547.598 366.278 547.177 366.68 546.85C367.225 546.554 367.84 546.409 368.46 546.43C368.971 546.357 369.491 546.393 369.987 546.534C370.483 546.675 370.944 546.919 371.34 547.25C371.718 547.767 371.912 548.396 371.89 549.036C371.868 549.676 371.632 550.29 371.22 550.78C370.368 551.746 369.352 552.555 368.22 553.17C367.37 553.666 366.644 554.35 366.1 555.17C366.031 555.282 365.977 555.403 365.94 555.53H359.49C358.075 554.8 356.764 553.885 355.59 552.81V552.81Z" fill="#6C63FF"/>
<path d="M248.81 503.71C248.81 503.71 246.39 506.87 249.93 511.64C253.47 516.41 256.38 520.45 255.2 523.42C255.2 523.42 249.87 514.56 245.52 514.42C241.17 514.28 244.04 509.04 248.81 503.71Z" fill="#6C63FF"/>
<path opacity="0.1" d="M248.81 503.71C248.598 504.017 248.433 504.354 248.32 504.71C244.08 509.71 241.83 514.33 245.9 514.44C249.69 514.55 254.24 521.33 255.33 523.05C255.33 523.18 255.25 523.31 255.2 523.43C255.15 523.55 249.87 514.57 245.52 514.43C241.17 514.29 244.04 509.04 248.81 503.71Z" fill="black"/>
<path d="M244.32 507.74C244.32 508.85 244.44 509.74 244.59 509.74C244.74 509.74 244.87 508.84 244.87 507.74C244.87 506.64 244.72 507.15 244.56 507.15C244.4 507.15 244.32 506.62 244.32 507.74Z" fill="#FFD037"/>
<path d="M242.77 509.07C243.77 509.6 244.6 509.92 244.68 509.78C244.76 509.64 244.02 509.11 243.04 508.58C242.06 508.05 242.45 508.43 242.37 508.58C242.29 508.73 241.8 508.53 242.77 509.07Z" fill="#FFD037"/>
<path d="M261.59 503.71C261.59 503.71 264 506.87 260.47 511.64C256.94 516.41 254.02 520.45 255.2 523.42C255.2 523.42 260.53 514.56 264.87 514.42C269.21 514.28 266.36 509.04 261.59 503.71Z" fill="#6C63FF"/>
<path opacity="0.1" d="M261.59 503.71C261.798 504.02 261.962 504.356 262.08 504.71C266.31 509.71 268.57 514.33 264.5 514.44C260.71 514.55 256.16 521.33 255.07 523.05C255.07 523.18 255.15 523.31 255.2 523.43C255.25 523.55 260.53 514.57 264.87 514.43C269.21 514.29 266.36 509.04 261.59 503.71Z" fill="black"/>
<path d="M266.08 507.74C266.08 508.85 265.96 509.74 265.8 509.74C265.64 509.74 265.52 508.84 265.52 507.74C265.52 506.64 265.68 507.15 265.83 507.15C265.98 507.15 266.08 506.62 266.08 507.74Z" fill="#FFD037"/>
<path d="M267.65 509.07C266.65 509.6 265.82 509.92 265.75 509.78C265.68 509.64 266.41 509.11 267.39 508.58C268.37 508.05 267.98 508.43 268.05 508.58C268.12 508.73 268.65 508.53 267.65 509.07Z" fill="#FFD037"/>
<path d="M265.31 523.01C265.31 523.01 258.55 522.8 256.51 521.35C254.47 519.9 246.11 518.17 245.61 520.5C245.11 522.83 235.44 532.07 243.08 532.13C250.72 532.19 260.82 530.94 262.85 529.7C264.88 528.46 265.31 523.01 265.31 523.01Z" fill="#A8A8A8"/>
<path opacity="0.2" d="M242.94 531.29C250.58 531.35 260.68 530.1 262.71 528.86C264.26 527.92 264.88 524.53 265.09 522.97H265.31C265.31 522.97 264.88 528.42 262.85 529.66C260.82 530.9 250.71 532.15 243.08 532.09C240.87 532.09 240.08 531.29 240.15 530.09C240.46 530.87 241.3 531.29 242.94 531.29Z" fill="black"/>
<path d="M202.845 407.578L202.842 407.568C201.382 402.915 196.426 400.328 191.773 401.789L170.945 408.327C166.292 409.788 163.705 414.744 165.166 419.397L165.169 419.407C166.629 424.059 171.585 426.647 176.238 425.186L197.066 418.647C201.718 417.186 204.306 412.23 202.845 407.578Z" fill="#6C63FF"/>
<path d="M675.65 140.22C675.65 140.22 672.55 116.51 655.9 116.01C639.25 115.51 658.51 145.42 660.47 148.12C661.62 149.69 660.7 154.06 659.75 157.43C659.046 159.854 658.475 162.314 658.04 164.8C657.595 167.935 656.294 170.887 654.28 173.33C651.484 176.704 649.224 180.488 647.58 184.55C647.58 184.55 642.68 184.76 640.89 183.55C639.1 182.34 627.67 178.17 627.18 178.84C627.07 178.98 626.76 179.04 626.33 179.03C625.658 178.996 624.99 178.912 624.33 178.78C624.24 178.22 624.14 177.66 624 177.08C624 177.08 622.59 176.47 621 175.61C621 175.61 621 175.61 621 175.56V175.51C621.37 174.57 621.61 173.56 622 172.64V172.56C622.266 171.863 622.702 171.244 623.27 170.76C624.8 169.53 627.01 169.95 628.86 169.34C629.067 169.27 629.271 169.19 629.47 169.1L629.69 168.97L630.03 168.78L630.27 168.61L630.54 168.41L630.78 168.2C630.852 168.122 630.928 168.048 631.01 167.98L631.22 167.73L631.43 167.49L631.62 167.22C631.68 167.13 631.75 167.05 631.8 166.96C631.85 166.87 631.92 166.77 631.97 166.67L632.13 166.38L632.28 166.08L632.41 165.77C632.459 165.666 632.503 165.559 632.54 165.45C632.54 165.35 632.61 165.24 632.65 165.13C632.69 165.02 632.71 164.91 632.75 164.8C632.79 164.69 632.75 164.59 632.83 164.47C632.862 164.358 632.889 164.245 632.91 164.13L632.97 163.8C632.97 163.68 632.97 163.56 633.02 163.44C633.07 163.32 633.02 163.23 633.02 163.13V162.74C633.015 162.647 633.015 162.553 633.02 162.46C633.02 162.32 633.02 162.18 633.02 162.04V161.82V161.33C633.02 161.33 633.02 161.27 633.02 161.24C632.982 160.83 632.918 160.422 632.83 160.02C632.37 158.02 631.46 155.87 632.09 154.08C632.112 154.012 632.139 153.945 632.17 153.88C632.25 153.68 632.351 153.489 632.47 153.31C632.892 152.714 633.465 152.241 634.13 151.94C634.71 151.64 635.35 151.41 635.95 151.16C638.185 150.34 640.175 148.963 641.73 147.16C642.795 145.863 643.486 144.3 643.73 142.64C643.85 141.888 643.85 141.122 643.73 140.37C643.73 140.3 643.73 140.23 643.73 140.16C643.301 138.859 643 137.519 642.83 136.16C642.824 135.628 642.902 135.098 643.06 134.59C643.14 134.35 643.23 134.11 643.33 133.87L643.41 133.7C643.52 133.47 643.64 133.24 643.76 133.02C643.787 132.982 643.81 132.942 643.83 132.9L644.22 132.28L644.31 132.15C644.45 131.93 644.61 131.71 644.76 131.49C645.13 130.96 645.52 130.44 645.88 129.9C646.05 129.65 646.21 129.39 646.36 129.13C646.51 128.86 646.65 128.6 646.78 128.33C646.78 128.33 646.78 128.24 646.78 128.2C646.905 127.919 647.015 127.632 647.11 127.34L647.2 127.05C647.29 126.72 647.37 126.4 647.43 126.05C647.425 125.97 647.425 125.89 647.43 125.81C647.43 125.51 647.51 125.21 647.53 124.91C647.525 124.837 647.525 124.763 647.53 124.69C647.53 124.34 647.53 123.99 647.53 123.63C647.535 123.543 647.535 123.457 647.53 123.37C647.53 123.02 647.53 122.66 647.46 122.31C647.327 121.053 647.106 119.806 646.8 118.58C646.37 116.79 645.61 114.74 643.87 114.26C642.964 114.126 642.041 114.166 641.15 114.38C638.305 114.598 635.467 113.878 633.07 112.33C630.677 110.776 628.388 109.065 626.22 107.21C624.7 106.02 622.82 104.84 621 105.43C620.361 105.697 619.743 106.011 619.15 106.37C619.021 106.423 618.887 106.463 618.75 106.49C618.117 106.608 617.474 106.661 616.83 106.65H616.65C616.1 104.89 615.51 103.15 614.85 101.43C613.18 97.06 611.05 92.67 607.44 89.79C605.333 88.2532 603.033 86.9992 600.6 86.06C593.27 82.86 585.21 79.61 577.6 81.9C574.23 82.9 571.24 84.9 568.31 86.9L556.02 95.29L555.1 95.01C553.3 94.49 551.44 94.18 550.36 93.82L550.17 93.76C546.71 92.47 543.25 89.64 543.17 85.84C543.166 85.2523 543.223 84.6659 543.34 84.09C543.638 82.883 544.015 81.6971 544.47 80.54C544.72 79.86 544.93 79.17 545.14 78.48L545.34 77.74C545.46 77.3 545.57 76.86 545.68 76.42L545.89 75.42C545.97 75.06 546.03 74.71 546.1 74.35C546.17 73.99 546.24 73.59 546.29 73.21C546.29 73.04 546.29 72.86 546.37 72.68C546.52 71.59 546.63 70.5 546.69 69.41C546.69 68.83 546.69 68.25 546.75 67.66C546.75 67.58 546.75 67.49 546.75 67.41C546.75 66.82 546.75 66.23 546.75 65.64C546.542 57.9008 544.15 50.3782 539.85 43.94C539.025 45.6001 538.565 47.4174 538.5 49.27C538.521 49.615 538.452 49.9595 538.3 50.27C538.184 50.4008 538.043 50.507 537.886 50.5821C537.728 50.6573 537.557 50.6998 537.382 50.7073C537.207 50.7148 537.033 50.687 536.87 50.6256C536.706 50.5642 536.557 50.4705 536.43 50.35C535.932 49.8378 535.465 49.2969 535.03 48.73C534.488 48.1979 533.785 47.8602 533.03 47.7698C532.276 47.6793 531.513 47.8411 530.86 48.23C530.221 48.6671 529.731 49.2899 529.458 50.0143C529.184 50.7386 529.14 51.5295 529.33 52.28C526.854 51.052 524.099 50.4979 521.341 50.6734C518.583 50.849 515.92 51.748 513.62 53.28C512.303 54.0301 511.331 55.2642 510.91 56.72V56.72C510.722 57.6762 510.889 58.6683 511.38 59.51C512.23 61.17 513.88 62.67 514.96 64.37C510.42 70.08 508.42 78.49 508.42 78.49L507.54 79.59C505.492 80.8552 503.599 82.3554 501.9 84.06C500.67 85.4 499.64 87.24 500.02 89.06L484.76 108.21C484.76 108.21 468.43 130.48 466.76 135.52C466.42 136.52 459.76 144.26 469.85 153.67C479.94 163.08 481.93 164.09 483.4 167.29C484.26 169.16 490.84 172.57 496.17 175.08L498.03 175.95C497.6 181.49 500.18 187.95 507.97 195.39C508.136 196.27 508.213 197.165 508.2 198.06C508.2 204.61 511.14 215.46 511.14 215.46C511.14 215.46 515.3 222.01 509.92 226.3C504.54 230.59 503.33 233.06 506.64 236.54L506.74 236.64L506.25 246.48H504.81C504.81 246.48 491.81 255.55 489.11 260.85C486.41 266.15 481.53 280.29 481.53 280.29C481.53 280.29 480.53 293.9 479.08 295.92C477.63 297.94 479.08 306.26 479.08 306.26C479.08 306.26 478.83 319.12 482.01 322.15C485.19 325.18 484.22 332.74 484.22 332.74C484.294 334.381 484.481 336.015 484.78 337.63C481.37 336.63 475.34 335.97 474.3 343.84C473.412 349.796 473.167 355.831 473.57 361.84C473.57 361.84 470.63 375.07 468.43 378.84C466.23 382.61 461.57 416.08 482.26 410.36C482.26 410.36 485.37 409.47 487.26 405.22C488.041 404.381 488.76 403.485 489.41 402.54C489.33 409.07 491.13 414.59 497.5 413.24C497.5 413.24 501.16 412.43 502.81 404.73C506.11 401.495 509.122 397.979 511.81 394.22L517.72 379.48L518.17 378.35L523.67 372.45C532.792 375.307 542.169 377.276 551.67 378.33C554.46 378.628 557.265 378.754 560.07 378.71C564.939 378.801 569.804 378.341 574.57 377.34C583.49 378.58 599.05 379.6 612.13 374.55C631.71 366.99 618.25 350.34 614.82 346.81C611.39 343.28 600.57 332.81 599.7 331.99V331.93C599.7 331.93 601.7 271.41 597.49 269.65C593.28 267.89 579.38 253 579.38 253L580.85 243.42C580.85 243.42 587.7 244.18 587.95 238.12C588.2 232.06 587.95 222.99 587.95 222.99L596.95 206.85C596.95 206.85 607.85 200.38 612.8 198.19C613.06 198.36 613.34 198.54 613.65 198.71C619.03 201.79 630.55 205.17 634.57 204.41C639.96 203.41 650.73 205.76 657.57 206.41C664.41 207.06 667.57 200.2 666.87 199.41C666.17 198.62 669.65 190.9 669.65 190.9C669.65 190.9 676.18 159.29 674.71 154.25C673.24 149.21 675.65 140.22 675.65 140.22ZM499.81 343.04C500.38 343.32 500.97 343.59 501.58 343.86C504.788 345.198 508.066 346.359 511.4 347.34L517.52 349.61C517.52 349.61 508.3 349.83 503.7 350.06C501.525 349.641 499.486 348.697 497.76 347.31C498.099 345.746 498.801 344.283 499.81 343.04V343.04ZM592.28 166.44C592.17 166.14 592.07 165.82 591.98 165.5C592.82 165.29 593.64 165.05 594.46 164.78C593.91 165.41 593.24 166.16 592.46 166.97C592.4 166.79 592.33 166.62 592.28 166.44ZM489.28 141.44C489.28 141.44 493.65 130.67 497.01 123.29C497.143 123.883 497.293 124.473 497.46 125.06C497.32 125.06 497.34 124.9 497.92 126.41V126.49C499.681 131.076 502.917 134.946 507.12 137.49C508.489 138.326 509.953 138.997 511.48 139.49C511.48 139.44 511.48 139.39 511.48 139.34C511.49 139.244 511.49 139.146 511.48 139.05C511.485 138.99 511.485 138.93 511.48 138.87C511.49 138.777 511.49 138.683 511.48 138.59L511.42 138.45C511.38 138.352 511.33 138.258 511.27 138.17L511.18 138.07C511.142 138.01 511.095 137.956 511.04 137.91C511.72 138.34 512.41 138.75 513.1 139.17C513.25 139.25 513.39 139.35 513.54 139.44C514.25 139.85 514.96 140.24 515.68 140.63L516.2 140.93C517.05 141.38 517.92 141.82 518.79 142.24L518.92 142.3L520 142.8L521.7 143.57C522.243 143.868 522.865 143.99 523.48 143.92C523.878 143.808 524.246 143.61 524.56 143.34L524.89 143.09C526.96 141.55 529.6 141.15 531.96 140.16C534.32 139.17 536.67 137.09 536.52 134.46C536.409 133.608 536.119 132.789 535.667 132.058C535.215 131.327 534.613 130.7 533.9 130.22C532.55 129.22 530.99 128.48 529.62 127.48C527.09 125.62 525.33 122.13 526.13 119.23C526.19 119.016 526.263 118.805 526.35 118.6L526.41 118.45C526.49 118.283 526.58 118.113 526.68 117.94C526.68 117.89 526.74 117.83 526.78 117.77C527.103 117.299 527.486 116.872 527.92 116.5C528.487 116.026 529.081 115.585 529.7 115.18L541.76 107.05C542.67 106.43 543.58 105.82 544.52 105.25C545.326 104.754 546.157 104.3 547.01 103.89C547.26 103.78 547.51 103.66 547.77 103.56L548.27 103.35C548.72 103.18 549.17 103.02 549.64 102.88C549.89 102.82 550.23 102.76 550.64 102.7C549.303 106.721 547.578 110.603 545.49 114.29C545.09 114.937 544.775 115.633 544.55 116.36C544.488 116.561 544.451 116.77 544.44 116.98C544.436 117.877 544.627 118.764 545 119.58C545.7 121.46 546 122.86 547.59 123.98C548.01 124.28 548.4 124.56 548.74 124.85C548.74 125.15 548.65 125.45 548.61 125.75C548.438 127.234 548.351 128.726 548.35 130.22C548.335 138.008 550.786 145.6 555.35 151.91L554.95 152.36C552.8 154.865 550.321 157.069 547.58 158.91C547.26 159.11 546.94 159.3 546.58 159.48C546.085 158.682 545.692 157.825 545.41 156.93C544.645 157.214 543.8 157.188 543.054 156.86C542.307 156.532 541.718 155.925 541.41 155.17C539.99 152.39 535.58 155.17 535.58 155.17C535.58 155.17 525.58 149.37 525.06 151.89C524.959 152.284 524.763 152.648 524.49 152.95L523.9 152.39C523.9 152.39 521.6 153.15 518.37 154.63C516.944 154.33 515.669 153.537 514.77 152.39C513.77 151.09 514.03 153.01 514.66 156.47L514.58 156.52L513.41 156.09C506.5 153.55 490.06 146.95 489.29 141.39L489.28 141.44ZM602.2 166.6C601.75 165.19 599.57 164.09 597.94 163.44C606.203 159.588 612.697 152.744 616.11 144.29C616.26 143.92 616.4 143.54 616.54 143.16C616.83 143.09 617.12 143.04 617.4 142.95C618 142.828 618.567 142.577 619.061 142.214C619.555 141.852 619.964 141.386 620.26 140.85C620.448 140.341 620.546 139.803 620.55 139.26C620.63 138.05 620.68 136.84 620.71 135.63V135.46C620.886 128.04 620.144 120.627 618.5 113.39L619.58 114.28C620 114.63 620.42 114.98 620.83 115.34C621.24 115.7 621.54 115.99 621.83 116.34L621.99 116.5C622.31 116.82 622.62 117.15 622.91 117.5C622.946 117.541 622.98 117.584 623.01 117.63C623.271 117.95 623.514 118.284 623.74 118.63L623.99 119.02C624.183 119.327 624.363 119.66 624.53 120.02L624.63 120.22C624.784 120.572 624.918 120.933 625.03 121.3L625.12 121.55C625.21 121.87 625.28 122.19 625.35 122.55C625.35 122.7 625.42 122.84 625.45 122.99C625.51 123.33 625.55 123.68 625.59 124.04C625.59 124.16 625.59 124.29 625.59 124.42C625.59 124.75 625.64 125.09 625.66 125.42C625.68 125.75 625.66 125.85 625.66 126.06C625.775 132.795 624.374 139.47 621.56 145.59C618.768 151.647 615.195 157.312 610.93 162.44C609.525 163.988 608.344 165.725 607.42 167.6C607.269 167.962 607.139 168.333 607.03 168.71C605.31 168.48 602.65 167.99 602.21 166.55L602.2 166.6Z" fill="url(#paint0_linear)"/>
<path d="M679.32 156.46C680.82 161.46 674.15 192.79 674.15 192.79C674.15 192.79 670.65 200.5 671.32 201.23C671.99 201.96 668.82 208.79 661.82 208.12C654.82 207.45 643.82 205.12 638.32 206.12C634.21 206.87 622.45 203.52 616.95 200.47C615.08 199.47 613.95 198.42 614.05 197.62C614.48 194.46 624.98 180.12 624.98 180.12C626.553 180.539 628.159 180.827 629.78 180.98C630.22 180.98 630.54 180.93 630.65 180.79C631.15 180.12 642.82 184.29 644.65 185.46C646.48 186.63 651.48 186.41 651.48 186.41C653.169 182.371 655.477 178.619 658.32 175.29C660.37 172.886 661.704 169.955 662.17 166.83C662.61 164.362 663.191 161.922 663.91 159.52C664.91 156.18 665.82 151.85 664.65 150.29C662.65 147.62 642.98 117.96 659.98 118.46C676.98 118.96 680.15 142.46 680.15 142.46C680.15 142.46 677.82 151.46 679.32 156.46Z" fill="#FBBEBE"/>
<path d="M602.65 184.54L588.65 190.54L572.4 195.54C572.4 195.54 535.15 165.29 544.65 163.04C546.305 162.623 547.885 161.948 549.33 161.04C552.121 159.226 554.654 157.043 556.86 154.55C559.265 151.908 561.452 149.075 563.4 146.08C563.4 146.08 600.15 144.33 594.4 153.08C592.16 156.49 592.92 162.03 594.68 167.52C594.78 167.85 594.89 168.18 595 168.52C597.031 174.093 599.592 179.458 602.65 184.54V184.54Z" fill="#FBBEBE"/>
<path d="M510.57 352.9C510.57 352.9 504.12 346.9 501.77 356.14C500.435 361.106 499.505 366.173 498.99 371.29C498.99 371.29 495.43 382.18 493.55 385.17C491.67 388.16 484.44 415.97 498.25 413.17C498.25 413.17 503.33 412.09 504.32 400.36C505.31 388.63 513.85 353.64 513.85 353.64L510.57 352.9Z" fill="#3F3D56"/>
<path d="M615.4 374.79C601.4 380.03 584.66 378.68 575.81 377.39C571.99 376.84 569.65 376.29 569.65 376.29L525.9 371.79L525.02 372.71L519.4 378.56L512.9 394.29C512.9 394.29 495.4 418.29 493.4 404.04C493.025 400.922 492.901 397.778 493.03 394.64C493.43 379.45 497.4 359.29 497.4 359.29L537.15 354.04L562.15 341.04L562.42 327.48L562.48 324.15L562.65 315.79L596.65 319.04L602.65 332.54L602.71 332.6C603.59 333.42 614.79 343.93 618.15 347.29C621.51 350.65 635.4 367.29 615.4 374.79Z" fill="#FBBEBE"/>
<path d="M518.94 379.68C518.94 379.68 501.09 380.43 499.94 377.23L494.41 390.42C494.41 390.42 510.66 396.67 512.91 394.29L518.94 379.68Z" fill="#6C63FF"/>
<path d="M487.65 339.04C487.65 339.04 476.03 333.29 474.53 344.29C473.621 350.204 473.37 356.201 473.78 362.17C473.78 362.17 470.78 375.29 468.53 379.04C466.28 382.79 461.53 415.96 482.65 410.29C482.65 410.29 490.4 408.17 489.15 394.54C487.9 380.91 492.99 339.29 492.99 339.29L487.65 339.04Z" fill="#3F3D56"/>
<path opacity="0.1" d="M551.9 313.04L588.15 345.04C588.15 345.04 609.15 356.29 584.15 375.54C584.15 375.54 572.9 380.29 555.65 378.54C544.942 377.405 534.383 375.142 524.15 371.79C524.15 371.79 511.15 369.79 506.65 376.79C502.15 383.79 492.15 399.04 492.15 399.04C492.15 399.04 479.9 423.29 471.9 393.29L482.15 364.04C482.15 364.04 482.65 354.29 482.15 352.04C481.65 349.79 488.9 339.79 492.65 343.04C496.4 346.29 501.4 350.79 505.65 350.54C509.9 350.29 520.65 350.04 520.65 350.04L514.4 347.79C514.4 347.79 496.4 342.79 497.65 339.04C498.9 335.29 507.65 317.04 507.65 317.04L551.9 313.04Z" fill="black"/>
<path d="M582.15 375.54C580.092 376.332 577.971 376.951 575.81 377.39C568.531 378.946 561.051 379.334 553.65 378.54C543.945 377.496 534.36 375.544 525.02 372.71C523.18 372.15 522.15 371.79 522.15 371.79C522.15 371.79 509.15 369.79 504.65 376.79C501.65 381.4 496.34 389.58 493.03 394.64L490.15 399.04C490.15 399.04 477.9 423.29 469.9 393.29L480.15 364.04C480.15 364.04 480.65 354.29 480.15 352.04C479.81 350.51 483.04 345.42 486.32 343.33C487.87 342.33 489.44 341.99 490.65 343.04C493.102 345.338 495.782 347.379 498.65 349.13C500.155 350.052 501.885 350.54 503.65 350.54C507.9 350.29 518.65 350.04 518.65 350.04L512.4 347.79C509.007 346.821 505.669 345.669 502.4 344.34C498.51 342.7 495.11 340.74 495.68 339.04C496.93 335.29 505.68 317.04 505.68 317.04L549.93 313.04L562.51 324.15L567.9 328.9L586.18 345.04C586.18 345.04 607.15 356.29 582.15 375.54Z" fill="#FBBEBE"/>
<path opacity="0.1" d="M550.65 359.29C550.65 359.29 541.15 346.54 518.65 350.04" stroke="black" stroke-miterlimit="10"/>
<path opacity="0.1" d="M479.15 361.92L471.9 378.54C471.9 378.54 479.9 396.92 495.4 394.17L504.93 376.9C504.93 376.9 483.41 374.66 479.15 361.92Z" fill="black"/>
<path d="M478.15 362.92L470.9 379.54C470.9 379.54 478.9 397.92 494.4 395.17L503.93 377.9C503.93 377.9 482.41 375.66 478.15 362.92Z" fill="#6C63FF"/>
<path opacity="0.1" d="M619.9 199.29C618.867 199.592 617.863 199.987 616.9 200.47C615.03 199.47 613.9 198.42 614 197.62C614.43 194.46 624.93 180.12 624.93 180.12C626.503 180.539 628.109 180.827 629.73 180.98C631.42 192.05 622.97 198.58 619.9 199.29Z" fill="black"/>
<path opacity="0.1" d="M602.65 185.54L588.65 191.54L572.4 196.54C572.4 196.54 535.15 166.29 544.65 164.04C546.305 163.623 547.885 162.948 549.33 162.04C554.93 169.4 568.15 177.04 568.15 177.04C579.21 181.04 589.26 173.74 594.68 168.48C596.736 174.429 599.407 180.146 602.65 185.54V185.54Z" fill="black"/>
<path d="M617.9 199.29C614.65 200.04 599.9 208.54 599.9 208.54L590.65 224.54C590.65 224.54 590.9 233.54 590.65 239.54C590.4 245.54 583.4 244.79 583.4 244.79L583.06 244.93C581.27 245.68 572.87 249.21 572.87 249.29C572.87 249.37 555.65 247.54 555.65 247.54L521.9 242.04C521.9 242.04 511.15 241.54 507.65 238.04L507.55 237.94C504.17 234.49 505.45 232 510.9 227.79C516.35 223.58 512.15 217.04 512.15 217.04C512.15 217.04 509.15 206.29 509.15 199.79C509.15 193.29 505.9 193.54 505.9 193.54C505.9 193.54 503.65 193.54 513.65 187.04C523.65 180.54 512.4 150.29 515.9 154.54C519.4 158.79 525.9 156.54 526.4 154.04C526.9 151.54 537.15 157.29 537.15 157.29C537.15 157.29 541.65 154.54 543.15 157.29C543.482 158.025 544.075 158.61 544.814 158.934C545.552 159.257 546.385 159.295 547.15 159.04C549.65 167.29 568.15 178.04 568.15 178.04C584.65 184.04 598.9 164.79 598.9 164.79C598.9 164.79 604.4 166.29 605.15 168.56C605.9 170.83 612.15 170.72 612.15 170.72C612.15 170.72 619.65 171.54 619.9 173.79C620.15 176.04 627.4 179.04 627.4 179.04C630.4 191.29 621.15 198.54 617.9 199.29Z" fill="white"/>
<path opacity="0.1" d="M583.4 242.79L583.06 244.93C581.27 245.68 572.87 249.21 572.87 249.29C572.87 249.37 555.65 247.54 555.65 247.54L521.9 242.04C521.9 242.04 511.15 241.54 507.65 238.04L507.55 237.94L507.65 236.04L513.15 235.04C513.15 235.04 567.15 238.04 574.65 241.54L583.4 242.79Z" fill="black"/>
<path opacity="0.1" d="M602.71 332.6C602.71 333.84 602.65 334.54 602.65 334.54C602.65 334.54 592.15 318.29 578.4 326.29C575.252 328.245 571.567 329.158 567.87 328.9C565.986 328.739 564.143 328.259 562.42 327.48C559.523 326.163 556.955 324.219 554.9 321.79C554.9 321.79 530.9 326.79 522.65 333.54C514.4 340.29 507.65 331.54 507.65 331.54C507.65 331.54 505.3 341.81 502.37 344.34C498.48 342.7 495.08 340.74 495.65 339.04C496.9 335.29 505.65 317.04 505.65 317.04L549.9 313.04L562.48 324.15L562.65 315.79L596.65 319.04L602.65 332.54L602.71 332.6Z" fill="black"/>
<path d="M513.15 237.04C513.15 237.04 567.15 240.04 574.65 243.54L583.4 244.79L581.9 254.29C581.9 254.29 596.15 269.04 600.4 270.79C604.65 272.54 602.65 332.54 602.65 332.54C602.65 332.54 592.15 316.29 578.4 324.29C564.65 332.29 554.9 319.79 554.9 319.79C554.9 319.79 530.9 324.79 522.65 331.54C514.4 338.29 507.65 329.54 507.65 329.54C507.65 329.54 504.9 341.54 501.65 342.79C498.4 344.04 497.65 352.04 497.65 352.04C497.65 352.04 488.65 350.29 488.65 347.54C488.65 344.79 488.4 343.79 486.65 341.79C484.9 339.79 484.65 333.29 484.65 333.29C484.65 333.29 485.65 325.79 482.4 322.79C479.15 319.79 479.4 307.04 479.4 307.04C479.4 307.04 477.89 298.79 479.4 296.79C480.91 294.79 481.9 281.29 481.9 281.29C481.9 281.29 486.9 267.29 489.65 262.04C492.4 256.79 505.65 247.79 505.65 247.79H507.12L507.62 238.04L513.15 237.04Z" fill="#6C63FF"/>
<path d="M572.98 258.12C573.853 258.12 574.56 257.413 574.56 256.54C574.56 255.667 573.853 254.96 572.98 254.96C572.107 254.96 571.4 255.667 571.4 256.54C571.4 257.413 572.107 258.12 572.98 258.12Z" fill="#3F3D56"/>
<path d="M564.56 293.96C565.433 293.96 566.14 293.253 566.14 292.38C566.14 291.507 565.433 290.8 564.56 290.8C563.687 290.8 562.98 291.507 562.98 292.38C562.98 293.253 563.687 293.96 564.56 293.96Z" fill="#3F3D56"/>
<path d="M575.65 281.79C576.523 281.79 577.23 281.083 577.23 280.21C577.23 279.337 576.523 278.63 575.65 278.63C574.777 278.63 574.07 279.337 574.07 280.21C574.07 281.083 574.777 281.79 575.65 281.79Z" fill="#3F3D56"/>
<path opacity="0.1" d="M509.98 249.29H511.98C511.98 249.29 499.98 276.79 499.32 269.12C498.66 261.45 509.98 249.29 509.98 249.29Z" fill="black"/>
<path opacity="0.1" d="M524.32 251.29C524.32 251.29 510.65 272.29 517.32 275.29C523.99 278.29 529.98 252.29 529.98 252.29L524.32 251.29Z" fill="black"/>
<path opacity="0.1" d="M542.48 263.41C542.48 263.41 547.65 295.29 553.48 301.46C559.31 307.63 552.48 311.96 552.48 311.96C552.48 311.96 572.98 313.79 579.48 315.12C585.98 316.45 595.98 313.62 591.98 310.96C587.98 308.3 591.32 279.96 591.65 278.62C591.98 277.28 578.82 303.2 542.48 263.41Z" fill="black"/>
<path opacity="0.1" d="M520.32 225.96C521.48 225.46 540.15 199.24 544.65 201.35C549.15 203.46 520.32 225.96 520.32 225.96Z" fill="black"/>
<path opacity="0.1" d="M522.65 202.79C522.65 202.79 515.15 214.29 517.32 216.29C519.49 218.29 522.65 202.79 522.65 202.79Z" fill="black"/>
<path opacity="0.1" d="M532.72 159.29C532.72 159.29 540.32 174.46 538.15 177.29C535.98 180.12 532.72 159.29 532.72 159.29Z" fill="black"/>
<path opacity="0.1" d="M617.98 180.12C617.98 180.12 616.48 188.96 614.48 189.29C612.48 189.62 617.98 180.12 617.98 180.12Z" fill="black"/>
<path opacity="0.1" d="M581.98 182.96C581.98 182.96 603.15 188.14 604.82 189.3C606.49 190.46 586.48 190.46 581.98 182.96Z" fill="black"/>
<path opacity="0.1" d="M659.98 197.96C659.98 197.96 657.32 187.62 653.82 187.79C650.32 187.96 659.98 197.96 659.98 197.96Z" fill="black"/>
<path d="M650.75 130.66C649.45 133.35 646.62 135.5 646.66 138.49C646.66 139.91 647.37 141.22 647.66 142.62C647.834 143.818 647.746 145.04 647.401 146.2C647.055 147.361 646.461 148.432 645.66 149.34C644.053 151.153 642.013 152.529 639.73 153.34C638.42 153.85 636.97 154.34 636.17 155.47C634.86 157.36 636 159.88 636.54 162.12C637.4 165.73 635.98 170.24 632.45 171.36C630.56 171.96 628.3 171.55 626.74 172.76C625.18 173.97 625.02 176.39 624.05 178.19C623.256 179.553 621.973 180.564 620.462 181.017C618.95 181.47 617.323 181.332 615.91 180.63C615.825 179.709 615.945 178.78 616.26 177.91C615.184 178.195 614.045 178.122 613.015 177.701C611.985 177.281 611.119 176.536 610.55 175.58C610.1 174.642 609.871 173.614 609.88 172.574C609.888 171.534 610.135 170.51 610.6 169.58C611.549 167.715 612.754 165.992 614.18 164.46C618.523 159.398 622.174 153.782 625.04 147.76C627.908 141.715 629.342 135.09 629.23 128.4C629.244 126.417 628.86 124.452 628.1 122.62C627.151 120.759 625.806 119.127 624.16 117.84C623.33 117.12 622.45 116.44 621.59 115.75C620.99 115.27 620.39 114.75 619.82 114.29C619.04 113.6 615.94 111.07 616.19 109.85C616.33 109.15 618.43 109.25 620.26 109.23C620.93 109.244 621.6 109.191 622.26 109.07C622.401 109.045 622.538 109.005 622.67 108.95C623.279 108.598 623.91 108.288 624.56 108.02C626.42 107.44 628.34 108.61 629.89 109.79C632.11 111.631 634.449 113.324 636.89 114.86C639.358 116.385 642.248 117.085 645.14 116.86C646.051 116.646 646.994 116.606 647.92 116.74C649.69 117.21 650.47 119.24 650.92 121.02C651.65 124.2 652.17 127.7 650.75 130.66Z" fill="#3F3D56"/>
<path d="M552.65 105.19C552.267 105.235 551.886 105.302 551.51 105.39C550.45 105.687 549.42 106.079 548.43 106.56C546.7 107.451 545.03 108.453 543.43 109.56L531.11 117.62C529.95 118.275 528.931 119.152 528.11 120.2C526.02 123.27 527.98 127.66 531.01 129.82C532.41 130.82 534.01 131.52 535.38 132.54C536.101 133.007 536.714 133.624 537.177 134.349C537.639 135.073 537.94 135.889 538.06 136.74C538.21 139.35 535.81 141.4 533.4 142.39C530.99 143.38 528.29 143.77 526.18 145.3C525.76 145.667 525.27 145.946 524.74 146.12C524.112 146.188 523.478 146.066 522.92 145.77C519.148 144.197 515.509 142.321 512.04 140.16C512.262 140.348 512.423 140.597 512.503 140.877C512.583 141.156 512.579 141.453 512.49 141.73C509.367 140.77 506.5 139.117 504.105 136.895C501.709 134.674 499.845 131.94 498.652 128.898C497.459 125.856 496.968 122.584 497.215 119.326C497.463 116.068 498.442 112.907 500.08 110.08C501.37 107.87 503.08 105.88 504.08 103.55C505.08 101.22 505.46 98.33 504.08 96.2C503.08 94.71 501.33 93.71 500.81 92C500.29 90.29 501.37 88.24 502.68 86.85C505.57 83.85 509.56 82.05 512.75 79.31C515.94 76.57 518.35 72.03 516.54 68.24C515.1 65.24 511.23 63.01 511.88 59.74C512.31 58.2686 513.306 57.028 514.65 56.29C517.011 54.7743 519.72 53.8869 522.52 53.7119C525.32 53.5369 528.119 54.0801 530.65 55.29C530.461 54.5428 530.511 53.7553 530.793 53.0379C531.074 52.3205 531.573 51.7093 532.22 51.29C532.888 50.9025 533.664 50.7408 534.431 50.8291C535.199 50.9174 535.917 51.2508 536.48 51.78C536.922 52.3439 537.396 52.8815 537.9 53.39C538.166 53.6282 538.514 53.7531 538.871 53.7382C539.228 53.7232 539.565 53.5696 539.81 53.31C539.971 53.0024 540.044 52.6563 540.02 52.31C540.086 50.4667 540.557 48.6606 541.4 47.02C545.006 52.2658 547.316 58.2928 548.138 64.6053C548.96 70.9178 548.272 77.3354 546.13 83.33C545.357 84.9796 544.906 86.7614 544.8 88.58C544.91 92.35 548.44 95.15 551.98 96.43L552.17 96.49C553.28 96.85 555.17 97.16 557.01 97.67C559.43 98.34 561.76 99.36 562.01 101.27C562.55 104.38 555.81 104.76 552.65 105.19Z" fill="#3F3D56"/>
<path d="M501.15 119.12C499.32 121.12 489.82 143.62 489.82 143.62C490.61 149.13 507.4 155.68 514.51 158.21C516.43 158.9 517.65 159.29 517.65 159.29L524.48 165.29C524.48 165.29 517.48 203.96 516.92 194.46C516.36 184.96 503.98 180.12 503.98 180.12C503.98 180.12 500.74 178.8 496.86 177.01C491.42 174.52 484.7 171.14 483.86 169.29C482.36 166.12 480.36 165.12 470.02 155.79C459.68 146.46 466.52 138.79 466.86 137.79C468.52 132.79 485.19 110.72 485.19 110.72L509.32 81.29C509.32 81.29 515.98 53.96 532.72 64.62C549.46 75.28 513.65 100.79 513.65 100.79C513.65 100.79 502.98 117.12 501.15 119.12Z" fill="#FBBEBE"/>
<path opacity="0.1" d="M524.48 165.29C524.48 165.29 517.48 203.96 516.92 194.46C516.36 184.96 503.98 180.12 503.98 180.12C503.98 180.12 500.74 178.8 496.86 177.01C498.11 168.15 507.33 161.84 514.51 158.21C516.43 158.9 517.65 159.29 517.65 159.29L524.48 165.29Z" fill="black"/>
<path d="M532.55 161.22L525.22 154.54C525.22 154.54 477.8 169.54 509.8 197.96H523.29L535.65 181.54L532.55 161.22Z" fill="white"/>
<path opacity="0.1" d="M594.65 167.48C594.75 167.81 594.86 168.14 594.97 168.48C587.947 170.256 580.552 169.875 573.749 167.387C566.946 164.898 561.05 160.418 556.83 154.53C559.235 151.888 561.422 149.055 563.37 146.06C563.37 146.06 600.12 144.31 594.37 153.06C592.16 156.45 592.92 161.99 594.65 167.48Z" fill="black"/>
<path d="M622.14 132.56C622.14 139.68 620.029 146.64 616.073 152.561C612.117 158.481 606.495 163.095 599.917 165.82C593.339 168.544 586.1 169.257 579.117 167.868C572.133 166.479 565.719 163.051 560.684 158.016C555.65 152.981 552.221 146.567 550.832 139.583C549.443 132.6 550.156 125.362 552.88 118.783C555.605 112.205 560.219 106.583 566.14 102.627C572.06 98.6714 579.02 96.56 586.14 96.56C590.873 96.5415 595.562 97.46 599.939 99.2626C604.315 101.065 608.291 103.716 611.637 107.063C614.984 110.409 617.635 114.385 619.437 118.762C621.24 123.138 622.159 127.827 622.14 132.56Z" fill="#FBBEBE"/>
<path opacity="0.1" d="M622.14 132.56C622.145 137.344 621.193 142.08 619.34 146.49C617.322 146.913 615.241 146.947 613.21 146.59C612.395 146.511 611.63 146.159 611.04 145.59C610.62 145.002 610.368 144.31 610.31 143.59C609.93 141.37 609.557 139.157 609.19 136.95C605.95 138.22 602.19 137.28 599.19 135.58C596.19 133.88 593.55 131.51 590.63 129.58C587.71 127.65 584.22 126.28 580.79 126.9C578.923 127.328 577.143 128.076 575.53 129.11C572.203 130.879 569.167 133.149 566.53 135.84C564.71 137.84 563.12 140.24 560.6 141.15C559.031 141.641 557.332 141.497 555.868 140.749C554.404 140.001 553.292 138.709 552.77 137.15C552.24 135.3 552.6 133.32 552.38 131.41C552.328 130.749 552.13 130.109 551.8 129.535C551.469 128.96 551.015 128.467 550.47 128.09C551.591 118.99 556.142 110.661 563.194 104.801C570.246 98.9418 579.268 95.994 588.419 96.5592C597.57 97.1243 606.161 101.16 612.439 107.843C618.716 114.525 622.207 123.351 622.2 132.52L622.14 132.56Z" fill="black"/>
<path d="M552.32 130.45C552.54 132.36 552.18 134.34 552.71 136.19C553.232 137.749 554.344 139.041 555.808 139.789C557.272 140.537 558.971 140.681 560.54 140.19C563.06 139.28 564.65 136.86 566.47 134.88C569.107 132.189 572.143 129.919 575.47 128.15C577.083 127.116 578.863 126.368 580.73 125.94C584.16 125.32 587.64 126.73 590.57 128.62C593.5 130.51 596.09 132.89 599.13 134.62C602.17 136.35 605.9 137.26 609.13 135.99L610.25 142.63C610.308 143.35 610.56 144.042 610.98 144.63C611.57 145.199 612.335 145.551 613.15 145.63C615.633 146.069 618.184 145.922 620.6 145.2C621.208 145.085 621.784 144.84 622.288 144.48C622.792 144.121 623.213 143.657 623.52 143.12C623.711 142.615 623.812 142.08 623.82 141.54C624.682 128.773 622.709 115.974 618.04 104.06C616.33 99.72 614.15 95.37 610.47 92.52C608.307 90.9884 605.954 89.7446 603.47 88.82C595.99 85.65 587.75 82.42 579.94 84.69C576.5 85.69 573.45 87.69 570.45 89.69L556.45 98.98C555.705 99.4275 555.031 99.9836 554.45 100.63C553.74 101.623 553.228 102.744 552.94 103.93C551.507 108.422 549.582 112.741 547.2 116.81C546.642 117.606 546.272 118.519 546.12 119.48C546.124 120.369 546.322 121.246 546.7 122.05C547.42 123.92 547.7 125.31 549.34 126.41C550.98 127.51 552.06 128.29 552.32 130.45Z" fill="#3F3D56"/>
<g opacity="0.1">
<path opacity="0.1" d="M533.41 139.36C531 140.36 528.3 140.74 526.19 142.27C525.77 142.637 525.28 142.916 524.75 143.09C524.122 143.158 523.488 143.036 522.93 142.74C519.112 141.144 515.432 139.234 511.93 137.03C512.201 137.203 512.407 137.46 512.515 137.763C512.624 138.065 512.629 138.395 512.53 138.7C509.41 137.723 506.547 136.066 504.146 133.847C501.746 131.628 499.868 128.903 498.65 125.87C497.85 123.82 498.8 128.06 498.65 125.87C498.43 129.06 497.49 125.87 498.65 128.87C499.864 131.899 501.736 134.621 504.129 136.84C506.522 139.058 509.378 140.718 512.49 141.7C512.589 141.395 512.584 141.065 512.475 140.763C512.367 140.46 512.161 140.203 511.89 140.03C515.392 142.234 519.072 144.144 522.89 145.74C523.448 146.036 524.082 146.158 524.71 146.09C525.24 145.916 525.73 145.637 526.15 145.27C528.26 143.74 530.96 143.34 533.37 142.36C535.78 141.38 538.18 139.36 538.03 136.71C538 136.274 537.902 135.846 537.74 135.44C536.861 137.26 535.308 138.666 533.41 139.36V139.36Z" fill="black"/>
<path opacity="0.1" d="M544.82 85.59C544.834 86.0185 544.895 86.4443 545 86.86C545.299 85.6607 545.683 84.4843 546.15 83.34C547.869 78.6023 548.654 73.5762 548.46 68.54C548.31 72.5697 547.53 76.5511 546.15 80.34C545.377 81.9896 544.926 83.7714 544.82 85.59Z" fill="black"/>
<path opacity="0.1" d="M628.11 119.58C626.77 116.71 624.23 114.8 621.78 112.86C622.06 114.05 622.31 115.25 622.54 116.46C624.74 118.2 626.91 120.01 628.11 122.58C628.837 124.32 629.218 126.185 629.23 128.07C629.23 127.17 629.23 126.27 629.23 125.36C629.247 123.378 628.866 121.412 628.11 119.58V119.58Z" fill="black"/>
<path opacity="0.1" d="M516.08 67.43C516.38 65.96 517.18 66.6 516.52 65.21C515.43 62.95 512.97 61.13 512.1 58.97C511.995 59.2077 511.914 59.4557 511.86 59.71C511.21 62.98 514.64 64.42 516.08 67.43C516.29 67.86 515.19 65.29 516.08 67.43Z" fill="black"/>
<path opacity="0.1" d="M552.5 102.21C552.163 102.247 551.829 102.307 551.5 102.39C548.605 103.336 545.878 104.733 543.42 106.53L531.1 114.59C529.94 115.245 528.921 116.122 528.1 117.17C527.675 117.824 527.395 118.561 527.28 119.332C527.164 120.103 527.215 120.89 527.43 121.64C527.568 121.115 527.794 120.618 528.1 120.17C528.921 119.122 529.94 118.245 531.1 117.59L543.42 109.53C545.821 107.786 548.47 106.414 551.28 105.46C551.71 104.38 552.12 103.29 552.5 102.21Z" fill="black"/>
<path opacity="0.1" d="M647.59 142.4C647.279 143.85 646.62 145.202 645.67 146.34C644.063 148.153 642.023 149.529 639.74 150.34C638.43 150.85 636.98 151.34 636.18 152.47C635.853 153.035 635.649 153.664 635.582 154.313C635.514 154.963 635.585 155.62 635.79 156.24C635.883 155.966 636.015 155.707 636.18 155.47C636.98 154.31 638.43 153.85 639.74 153.34C642.023 152.529 644.063 151.153 645.67 149.34C646.471 148.432 647.065 147.361 647.411 146.2C647.756 145.04 647.844 143.818 647.67 142.62C647.65 142.54 647.65 142.47 647.59 142.4Z" fill="black"/>
<path opacity="0.1" d="M650.75 127.66C649.45 130.35 646.62 132.5 646.66 135.49C646.672 135.991 646.749 136.489 646.89 136.97C647.58 134.72 649.68 132.87 650.75 130.66C651.576 128.775 651.857 126.696 651.56 124.66C651.459 125.698 651.185 126.712 650.75 127.66Z" fill="black"/>
<path opacity="0.1" d="M611.04 144.59C611.63 145.159 612.395 145.511 613.21 145.59C615.693 146.029 618.244 145.882 620.66 145.16C621.268 145.045 621.844 144.8 622.348 144.44C622.852 144.081 623.273 143.617 623.58 143.08C623.771 142.575 623.872 142.04 623.88 141.5C624.05 139.04 624.1 136.58 624.05 134.12C624.05 135.58 623.98 137.04 623.88 138.5C623.872 139.04 623.771 139.575 623.58 140.08C623.273 140.617 622.852 141.081 622.348 141.44C621.844 141.8 621.268 142.045 620.66 142.16C618.244 142.882 615.693 143.029 613.21 142.59C612.395 142.511 611.63 142.159 611.04 141.59C610.62 141.002 610.368 140.31 610.31 139.59C609.93 137.37 609.557 135.157 609.19 132.95C605.95 134.22 602.19 133.28 599.19 131.58C596.19 129.88 593.55 127.51 590.63 125.58C587.71 123.65 584.22 122.28 580.79 122.9C578.923 123.328 577.143 124.076 575.53 125.11C572.203 126.879 569.167 129.149 566.53 131.84C564.71 133.84 563.12 136.24 560.6 137.15C559.031 137.641 557.332 137.497 555.868 136.749C554.404 136.001 553.292 134.709 552.77 133.15C552.24 131.3 552.6 129.32 552.38 127.41C552.12 125.23 551.03 124.41 549.38 123.33C547.73 122.25 547.46 120.84 546.74 118.97C546.65 118.73 546.55 118.47 546.47 118.22C546.303 118.594 546.198 118.992 546.16 119.4C546.164 120.289 546.362 121.166 546.74 121.97C547.46 123.84 547.74 125.23 549.38 126.33C551.02 127.43 552.08 128.23 552.38 130.41C552.6 132.32 552.24 134.3 552.77 136.15C553.292 137.709 554.404 139.001 555.868 139.749C557.332 140.497 559.031 140.641 560.6 140.15C563.12 139.24 564.71 136.82 566.53 134.84C569.167 132.149 572.203 129.879 575.53 128.11C577.143 127.076 578.923 126.328 580.79 125.9C584.22 125.28 587.7 126.69 590.63 128.58C593.56 130.47 596.15 132.85 599.19 134.58C602.23 136.31 605.96 137.22 609.19 135.95C609.563 138.163 609.937 140.377 610.31 142.59C610.368 143.31 610.62 144.002 611.04 144.59V144.59Z" fill="black"/>
<path opacity="0.1" d="M632.46 168.36C630.57 168.96 628.31 168.55 626.75 169.76C625.19 170.97 625.03 173.39 624.06 175.19C623.266 176.553 621.983 177.564 620.472 178.017C618.96 178.47 617.333 178.332 615.92 177.63C615.835 176.709 615.955 175.78 616.27 174.91C615.194 175.195 614.055 175.122 613.025 174.701C611.995 174.281 611.129 173.536 610.56 172.58C610.332 172.168 610.16 171.728 610.05 171.27C609.691 172.721 609.872 174.253 610.56 175.58C611.129 176.536 611.995 177.281 613.025 177.701C614.055 178.122 615.194 178.195 616.27 177.91C615.955 178.78 615.835 179.709 615.92 180.63C617.333 181.332 618.96 181.47 620.472 181.017C621.983 180.564 623.266 179.553 624.06 178.19C625.06 176.39 625.13 174.02 626.75 172.76C628.37 171.5 630.57 171.96 632.46 171.36C635.79 170.3 637.24 166.24 636.67 162.75C636.27 165.29 634.85 167.6 632.46 168.36Z" fill="black"/>
</g>
<path d="M557.03 97.68C555.879 100.351 554.409 102.873 552.65 105.19C552.267 105.235 551.886 105.302 551.51 105.39C550.45 105.687 549.42 106.079 548.43 106.56C549.395 103.105 550.657 99.7388 552.2 96.5C553.3 96.86 555.19 97.17 557.03 97.68Z" fill="#6C63FF"/>
<path d="M624.17 117.8C623.34 117.08 622.46 116.4 621.6 115.71C621.1 113.71 620.6 111.32 620.27 109.19C620.94 109.204 621.61 109.151 622.27 109.03C623.379 111.83 624.021 114.792 624.17 117.8Z" fill="#6C63FF"/>
<path d="M968.37 261.64C968.68 261.49 968.98 261.34 969.28 261.17C968.67 261.05 968.06 260.91 967.46 260.76C967.03 260.88 966.59 260.97 966.15 261.07C957.772 258.67 950.181 254.091 944.15 247.8C938.05 241.37 933.78 232.95 933.87 224.2C933.94 217.82 936.28 211.6 936.21 205.2C936.14 198.8 932.42 191.59 925.9 190.87C923.63 190.62 921.36 191.21 919.07 191.29C916.78 191.37 914.23 190.77 913.07 188.88C912.07 187.25 912.33 185.13 912.97 183.32C914.71 178.43 918.62 174.48 920.3 169.57C921.293 166.651 921.448 163.513 920.75 160.51C920.17 158.01 918.84 155.51 916.51 154.3C912.65 152.3 908.06 154.62 903.77 155.43C896.43 156.83 888.98 153.64 882.66 149.74C876.34 145.84 870.42 141.1 863.31 138.81C858.65 137.445 853.804 136.818 848.95 136.95C845.95 136.95 842.7 137.19 840.49 139.14C840.38 139.24 840.3 139.35 840.19 139.45C840.405 138.832 840.697 138.244 841.06 137.7C840.729 137.901 840.418 138.132 840.13 138.39C835.54 142.44 838.75 150.17 836.05 155.59C835.747 156.189 835.378 156.753 834.95 157.27C835.592 156.779 836.188 156.23 836.73 155.63C836.63 155.87 836.54 156.11 836.42 156.35C834.87 159.47 831.59 161.35 828.42 162.89C825.25 164.43 821.8 165.84 819.51 168.49C819.45 168.55 819.41 168.61 819.35 168.68C819.741 167.721 820.281 166.83 820.95 166.04C820.295 166.545 819.689 167.111 819.14 167.73C816.63 170.64 816.44 173.06 817.56 174.92C818.36 177.05 820.8 178.56 823.65 179.35C823.51 179.98 823.38 180.61 823.27 181.25C823.022 182.838 822.895 184.443 822.89 186.05C822.89 200.81 833.51 213.16 847.73 216.29C847.73 216.93 847.65 217.58 847.57 218.29C847.09 222.83 845.69 227.75 842.02 228.95C838.59 227.78 831.72 232.95 830.18 234.45C828.64 235.95 823.18 234.61 818.18 234.78C813.18 234.95 811.49 233.45 811.49 233.45C811.038 236.147 810.978 238.896 811.31 241.61C811.83 246.61 807.71 246.78 807.71 246.78C807.71 246.78 808.57 253.95 806.71 257.61C805.593 259.71 805.116 262.092 805.34 264.46C805.34 264.46 811.17 263.96 810.65 265.96C810.616 266.193 810.628 266.431 810.687 266.659C810.745 266.887 810.848 267.102 810.99 267.29L810.93 269.2L810.14 295.62L808.6 311.37C808.212 311.485 807.855 311.687 807.557 311.961C807.259 312.235 807.028 312.573 806.88 312.95C805.49 316.11 803.25 320.32 801.49 323.54C794.34 327.87 783.6 335.9 786.64 343.62C791.1 354.96 797.45 353.46 801.22 352.12C804.99 350.78 811.73 340.29 811.73 340.29C811.73 340.29 813.96 336.12 815.67 336.12C816.585 336.08 817.497 335.983 818.4 335.83C818.4 336.01 818.4 336.12 818.4 336.12C818.4 336.12 814.8 350.29 816 353.79C817.2 357.29 816.17 361.79 816.17 361.79C816.17 361.79 815.17 372.12 816.51 375.46C817.85 378.8 814.65 387.77 814.65 387.77C814.65 387.77 815.57 388.05 817.16 388.44C817.04 389.01 816.9 389.64 816.75 390.34C814.65 400.27 810.88 422.94 815.17 441.6C815.17 441.6 817.57 451.6 817.91 454.28C818.25 456.96 820.31 459.28 818.91 465.28C817.51 471.28 821.65 482.29 821.65 482.29C821.65 482.29 823.71 492.79 822.51 497.62C821.31 502.45 835.03 556.62 835.03 556.62L837.27 556.3L837.77 558.23L840 566.83L840.24 567.77C838.667 568.15 837.262 569.035 836.24 570.29C836.24 570.29 830.24 583.96 822.69 587.79C820.69 588.79 818.24 590.13 815.88 591.58C809.14 595.7 803.36 600.66 813.18 600.79C823.94 600.93 841.62 601.5 847.96 601.71C849.31 602.44 851.58 602.86 855.11 602.79C872.77 602.46 897.82 600.62 898.34 598.96C898.59 598.15 897.54 596.43 896.4 594.88C895.26 593.33 893.87 591.79 893.87 591.79L893.36 576.62C893.36 576.62 891.92 575.32 889.69 573.53L889.61 572.47L888.49 557.84L888.34 555.84C889.094 555.68 889.808 555.371 890.44 554.93L891.65 539.78C891.65 539.78 899.02 514.45 889.59 489.61C889.59 489.61 881.36 472.45 883.59 466.28L883.94 453.11C883.94 453.11 887.88 437.6 889.77 433.44C892.371 427.02 894.341 420.362 895.65 413.56C902.42 402.82 901.31 388.56 901.31 388.56L906.11 373.56L912.8 354.4C912.8 354.4 914.69 342.73 915.38 340.4C916.07 338.07 915.38 325.4 915.38 325.4C915.38 325.4 921.18 279.2 916.33 261.15V260.46H916.38C916.38 260.46 916.38 260.08 916.38 259.46C916.46 259.37 921.66 253.95 919.28 252.46C917.28 251.22 913.69 245.68 910.95 242.37C910.58 241.94 910.24 241.55 909.95 241.2C913.231 238.67 916.026 235.567 918.2 232.04C919.04 230.67 920.07 229.04 921.71 228.97C922.589 228.991 923.442 229.273 924.16 229.78C936.73 237.31 938.75 256.14 952 262.47C954.786 263.764 957.835 264.392 960.905 264.304C963.976 264.215 966.984 263.413 969.69 261.96L968.37 261.64ZM867.81 562.78L867.7 563.78C867.258 563.932 866.838 564.14 866.45 564.4C866.45 564.4 864.73 573.23 863.7 573.9C863.162 574.576 862.734 575.332 862.43 576.14L862.18 575.69C862.1 575.87 862.01 576.05 861.93 576.24L861.47 575.4L861.34 574.4L858.48 552.29C858.24 549.06 857.54 538.36 858.56 532.74C859.76 526.07 859.56 502.74 851.87 493.41C851.87 493.41 848.27 484.91 851.53 479.41L852.04 444.73L853.24 443.56L853.41 475.56C853.987 482.334 856.689 488.752 861.13 493.9L862.34 510.73C862.34 510.73 863.34 529.06 866.45 539.23V554.9C866.45 554.9 867.28 555.04 868.61 555.23L868.4 557.23L867.81 562.78Z" fill="url(#paint1_linear)"/>
<path d="M888.15 228.46L880.98 244.46L878.33 246.01L860.48 256.46C860.48 256.46 837.98 254.29 837.32 253.96C836.66 253.63 835.6 234.52 841.42 230.5C841.741 230.27 842.095 230.092 842.47 229.97V229.97C846.04 228.77 847.4 223.85 847.87 219.31C847.94 218.64 847.99 217.99 848.02 217.31C848.163 215.186 848.163 213.054 848.02 210.93C848.02 210.93 853.48 205.47 860.02 199.82C871.61 189.82 886.6 179.27 880.85 197.26C879.789 200.501 879.006 203.826 878.51 207.2C878.39 207.99 878.31 208.76 878.25 209.49C877.55 218.35 880.32 223.13 883.11 225.67C883.41 225.95 883.72 226.19 884.02 226.42C885.237 227.384 886.645 228.079 888.15 228.46V228.46Z" fill="#CF6F80"/>
<path d="M861.48 576.46L858.98 577.62L842.15 573.79L840.65 567.83L838.48 559.23L836.98 553.29H858.57L861.35 575.42L861.48 576.46Z" fill="#CF6F80"/>
<path opacity="0.1" d="M858.98 577.62L842.15 573.79L840.65 567.79C847.03 565.88 856.32 571.25 856.32 571.25C855.71 573.37 860.5 575.09 861.32 575.38L861.45 576.38L858.98 577.62Z" fill="black"/>
<path opacity="0.1" d="M866.98 585.79L854.91 597.62L850.65 601.79L848.34 601.71C843.99 599.27 849.63 593.34 853.4 590.05C854.14 589.4 854.81 588.86 855.32 588.46C858.02 586.35 860.55 580.34 862.17 576.75L866.98 585.79Z" fill="black"/>
<path opacity="0.1" d="M862.17 576.75L866.98 585.75L854.91 597.58L850.65 601.79L848.34 601.71C843.99 599.27 849.63 593.34 853.4 590.05C854.14 589.4 854.81 588.86 855.32 588.46C858.02 586.35 860.55 580.34 862.17 576.75Z" fill="black"/>
<path opacity="0.1" d="M889.15 577.62L866.98 570.12L867.64 563.79C873.42 561.79 883.47 569.06 888.84 573.47L889.15 577.62Z" fill="black"/>
<path d="M866.98 586.79L854.91 598.62L850.65 602.79C850.65 602.79 827.48 601.96 814.58 601.79C805.04 601.66 810.65 596.7 817.2 592.58C819.5 591.13 821.91 589.79 823.82 588.79C831.15 584.96 836.98 571.29 836.98 571.29C842.48 564.29 856.32 572.29 856.32 572.29C855.65 574.62 861.48 576.46 861.48 576.46L866.98 586.79Z" fill="#3F3D56"/>
<path opacity="0.1" d="M854.91 598.62L850.65 602.79C850.65 602.79 827.48 601.96 814.58 601.79C805.04 601.66 810.65 596.7 817.2 592.58C820.73 593.38 824.28 595.08 825.48 598.58L854.91 598.62Z" fill="black"/>
<path d="M889.15 577.62L866.98 570.12L867.64 563.79L868.21 558.26L868.98 550.79H887.15L887.75 558.84L888.84 573.47L889.15 577.62Z" fill="#CF6F80"/>
<path d="M897.32 599.96C896.82 601.62 872.48 603.46 855.32 603.79C840.42 604.08 848.49 595.33 853.4 591.05C854.14 590.4 854.81 589.86 855.32 589.46C859.15 586.46 862.65 575.62 863.65 574.96C864.65 574.3 866.32 565.46 866.32 565.46C873.82 560.12 892.48 577.62 892.48 577.62L892.98 592.79C892.98 592.79 894.26 594.24 895.44 595.88C896.62 597.52 897.56 599.15 897.32 599.96Z" fill="#3F3D56"/>
<path opacity="0.1" d="M897.32 599.96C896.82 601.62 872.48 603.46 855.32 603.79C840.42 604.08 848.49 595.33 853.4 591.05C857.182 592.649 860.444 595.27 862.82 598.62H881.98C881.98 598.62 891.22 597.28 895.44 595.88C896.54 597.43 897.56 599.15 897.32 599.96Z" fill="black"/>
<path opacity="0.1" d="M858.44 553.29C858.55 555.12 858.65 556.29 858.65 556.29L838.48 559.23L836.98 553.29H858.44Z" fill="black"/>
<path opacity="0.1" d="M887.75 558.84C882.82 560.21 872.47 558.89 868.21 558.26L868.98 550.79H887.15L887.75 558.84Z" fill="black"/>
<path d="M888.82 490.62C897.98 515.46 890.82 540.79 890.82 540.79L889.65 555.96C885.48 559.29 866.32 555.96 866.32 555.96V540.29C863.32 530.12 862.32 511.79 862.32 511.79L861.15 494.96C856.819 489.766 854.2 483.36 853.65 476.62L853.48 444.62L852.32 445.79L851.82 480.46C848.65 485.96 852.15 494.46 852.15 494.46C859.65 503.79 859.82 527.12 858.65 533.79C857.48 540.46 858.65 554.29 858.65 554.29L835.82 557.62C835.82 557.62 822.48 503.46 823.65 498.62C824.82 493.78 822.82 483.29 822.82 483.29C822.82 483.29 818.82 472.29 820.15 466.29C821.48 460.29 819.48 457.96 819.15 455.29C818.82 452.62 816.48 442.62 816.48 442.62C812.32 423.96 815.98 401.29 818.02 391.36C818.67 388.17 819.15 386.29 819.15 386.29C819.15 386.29 881.15 368.29 891.65 383.29C892.893 385.103 893.851 387.097 894.49 389.2C899.62 405.41 890.6 430.78 888.98 434.46C887.15 438.62 883.32 454.12 883.32 454.12L882.98 467.29C880.82 473.46 888.82 490.62 888.82 490.62Z" fill="#3F3D56"/>
<path d="M872.81 516.13C873.18 516.13 873.48 515.83 873.48 515.46C873.48 515.09 873.18 514.79 872.81 514.79C872.44 514.79 872.14 515.09 872.14 515.46C872.14 515.83 872.44 516.13 872.81 516.13Z" fill="#6C63FF"/>
<path d="M839.63 532.85C840 532.85 840.3 532.55 840.3 532.18C840.3 531.81 840 531.51 839.63 531.51C839.26 531.51 838.96 531.81 838.96 532.18C838.96 532.55 839.26 532.85 839.63 532.85Z" fill="#6C63FF"/>
<path d="M837.31 522.3C837.68 522.3 837.98 522 837.98 521.63C837.98 521.26 837.68 520.96 837.31 520.96C836.94 520.96 836.64 521.26 836.64 521.63C836.64 522 836.94 522.3 837.31 522.3Z" fill="#6C63FF"/>
<path d="M841.89 523.13C842.26 523.13 842.56 522.83 842.56 522.46C842.56 522.09 842.26 521.79 841.89 521.79C841.52 521.79 841.22 522.09 841.22 522.46C841.22 522.83 841.52 523.13 841.89 523.13Z" fill="#6C63FF"/>
<path d="M839.93 528.78C840.3 528.78 840.6 528.48 840.6 528.11C840.6 527.74 840.3 527.44 839.93 527.44C839.56 527.44 839.26 527.74 839.26 528.11C839.26 528.48 839.56 528.78 839.93 528.78Z" fill="#6C63FF"/>
<path d="M869.98 527.13C870.35 527.13 870.65 526.83 870.65 526.46C870.65 526.09 870.35 525.79 869.98 525.79C869.61 525.79 869.31 526.09 869.31 526.46C869.31 526.83 869.61 527.13 869.98 527.13Z" fill="#6C63FF"/>
<path d="M883.98 530.96C884.35 530.96 884.65 530.66 884.65 530.29C884.65 529.92 884.35 529.62 883.98 529.62C883.61 529.62 883.31 529.92 883.31 530.29C883.31 530.66 883.61 530.96 883.98 530.96Z" fill="#6C63FF"/>
<path d="M888.48 526.46C888.85 526.46 889.15 526.16 889.15 525.79C889.15 525.42 888.85 525.12 888.48 525.12C888.11 525.12 887.81 525.42 887.81 525.79C887.81 526.16 888.11 526.46 888.48 526.46Z" fill="#6C63FF"/>
<path d="M874.15 523.8C874.52 523.8 874.82 523.5 874.82 523.13C874.82 522.76 874.52 522.46 874.15 522.46C873.78 522.46 873.48 522.76 873.48 523.13C873.48 523.5 873.78 523.8 874.15 523.8Z" fill="#6C63FF"/>
<path d="M846.96 519.23C847.33 519.23 847.63 518.93 847.63 518.56C847.63 518.19 847.33 517.89 846.96 517.89C846.59 517.89 846.29 518.19 846.29 518.56C846.29 518.93 846.59 519.23 846.96 519.23Z" fill="#6C63FF"/>
<path d="M852.52 523.13C852.89 523.13 853.19 522.83 853.19 522.46C853.19 522.09 852.89 521.79 852.52 521.79C852.15 521.79 851.85 522.09 851.85 522.46C851.85 522.83 852.15 523.13 852.52 523.13Z" fill="#6C63FF"/>
<path d="M842.96 540.05C843.33 540.05 843.63 539.75 843.63 539.38C843.63 539.01 843.33 538.71 842.96 538.71C842.59 538.71 842.29 539.01 842.29 539.38C842.29 539.75 842.59 540.05 842.96 540.05Z" fill="#6C63FF"/>
<path d="M845.26 548.13C845.63 548.13 845.93 547.83 845.93 547.46C845.93 547.09 845.63 546.79 845.26 546.79C844.89 546.79 844.59 547.09 844.59 547.46C844.59 547.83 844.89 548.13 845.26 548.13Z" fill="#6C63FF"/>
<path d="M852.81 550.95C853.18 550.95 853.48 550.65 853.48 550.28C853.48 549.91 853.18 549.61 852.81 549.61C852.44 549.61 852.14 549.91 852.14 550.28C852.14 550.65 852.44 550.95 852.81 550.95Z" fill="#6C63FF"/>
<path d="M848.29 551.46C848.66 551.46 848.96 551.16 848.96 550.79C848.96 550.42 848.66 550.12 848.29 550.12C847.92 550.12 847.62 550.42 847.62 550.79C847.62 551.16 847.92 551.46 848.29 551.46Z" fill="#6C63FF"/>
<path d="M844.29 555.27C844.66 555.27 844.96 554.97 844.96 554.6C844.96 554.23 844.66 553.93 844.29 553.93C843.92 553.93 843.62 554.23 843.62 554.6C843.62 554.97 843.92 555.27 844.29 555.27Z" fill="#6C63FF"/>
<path d="M847.63 528.11C848 528.11 848.3 527.81 848.3 527.44C848.3 527.07 848 526.77 847.63 526.77C847.26 526.77 846.96 527.07 846.96 527.44C846.96 527.81 847.26 528.11 847.63 528.11Z" fill="#6C63FF"/>
<path d="M847.63 536.3C848 536.3 848.3 536 848.3 535.63C848.3 535.26 848 534.96 847.63 534.96C847.26 534.96 846.96 535.26 846.96 535.63C846.96 536 847.26 536.3 847.63 536.3Z" fill="#6C63FF"/>
<path d="M851.86 541.69C852.23 541.69 852.53 541.39 852.53 541.02C852.53 540.65 852.23 540.35 851.86 540.35C851.49 540.35 851.19 540.65 851.19 541.02C851.19 541.39 851.49 541.69 851.86 541.69Z" fill="#6C63FF"/>
<path d="M848.02 544.12C848.39 544.12 848.69 543.82 848.69 543.45C848.69 543.08 848.39 542.78 848.02 542.78C847.65 542.78 847.35 543.08 847.35 543.45C847.35 543.82 847.65 544.12 848.02 544.12Z" fill="#6C63FF"/>
<path d="M840.29 555.27C840.66 555.27 840.96 554.97 840.96 554.6C840.96 554.23 840.66 553.93 840.29 553.93C839.92 553.93 839.62 554.23 839.62 554.6C839.62 554.97 839.92 555.27 840.29 555.27Z" fill="#6C63FF"/>
<path d="M852.15 545.53C852.52 545.53 852.82 545.23 852.82 544.86C852.82 544.49 852.52 544.19 852.15 544.19C851.78 544.19 851.48 544.49 851.48 544.86C851.48 545.23 851.78 545.53 852.15 545.53Z" fill="#6C63FF"/>
<path d="M883.98 521.63C884.35 521.63 884.65 521.33 884.65 520.96C884.65 520.59 884.35 520.29 883.98 520.29C883.61 520.29 883.31 520.59 883.31 520.96C883.31 521.33 883.61 521.63 883.98 521.63Z" fill="#6C63FF"/>
<path d="M877.4 530.96C877.77 530.96 878.07 530.66 878.07 530.29C878.07 529.92 877.77 529.62 877.4 529.62C877.03 529.62 876.73 529.92 876.73 530.29C876.73 530.66 877.03 530.96 877.4 530.96Z" fill="#6C63FF"/>
<path d="M872.81 544.79C873.18 544.79 873.48 544.49 873.48 544.12C873.48 543.75 873.18 543.45 872.81 543.45C872.44 543.45 872.14 543.75 872.14 544.12C872.14 544.49 872.44 544.79 872.81 544.79Z" fill="#6C63FF"/>
<path d="M871.31 553.96C871.68 553.96 871.98 553.66 871.98 553.29C871.98 552.92 871.68 552.62 871.31 552.62C870.94 552.62 870.64 552.92 870.64 553.29C870.64 553.66 870.94 553.96 871.31 553.96Z" fill="#6C63FF"/>
<path d="M879.15 525.13C879.52 525.13 879.82 524.83 879.82 524.46C879.82 524.09 879.52 523.79 879.15 523.79C878.78 523.79 878.48 524.09 878.48 524.46C878.48 524.83 878.78 525.13 879.15 525.13Z" fill="#6C63FF"/>
<path d="M876.73 534.96C877.1 534.96 877.4 534.66 877.4 534.29C877.4 533.92 877.1 533.62 876.73 533.62C876.36 533.62 876.06 533.92 876.06 534.29C876.06 534.66 876.36 534.96 876.73 534.96Z" fill="#6C63FF"/>
<path d="M878.73 542.36C879.1 542.36 879.4 542.06 879.4 541.69C879.4 541.32 879.1 541.02 878.73 541.02C878.36 541.02 878.06 541.32 878.06 541.69C878.06 542.06 878.36 542.36 878.73 542.36Z" fill="#6C63FF"/>
<path d="M868.23 549.89C868.6 549.89 868.9 549.59 868.9 549.22C868.9 548.85 868.6 548.55 868.23 548.55C867.86 548.55 867.56 548.85 867.56 549.22C867.56 549.59 867.86 549.89 868.23 549.89Z" fill="#6C63FF"/>
<path d="M874.15 547.46C874.52 547.46 874.82 547.16 874.82 546.79C874.82 546.42 874.52 546.12 874.15 546.12C873.78 546.12 873.48 546.42 873.48 546.79C873.48 547.16 873.78 547.46 874.15 547.46Z" fill="#6C63FF"/>
<path d="M872.15 549.46C872.52 549.46 872.82 549.16 872.82 548.79C872.82 548.42 872.52 548.12 872.15 548.12C871.78 548.12 871.48 548.42 871.48 548.79C871.48 549.16 871.78 549.46 872.15 549.46Z" fill="#6C63FF"/>
<path d="M883.98 546.55C884.35 546.55 884.65 546.25 884.65 545.88C884.65 545.51 884.35 545.21 883.98 545.21C883.61 545.21 883.31 545.51 883.31 545.88C883.31 546.25 883.61 546.55 883.98 546.55Z" fill="#6C63FF"/>
<path d="M883.98 548.8C884.35 548.8 884.65 548.5 884.65 548.13C884.65 547.76 884.35 547.46 883.98 547.46C883.61 547.46 883.31 547.76 883.31 548.13C883.31 548.5 883.61 548.8 883.98 548.8Z" fill="#6C63FF"/>
<path d="M877.4 553.96C877.77 553.96 878.07 553.66 878.07 553.29C878.07 552.92 877.77 552.62 877.4 552.62C877.03 552.62 876.73 552.92 876.73 553.29C876.73 553.66 877.03 553.96 877.4 553.96Z" fill="#6C63FF"/>
<path d="M875.48 555.94C875.85 555.94 876.15 555.64 876.15 555.27C876.15 554.9 875.85 554.6 875.48 554.6C875.11 554.6 874.81 554.9 874.81 555.27C874.81 555.64 875.11 555.94 875.48 555.94Z" fill="#6C63FF"/>
<path d="M880.06 549.89C880.43 549.89 880.73 549.59 880.73 549.22C880.73 548.85 880.43 548.55 880.06 548.55C879.69 548.55 879.39 548.85 879.39 549.22C879.39 549.59 879.69 549.89 880.06 549.89Z" fill="#6C63FF"/>
<path d="M874.81 553.3C875.18 553.3 875.48 553 875.48 552.63C875.48 552.26 875.18 551.96 874.81 551.96C874.44 551.96 874.14 552.26 874.14 552.63C874.14 553 874.44 553.3 874.81 553.3Z" fill="#6C63FF"/>
<path d="M886.46 544.79C886.83 544.79 887.13 544.49 887.13 544.12C887.13 543.75 886.83 543.45 886.46 543.45C886.09 543.45 885.79 543.75 885.79 544.12C885.79 544.49 886.09 544.79 886.46 544.79Z" fill="#6C63FF"/>
<path d="M887.81 548.8C888.18 548.8 888.48 548.5 888.48 548.13C888.48 547.76 888.18 547.46 887.81 547.46C887.44 547.46 887.14 547.76 887.14 548.13C887.14 548.5 887.44 548.8 887.81 548.8Z" fill="#6C63FF"/>
<path d="M878.06 547.46C878.43 547.46 878.73 547.16 878.73 546.79C878.73 546.42 878.43 546.12 878.06 546.12C877.69 546.12 877.39 546.42 877.39 546.79C877.39 547.16 877.69 547.46 878.06 547.46Z" fill="#6C63FF"/>
<path d="M880.06 554.27C880.43 554.27 880.73 553.97 880.73 553.6C880.73 553.23 880.43 552.93 880.06 552.93C879.69 552.93 879.39 553.23 879.39 553.6C879.39 553.97 879.69 554.27 880.06 554.27Z" fill="#6C63FF"/>
<path d="M883.98 553.3C884.35 553.3 884.65 553 884.65 552.63C884.65 552.26 884.35 551.96 883.98 551.96C883.61 551.96 883.31 552.26 883.31 552.63C883.31 553 883.61 553.3 883.98 553.3Z" fill="#6C63FF"/>
<path d="M883.31 555.94C883.68 555.94 883.98 555.64 883.98 555.27C883.98 554.9 883.68 554.6 883.31 554.6C882.94 554.6 882.64 554.9 882.64 555.27C882.64 555.64 882.94 555.94 883.31 555.94Z" fill="#6C63FF"/>
<path d="M880.06 556.61C880.43 556.61 880.73 556.31 880.73 555.94C880.73 555.57 880.43 555.27 880.06 555.27C879.69 555.27 879.39 555.57 879.39 555.94C879.39 556.31 879.69 556.61 880.06 556.61Z" fill="#6C63FF"/>
<path d="M883.31 539.65C883.68 539.65 883.98 539.35 883.98 538.98C883.98 538.61 883.68 538.31 883.31 538.31C882.94 538.31 882.64 538.61 882.64 538.98C882.64 539.35 882.94 539.65 883.31 539.65Z" fill="#6C63FF"/>
<path d="M837.38 544.86C837.75 544.86 838.05 544.56 838.05 544.19C838.05 543.82 837.75 543.52 837.38 543.52C837.01 543.52 836.71 543.82 836.71 544.19C836.71 544.56 837.01 544.86 837.38 544.86Z" fill="#6C63FF"/>
<path d="M837.38 547.11C837.75 547.11 838.05 546.81 838.05 546.44C838.05 546.07 837.75 545.77 837.38 545.77C837.01 545.77 836.71 546.07 836.71 546.44C836.71 546.81 837.01 547.11 837.38 547.11Z" fill="#6C63FF"/>
<path d="M839.86 543.11C840.23 543.11 840.53 542.81 840.53 542.44C840.53 542.07 840.23 541.77 839.86 541.77C839.49 541.77 839.19 542.07 839.19 542.44C839.19 542.81 839.49 543.11 839.86 543.11Z" fill="#6C63FF"/>
<path d="M841.88 550.95C842.25 550.95 842.55 550.65 842.55 550.28C842.55 549.91 842.25 549.61 841.88 549.61C841.51 549.61 841.21 549.91 841.21 550.28C841.21 550.65 841.51 550.95 841.88 550.95Z" fill="#6C63FF"/>
<path d="M841.21 547.11C841.58 547.11 841.88 546.81 841.88 546.44C841.88 546.07 841.58 545.77 841.21 545.77C840.84 545.77 840.54 546.07 840.54 546.44C840.54 546.81 840.84 547.11 841.21 547.11Z" fill="#6C63FF"/>
<path d="M837.38 551.61C837.75 551.61 838.05 551.31 838.05 550.94C838.05 550.57 837.75 550.27 837.38 550.27C837.01 550.27 836.71 550.57 836.71 550.94C836.71 551.31 837.01 551.61 837.38 551.61Z" fill="#6C63FF"/>
<path d="M836.71 537.97C837.08 537.97 837.38 537.67 837.38 537.3C837.38 536.93 837.08 536.63 836.71 536.63C836.34 536.63 836.04 536.93 836.04 537.3C836.04 537.67 836.34 537.97 836.71 537.97Z" fill="#6C63FF"/>
<path opacity="0.1" d="M850.48 387.63L852.15 438.63L853.98 437.29L855.32 384.79L850.48 387.63Z" fill="black"/>
<path d="M822.32 318.96C822.32 318.96 810.82 308.12 808.32 313.96C805.82 319.8 800.48 329.29 800.48 329.29L813.15 341.29C813.15 341.29 815.32 337.12 816.98 337.12C819.165 336.917 821.335 336.583 823.48 336.12L822.32 318.96Z" fill="#CF6F80"/>
<path d="M830.15 273.96L822.48 331.62L819.6 327.21L809.98 312.46L811.48 296.62L812.25 270.2L812.48 262.29L830.15 273.96Z" fill="#CF6F80"/>
<path opacity="0.1" d="M880.82 197.29C879.494 201.255 878.622 205.358 878.22 209.52C875.314 212.846 871.729 215.512 867.706 217.337C863.684 219.162 859.317 220.104 854.9 220.1C852.544 220.098 850.196 219.829 847.9 219.3C848.174 216.528 848.208 213.738 848 210.96C848 210.96 889.82 169.12 880.82 197.29Z" fill="black"/>
<path d="M885.9 187.1C885.912 194.481 883.28 201.622 878.48 207.23C875.605 210.588 872.05 213.298 868.05 215.18C863.325 217.393 858.118 218.378 852.911 218.043C847.704 217.709 842.666 216.065 838.263 213.265C833.861 210.465 830.236 206.599 827.725 202.025C825.215 197.451 823.899 192.318 823.9 187.1C823.901 185.493 824.025 183.888 824.27 182.3C825.473 174.584 829.544 167.606 835.669 162.761C841.794 157.917 849.521 155.562 857.307 156.169C865.093 156.775 872.363 160.298 877.664 166.032C882.965 171.767 885.906 179.291 885.9 187.1V187.1Z" fill="#CF6F80"/>
<path opacity="0.1" d="M821.15 278.12C817.48 275 813.37 272.21 812.25 270.2L812.48 262.29L830.15 273.96L822.48 331.62L819.65 327.21C819.81 324.21 820.17 321.37 820.87 319.96C822.87 315.96 821.37 309.79 821.37 307.79C821.37 305.79 824.2 302.62 824.03 301.29C823.844 298.498 823.51 295.717 823.03 292.96C822.32 289.79 825.65 281.96 821.15 278.12Z" fill="black"/>
<path opacity="0.1" d="M894.49 389.2V389.29C894.49 389.29 872.65 385.79 855.65 391.79C841.71 396.71 823.95 392.89 818.02 391.36C818.67 388.17 819.15 386.29 819.15 386.29C819.15 386.29 881.15 368.29 891.65 383.29C892.893 385.103 893.851 387.097 894.49 389.2V389.2Z" fill="black"/>
<path opacity="0.1" d="M888.15 228.46L880.98 244.46L860.48 256.46C860.48 256.46 837.98 254.29 837.32 253.96C836.66 253.63 835.6 234.52 841.42 230.5C839.78 235.12 837.99 244.5 850.15 245.29C863.275 243.344 875.106 236.306 883.08 225.7C884.508 227.036 886.253 227.986 888.15 228.46Z" fill="black"/>
<path d="M914.82 260.46L914.48 267.96L894.48 387.29C894.48 387.29 872.65 383.79 855.65 389.79C838.65 395.79 815.98 388.79 815.98 388.79C815.98 388.79 819.15 379.79 817.82 376.46C816.49 373.13 817.48 362.79 817.48 362.79C817.48 362.79 818.48 358.29 817.32 354.79C816.16 351.29 819.65 337.12 819.65 337.12C819.65 337.12 818.82 321.96 820.82 317.96C822.82 313.96 821.32 307.79 821.32 305.79C821.32 303.79 824.15 300.62 823.98 299.29C823.794 296.498 823.46 293.717 822.98 290.96C822.32 287.79 825.65 279.96 821.15 276.12C816.65 272.28 811.48 268.96 811.98 266.96C812.48 264.96 806.82 265.46 806.82 265.46C806.6 263.1 807.061 260.726 808.15 258.62C809.98 254.96 809.15 247.79 809.15 247.79C809.15 247.79 813.15 247.62 812.65 242.62C812.325 239.905 812.382 237.159 812.82 234.46C812.82 234.46 814.48 235.96 819.32 235.79C824.16 235.62 829.48 236.96 830.98 235.46C832.48 233.96 839.15 228.79 842.48 229.96C842.22 230.47 834.25 246.3 850.16 247.28C856.918 246.278 863.402 243.915 869.219 240.333C875.036 236.75 880.064 232.024 884 226.44C884 226.44 885.83 224.44 891.83 230.95C897.83 237.46 902.99 234.95 902.99 234.95L909.66 235.45C909.66 235.45 905.33 239.11 907.99 241.61C908.552 242.157 909.077 242.742 909.56 243.36C912.23 246.67 915.74 252.21 917.66 253.45C919.98 254.96 914.82 260.46 914.82 260.46Z" fill="#6C63FF"/>
<path d="M808.82 321.29C808.82 321.29 784.32 333.29 788.65 344.62C792.98 355.95 799.15 354.46 802.82 353.12C806.49 351.78 813.15 341.29 813.15 341.29L808.82 321.29Z" fill="#CF6F80"/>
<path opacity="0.1" d="M877.9 254.22C877.9 255.29 871.65 268.79 877.9 272.29C884.15 275.79 877.9 254.22 877.9 254.22Z" fill="black"/>
<path opacity="0.1" d="M828.65 249.54C828.65 249.54 819.82 259.04 823.48 260.04C827.14 261.04 828.65 249.54 828.65 249.54Z" fill="black"/>
<path d="M888.15 268.12C888.15 268.12 891.98 291.79 892.15 298.79C892.32 305.79 893.32 317.12 893.32 317.12C893.32 317.12 896.15 344.12 891.82 355.12C887.49 366.12 888.15 378.12 888.15 378.12C888.15 378.12 875.48 402.79 873.65 405.29C871.82 407.79 875.15 431.46 888.48 421.46C901.81 411.46 900.15 389.62 900.15 389.62L904.82 374.62L911.32 355.46C911.32 355.46 913.15 343.79 913.82 341.46C914.49 339.13 913.82 326.46 913.82 326.46C913.82 326.46 921.65 262.29 911.15 255.62C900.65 248.95 888.15 268.12 888.15 268.12Z" fill="#CF6F80"/>
<path opacity="0.1" d="M888.15 276.29C888.15 276.29 903.82 259.12 908.65 260.62C913.48 262.12 914.82 261.46 914.82 261.46C914.82 261.46 915.48 251.96 908.32 248.46C901.16 244.96 893.32 234.29 887.32 246.96C881.32 259.63 888.15 276.29 888.15 276.29Z" fill="black"/>
<path d="M888.15 275.29C888.15 275.29 903.82 258.12 908.65 259.62C913.48 261.12 914.82 260.46 914.82 260.46C914.82 260.46 915.48 250.96 908.32 247.46C901.16 243.96 893.32 233.29 887.32 245.96C881.32 258.63 888.15 275.29 888.15 275.29Z" fill="#6C63FF"/>
<path opacity="0.1" d="M909.55 243.37C908.406 244.359 907.193 245.264 905.92 246.08C902.742 248.134 899.168 249.496 895.43 250.08C892.274 250.549 889.054 250.369 885.97 249.55C883.226 248.849 880.635 247.645 878.33 246C875.941 244.319 873.962 242.121 872.54 239.57C872.34 239.21 872.16 238.85 871.99 238.49C868.63 231.41 869.53 222.98 868.05 215.17C867.94 214.62 867.82 214.06 867.69 213.51C866.522 208.296 863.844 203.541 859.99 199.84C854.64 194.67 847.43 191.53 839.99 187.63C835.66 185.35 831.99 183.54 827.07 182.9C826.111 182.779 825.164 182.575 824.24 182.29C824.984 177.558 826.814 173.063 829.587 169.157C832.359 165.251 836 162.041 840.222 159.779C844.444 157.516 849.133 156.263 853.92 156.117C858.708 155.971 863.465 156.937 867.816 158.938C872.168 160.939 875.997 163.922 879.003 167.652C882.008 171.382 884.108 175.757 885.139 180.435C886.169 185.113 886.101 189.966 884.941 194.613C883.78 199.26 881.558 203.576 878.45 207.22C878.33 208.01 878.25 208.78 878.19 209.51C877.49 218.37 880.26 223.15 883.05 225.69C883.35 225.97 883.66 226.21 883.96 226.44C883.96 226.44 885.79 224.44 891.79 230.95C897.79 237.46 902.95 234.95 902.95 234.95L909.62 235.45C909.62 235.45 905.29 239.11 907.95 241.61C908.523 242.159 909.058 242.747 909.55 243.37V243.37Z" fill="black"/>
<path d="M820.65 169.54C822.88 166.89 826.2 165.47 829.31 163.94C832.42 162.41 835.61 160.52 837.11 157.4C839.73 151.98 836.61 144.25 841.11 140.19C843.26 138.24 846.42 138 849.32 138C854.056 137.868 858.783 138.496 863.32 139.86C870.22 142.15 875.98 146.86 882.12 150.79C888.26 154.72 895.49 157.88 902.63 156.48C906.8 155.67 911.25 153.36 915.01 155.35C917.27 156.55 918.56 159.06 919.13 161.56C919.807 164.564 919.655 167.696 918.69 170.62C917.06 175.53 913.25 179.48 911.57 184.37C910.95 186.18 910.66 188.3 911.66 189.93C912.83 191.82 915.32 192.42 917.54 192.34C919.76 192.26 921.96 191.67 924.17 191.92C930.51 192.64 934.17 199.87 934.17 206.25C934.17 212.63 931.96 218.85 931.89 225.25C931.8 234 935.96 242.41 941.89 248.84C948.506 255.989 957.167 260.923 966.69 262.97C964.074 264.423 961.148 265.228 958.157 265.317C955.166 265.406 952.197 264.776 949.5 263.48C936.63 257.15 934.66 238.33 922.5 230.8C921.81 230.29 920.978 230.007 920.12 229.99C918.53 230.09 917.53 231.69 916.71 233.05C912.12 240.72 904.42 246.78 895.58 248.11C886.74 249.44 877 245.44 872.69 237.6C868.38 229.76 869.93 220.19 867.84 211.54C864.21 196.54 852.47 192.14 840.17 185.66C835.84 183.38 832.17 181.57 827.25 180.93C820.98 180.12 815.14 176.06 820.65 169.54Z" fill="#512E4E"/>
<g opacity="0.1">
<path opacity="0.1" d="M838.72 154.64C841.08 149.76 838.8 143.01 841.58 138.75C841.257 138.953 840.953 139.184 840.67 139.44C836.22 143.49 839.34 151.22 836.72 156.64C836.422 157.226 836.063 157.779 835.65 158.29C836.937 157.322 837.987 156.074 838.72 154.64V154.64Z" fill="black"/>
<path opacity="0.1" d="M951.05 260.71C938.17 254.38 936.2 235.56 923.99 228.02C923.298 227.513 922.468 227.23 921.61 227.21C920.33 227.29 919.44 228.34 918.71 229.46C918.992 229.321 919.297 229.236 919.61 229.21C920.468 229.23 921.298 229.513 921.99 230.02C934.2 237.56 936.17 256.38 949.05 262.71C951.746 264.003 954.713 264.632 957.702 264.543C960.691 264.455 963.615 263.651 966.23 262.2C965.64 262.07 965.04 261.93 964.45 261.78C960.005 263.091 955.231 262.71 951.05 260.71V260.71Z" fill="black"/>
<path opacity="0.1" d="M897.07 245.34C888.24 246.67 878.49 242.66 874.19 234.83C869.89 227 871.43 217.41 869.34 208.77C865.7 193.77 853.96 189.37 841.66 182.89C837.34 180.6 833.66 178.8 828.75 178.16C822.75 177.37 816.98 173.43 822.01 167.09C821.372 167.593 820.785 168.16 820.26 168.78C814.78 175.3 820.62 179.36 826.75 180.16C831.66 180.8 835.34 182.6 839.66 184.89C851.96 191.37 863.66 195.73 867.34 210.77C869.43 219.41 867.9 229.04 872.19 236.83C876.48 244.62 886.24 248.67 895.07 247.34C901.613 246.202 907.577 242.882 911.99 237.92C907.86 241.814 902.668 244.397 897.07 245.34Z" fill="black"/>
</g>
<path d="M185.75 622.29C179.57 621.58 170.84 615.51 165.37 611.29C168.09 609.7 169.89 608.6 169.89 608.6C169.89 608.6 156.89 595.53 158.46 586.98C160.03 578.43 155.34 539.47 155.34 539.47C155.34 539.47 148.06 533.94 151.96 519.86C155.86 505.78 155.86 502.26 155.86 502.26C155.86 502.26 153.52 484.41 155.08 480.14C156.64 475.87 156.65 466.51 156.65 466.51L159.76 434.22L161.44 422.14C164.27 431.4 169.01 437.52 176.44 432.32C193.6 420.25 180.86 380.78 180.86 380.78C180.86 380.78 178.65 372.29 177.1 365.19L177.95 362.93C177.95 362.93 177.43 354.14 181.85 351.12C186.27 348.1 181.85 282.99 181.85 282.99L180.38 243.51V242.34C180.155 236.015 178.292 229.856 174.974 224.466C171.656 219.077 166.996 214.64 161.45 211.59L160.39 211.04C160.33 210.68 160.27 210.32 160.21 209.94C159.37 204.82 158.43 198.66 157.81 192.56C157.74 191.9 157.68 191.25 157.62 190.56C175.45 186.09 188.65 170.38 188.65 151.67C188.651 148.096 188.16 144.539 187.19 141.1C187.12 140.84 187.04 140.58 186.96 140.33C189.34 137.95 191.29 137.26 191.47 138.81C191.73 141.07 193.68 138.18 193.81 135.92C193.94 133.66 194.46 135.29 195.81 135.29C197.16 135.29 197.37 132.9 195.29 131.65C193.21 130.4 195.68 129.01 196.29 128.76C196.9 128.51 196.94 126.12 196.29 126.12C196.21 126.111 196.132 126.087 196.06 126.05H195.99C195.877 125.999 195.767 125.942 195.66 125.88L195.25 125.62L195.14 125.55L194.69 125.23C193.5 124.38 192.13 123.23 192.13 123.23L192.78 122.73C193.43 122.23 192 120.97 190.78 120.85H190.53C189.31 120.66 187.36 119.96 188.6 119.38C188.88 119.25 189 119.1 189.02 118.94C189.019 118.852 188.999 118.765 188.961 118.685C188.923 118.606 188.868 118.536 188.8 118.48V118.48C188.621 118.313 188.419 118.171 188.2 118.06V118.06L187.83 117.89L187.47 117.77C187.342 117.734 187.212 117.707 187.08 117.69H187H186.64H186.35C184.663 117.263 183.02 116.68 181.44 115.95V113.31L179.25 112.29L177.43 111.49L178.08 109.06H172.36L173.14 106.92L170.51 106.41L169.89 106.29V105.29L166.38 103.91V102.4H162.16L163.78 101.14H160.53C152.04 95.32 128.13 95.74 118.6 98.92C109.07 102.1 106.29 104.45 93.3 131.77C84.99 149.23 95.6 166.16 104.92 175.61C105.23 175.93 105.54 176.23 105.85 176.53L105.98 176.66L106.81 177.45L106.89 177.52L107.78 178.33L107.88 178.41L108.66 179.09L108.77 179.18L109.61 179.87L110.37 180.46L110.5 180.56C111.01 180.95 111.5 181.29 111.95 181.56L112.09 181.65L112.69 182.04H112.74C112.94 182.17 113.14 182.28 113.33 182.39L113.45 182.46L113.9 182.7H114L114.47 182.91H114.55L114.88 183.03H114.97C115.078 183.061 115.189 183.084 115.3 183.1H115.65C115.715 183.086 115.776 183.059 115.83 183.02C117.04 182.399 118.344 181.98 119.69 181.78L120.69 182.58C121.17 182.97 121.69 183.34 122.17 183.7C122.29 184.43 122.39 185.17 122.48 185.94C123.066 190.836 122.748 195.799 121.54 200.58C121.44 200.95 121.33 201.32 121.22 201.69C116.758 203.065 112.93 205.982 110.42 209.92C99.24 227.27 94.3 237.58 94.3 237.58C94.3 237.58 92.65 249.29 89.83 252.07C87.01 254.85 95.03 304.61 95.03 304.61C95.03 304.61 85.41 323.71 94.03 327.11C102.65 330.51 93.25 333.27 93.25 333.27C93.25 333.27 95.85 339.05 90.91 339.55C85.97 340.05 83.11 348.86 83.11 348.86L67.78 365.45L71.64 366.77C71.31 367.29 70.97 367.83 70.64 368.44C65.52 377 57.78 394.44 62.87 415.44C70.15 445.61 72.23 452.14 71.97 457.44C71.71 462.74 80.28 483.59 78.2 488.36C76.12 493.13 74.96 509.73 78.53 514.01C82.1 518.29 77.17 520.79 77.17 520.79C77.17 520.79 82.49 527.08 79.83 531.35C77.17 535.62 83.14 588.42 83.14 588.42C83.14 588.42 92.76 602 92.24 606.27C91.72 610.54 87.3 612.81 91.24 614.57C95.18 616.33 93.58 618.84 93.58 618.84L94.58 618.92C93.69 619.72 92.84 620.56 92.06 621.41C91.286 622.251 90.5741 623.146 89.93 624.09C89.5996 624.588 89.3055 625.11 89.05 625.65C85.55 633.35 94.87 639.23 94.87 639.23H95.87H96.11H96.47H96.98H97.21H98.05C107.1 639.59 132.68 640.23 144.74 637.23L144.96 637.37C144.96 637.37 190.71 639.83 199.8 633.54C208.89 627.25 195.37 623.39 185.75 622.29ZM138.9 624.5L138.57 624.45L138.05 624.36H137.68L137.1 624.27H136.94H136.86C136.43 624.21 136 624.15 135.58 624.11C133.527 623.8 131.532 623.187 129.66 622.29C128.34 621.7 127 620.99 125.66 620.23L128.3 620.17C128.99 620.17 129.67 620.17 130.3 620.1L131.49 620.04C134.49 620.04 138.79 620.44 139.92 622.47C139.508 623.104 139.166 623.782 138.9 624.49V624.5Z" fill="url(#paint2_linear)"/>
<path d="M163.65 224.04C162.9 224.04 103.9 235.29 118.65 215.29C121.449 211.541 123.487 207.281 124.65 202.75C125.811 197.988 126.116 193.058 125.55 188.19C124.901 182.317 123.244 176.599 120.65 171.29C120.65 171.29 169.4 160.54 161.65 168.79C158.27 172.39 158.36 183.38 159.48 194.61C160.08 200.68 160.98 206.81 161.79 211.9C162.93 218.99 163.89 224.04 163.65 224.04Z" fill="#FFCCD0"/>
<path d="M113.65 608.51C113.65 608.51 128.9 622.57 138.15 623.67C147.4 624.77 160.4 628.76 151.65 635.01C142.9 641.26 98.9 638.82 98.9 638.82C98.9 638.82 88.71 632.16 94.15 623.76C99.59 615.36 113.65 608.51 113.65 608.51Z" fill="#3F3D56"/>
<path opacity="0.1" d="M151.65 635.01C149.968 636.048 148.111 636.77 146.17 637.14C131.52 640.63 98.9 638.82 98.9 638.82C98.9 638.82 88.71 632.16 94.15 623.76C99.59 615.36 113.65 608.51 113.65 608.51C113.65 608.51 128.9 622.57 138.15 623.67L139.46 623.84C148.56 625.14 159.99 629.05 151.65 635.01Z" fill="black"/>
<path opacity="0.1" d="M151.65 635.01C149.968 636.048 148.111 636.77 146.17 637.14L145.17 637.09C145.17 637.09 136.4 631.37 139.48 623.84C148.56 625.14 159.99 629.05 151.65 635.01Z" fill="black"/>
<path d="M161.9 606.79C161.9 606.79 177.15 620.79 186.4 621.94C195.65 623.09 208.65 627.04 199.9 633.29C191.15 639.54 147.15 637.09 147.15 637.09C147.15 637.09 136.96 630.44 142.4 622.09C147.84 613.74 161.9 606.79 161.9 606.79Z" fill="#3F3D56"/>
<path opacity="0.1" d="M161.9 606.79C161.9 606.79 177.15 620.79 186.4 621.94C195.65 623.09 208.65 627.04 199.9 633.29C191.15 639.54 147.15 637.09 147.15 637.09C147.15 637.09 136.96 630.44 142.4 622.09C147.84 613.74 161.9 606.79 161.9 606.79Z" fill="black"/>
<path d="M146.9 617.04C144.9 618.51 140.1 619.28 134.29 619.62H134.2L133.11 619.68C132.47 619.68 131.81 619.74 131.11 619.75C116.48 620.22 97.61 618.54 97.61 618.54C97.61 618.54 99.11 616.04 95.36 614.29C91.61 612.54 95.86 610.29 96.36 606.04C96.86 601.79 87.65 588.29 87.65 588.29C87.65 588.29 81.9 535.79 84.46 531.54C87.02 527.29 81.9 521.04 81.9 521.04C81.9 521.04 86.65 518.54 83.21 514.29C79.77 510.04 80.9 493.54 82.9 488.79C84.9 484.04 76.65 463.29 76.9 458.04C77.15 452.79 75.15 446.29 68.15 416.29C63.26 395.29 70.7 378.03 75.62 369.51C76.7401 367.514 78.0034 365.603 79.4 363.79H127.15L128.36 375.03L128.42 375.65C128.82 379.44 129.31 384.03 129.86 389.3C136.53 452.72 152.71 612.83 146.9 617.04Z" fill="#3F3D56"/>
<path opacity="0.1" d="M146.9 617.04C144.73 618.61 139.45 619.38 133.11 619.68C131.444 619.579 129.773 619.603 128.11 619.75C128.11 619.75 127.36 618.04 118.36 611.75C109.36 605.46 118.36 591.25 118.36 591.25L109 553C109 553 106.65 542.79 108.65 536.79C110.65 530.79 104.34 529.29 104.34 529.29C104.34 529.29 110.65 525.29 104.34 520.04C98.03 514.79 97.15 495.54 97.15 495.54C97.15 495.54 88.15 483.54 92.15 479.54C96.15 475.54 89.65 466.04 89.65 466.04C89.65 466.04 80.15 451.04 81.15 446.04C82.15 441.04 95.65 442.79 91.65 426.79C87.65 410.79 112.3 432.79 112.3 432.79L128.42 375.65C133.65 425.09 153.19 612.48 146.9 617.04Z" fill="black"/>
<path d="M171.15 608.29C171.15 608.29 144.15 625.29 142.4 622.04C141.31 620.04 137.22 619.63 134.29 619.62H134.2C132.46 619.62 131.15 619.75 131.15 619.75C131.15 619.75 130.4 618.04 121.4 611.75C112.4 605.46 121.4 591.25 121.4 591.25L112.04 553C112.04 553 109.65 542.79 111.65 536.79C113.65 530.79 107.34 529.29 107.34 529.29C107.34 529.29 113.65 525.29 107.34 520.04C101.03 514.79 100.15 495.54 100.15 495.54C100.15 495.54 91.15 483.54 95.15 479.54C99.15 475.54 92.65 466.04 92.65 466.04C92.65 466.04 83.15 451.04 84.15 446.04C85.15 441.04 84.15 442.04 80.15 426.04C77.15 413.98 84.91 386.87 88.93 374.25C90.24 370.12 91.15 367.54 91.15 367.54L128.36 375.03L165.65 382.54L166.65 395.79L166.37 397.89L161.37 434.89L158.37 467C158.37 467 158.37 476.25 156.87 480.5C155.37 484.75 157.62 502.5 157.62 502.5C157.62 502.5 157.62 506 153.87 520C150.12 534 157.12 539.5 157.12 539.5C157.12 539.5 161.62 578.25 160.12 586.75C158.62 595.25 171.15 608.29 171.15 608.29Z" fill="#3F3D56"/>
<path opacity="0.1" d="M116.28 515.29C120.03 515.92 139.4 516.29 134.28 518.67C129.16 521.05 116.28 515.29 116.28 515.29Z" fill="black"/>
<path opacity="0.1" d="M114.15 527.92C115.65 527.79 122.53 524.79 124.4 525.04C126.27 525.29 128.78 524.51 131.03 525.04C133.28 525.57 137.49 527.04 135.13 527.93C132.77 528.82 127.83 528.05 124.99 528.93C122.15 529.81 114.15 527.92 114.15 527.92Z" fill="black"/>
<path opacity="0.1" d="M93.65 522.67C94.65 522.54 102.4 520.54 101.78 522.67C101.16 524.8 93.65 522.67 93.65 522.67Z" fill="black"/>
<path opacity="0.1" d="M81.28 459.92C82.03 460.92 86.4 470.92 88.53 470.92C90.66 470.92 81.28 459.92 81.28 459.92Z" fill="black"/>
<path opacity="0.1" d="M161.65 168.79C158.27 172.39 158.36 183.38 159.48 194.61C156.123 195.501 152.664 195.951 149.19 195.95C140.32 195.95 139.62 184.76 132.99 179.89C131.94 170.14 120.65 171.29 120.65 171.29C120.65 171.29 169.4 160.54 161.65 168.79Z" fill="black"/>
<path d="M189.19 153.95C189.185 164.099 185.322 173.866 178.385 181.273C171.447 188.681 161.953 193.174 151.827 193.843C141.7 194.512 131.698 191.307 123.846 184.876C115.994 178.446 110.88 169.272 109.54 159.212C108.2 149.152 110.734 138.958 116.629 130.697C122.523 122.436 131.338 116.724 141.287 114.719C151.235 112.713 161.574 114.565 170.209 119.898C178.844 125.231 185.128 133.646 187.79 143.44C188.721 146.866 189.192 150.4 189.19 153.95V153.95Z" fill="#FFCCD0"/>
<path opacity="0.1" d="M163.65 224.04C162.9 224.04 103.9 235.29 118.65 215.29C121.449 211.541 123.487 207.281 124.65 202.75C136.58 198.94 151.2 205.29 151.2 205.29L157.95 210.29C159.293 210.708 160.595 211.247 161.84 211.9C162.93 218.99 163.89 224.04 163.65 224.04Z" fill="black"/>
<path opacity="0.1" d="M166.65 395.79L166.37 397.89C164.78 398.43 157.47 400.46 139.99 393.29C137.18 392.14 133.71 390.78 129.86 389.29C117.45 384.54 100.97 378.56 88.93 374.29C83.16 372.22 78.41 370.53 75.62 369.55C76.7401 367.554 78.0034 365.643 79.4 363.83H127.15L128.36 375.07L165.65 382.54L166.65 395.79Z" fill="black"/>
<path d="M151.15 206.29C151.15 206.29 124.65 194.79 113.9 212.04C103.15 229.29 98.4 239.54 98.4 239.54C98.4 239.54 96.9 251.04 94.15 253.79C91.4 256.54 99.15 306.04 99.15 306.04C99.15 306.04 89.9 325.04 98.15 328.41C106.4 331.78 97.4 334.54 97.4 334.54C97.4 334.54 99.9 340.29 95.15 340.79C90.4 341.29 87.65 350.04 87.65 350.04L72.9 366.54C72.9 366.54 121.07 383.54 139.99 391.29C158.91 399.04 165.9 396.04 166.65 395.79C167.4 395.54 178.9 364.04 178.9 364.04C178.9 364.04 178.4 355.29 182.65 352.29C186.9 349.29 182.65 284.54 182.65 284.54L181.19 244.11C181.01 237.885 179.243 231.81 176.056 226.459C172.869 221.109 168.368 216.662 162.98 213.54C161.374 212.606 159.671 211.851 157.9 211.29L151.15 206.29Z" fill="#6C63FF"/>
<path d="M177.4 275.29L182.65 284.54C182.65 284.54 140.65 296.54 139 285.04C138.75 283.36 155.4 270.04 155.4 270.04L177.4 275.29Z" fill="#6C63FF"/>
<path opacity="0.1" d="M177.4 275.29L182.65 284.54C182.65 284.54 140.65 296.54 139 285.04C138.75 283.36 155.4 270.04 155.4 270.04L177.4 275.29Z" fill="black"/>
<path opacity="0.1" d="M105.9 325.29C105.9 325.29 125.9 318.79 121.65 324.04C117.4 329.29 105.9 325.29 105.9 325.29Z" fill="black"/>
<path opacity="0.1" d="M128.72 326.75C128.72 326.75 138.95 339.53 141.4 334.75C143.85 329.97 128.72 326.75 128.72 326.75Z" fill="black"/>
<path opacity="0.1" d="M187.79 143.44C186.456 144.796 185.275 146.295 184.27 147.91C180.77 153.41 178.15 153.54 178.15 153.54C178.15 153.54 178.15 165.44 176.53 166.68C174.91 167.92 165.65 161.41 165.53 159.79C165.41 158.17 154.1 140.54 149.19 162.91L148.27 181.04C148.27 181.04 132.07 183.04 123.78 184.85C118.92 180.853 115.071 175.766 112.547 170.002C110.022 164.238 108.893 157.96 109.252 151.677C109.61 145.395 111.445 139.286 114.609 133.846C117.772 128.407 122.174 123.79 127.457 120.372C132.741 116.954 138.756 114.83 145.014 114.173C151.272 113.517 157.597 114.346 163.474 116.594C169.352 118.841 174.616 122.444 178.839 127.109C183.063 131.773 186.126 137.369 187.78 143.44H187.79Z" fill="black"/>
<path d="M162.15 103.67H165.28L163.71 104.92H167.78V106.42L171.15 107.79V108.79L174.28 109.42L173.53 111.54H179.03L178.4 113.95L182.15 115.67V118.29C182.15 118.29 185.9 120.04 187.15 120.04C188.4 120.04 190.47 121.17 189.15 121.79C187.83 122.41 190.15 123.17 191.24 123.29C192.33 123.41 193.74 124.67 193.11 125.17L192.49 125.67C192.49 125.67 195.86 128.54 196.49 128.54C197.12 128.54 197.11 130.92 196.49 131.17C195.87 131.42 193.49 132.79 195.49 134.04C197.49 135.29 197.24 137.67 195.99 137.67C194.74 137.67 194.24 136.04 194.11 138.29C193.98 140.54 192.11 143.42 191.86 141.17C191.61 138.92 187.74 141.42 184.24 146.92C180.74 152.42 178.11 152.54 178.11 152.54C178.11 152.54 178.11 164.44 176.49 165.68C174.87 166.92 165.61 160.42 165.49 158.79C165.37 157.16 154.06 139.54 149.15 161.92L148.24 180.04C148.24 180.04 121.24 183.42 119.11 185.29C116.98 187.16 84.94 161.29 97.44 134.12C109.94 106.95 112.61 104.62 121.78 101.46C130.95 98.3 153.98 97.87 162.15 103.67Z" fill="#3F3D56"/>
<path d="M141.15 279.54C141.15 279.54 140.9 299.79 139.15 304.79C137.4 309.79 151.15 356.54 151.15 356.54C151.15 356.54 162.15 381.19 160.15 388.79C158.15 396.39 160.9 445.04 177.4 433.04C193.9 421.04 181.65 381.79 181.65 381.79C181.65 381.79 176.4 359.93 176.4 357.24C176.4 354.55 170.9 314.04 170.9 314.04C170.9 314.04 166.65 300.79 167.9 292.79C169.15 284.79 169.65 270.04 169.65 270.04L141.15 279.54Z" fill="#FFCCD0"/>
<path opacity="0.1" d="M157.9 241.54C157.9 241.54 137.84 248.04 137 265.79C136.16 283.54 137 285.04 137 285.04C137 285.04 166.9 270.04 180.65 284.54L179.24 245.29L157.9 241.54Z" fill="black"/>
<path d="M159.9 241.54C159.9 241.54 139.84 248.04 139 265.79C138.16 283.54 139 285.04 139 285.04C139 285.04 168.9 270.04 182.65 284.54L181.24 245.29L159.9 241.54Z" fill="#6C63FF"/>
<g opacity="0.1">
<path opacity="0.1" d="M186.87 120.02C186.42 120.58 188.28 121.18 189.28 121.29C189.382 121.304 189.482 121.327 189.58 121.36C189.65 120.75 188.15 120.04 187.15 120.04L186.87 120.02Z" fill="black"/>
<path opacity="0.1" d="M180.15 116.29C180.15 116.29 181.07 116.72 182.15 117.15V115.67L180.15 114.75V116.29Z" fill="black"/>
<path opacity="0.1" d="M191.04 123.29L190.53 123.7C190.53 123.7 191.68 124.7 192.77 125.5L193.15 125.2C193.78 124.7 192.4 123.45 191.28 123.32L191.04 123.29Z" fill="black"/>
<path opacity="0.1" d="M176.4 111.96L178.65 112.98L179.02 111.54H176.51L176.4 111.96Z" fill="black"/>
<path opacity="0.1" d="M147.19 159.92L146.28 178.04C146.28 178.04 119.28 181.42 117.15 183.29C116.49 183.88 112.9 181.75 108.66 177.72C113.72 183.03 118.38 185.97 119.15 185.29C121.28 183.42 148.28 180.04 148.28 180.04L149.19 161.92C152.06 148.8 157.19 149.43 160.87 152.52C157.19 148.19 150.65 144.29 147.19 159.92Z" fill="black"/>
<path opacity="0.1" d="M195.53 134.04C193.53 132.79 195.9 131.42 196.53 131.17C197.16 130.92 197.15 128.54 196.53 128.54C195.963 128.339 195.44 128.03 194.99 127.63C194.99 128.29 194.86 129.03 194.53 129.17C193.9 129.42 191.53 130.79 193.53 132.04C195.53 133.29 195.28 135.67 194.03 135.67C192.78 135.67 192.28 134.04 192.15 136.29C192.02 138.54 190.15 141.42 189.9 139.17C189.65 136.92 185.78 139.42 182.28 144.92C178.78 150.42 176.15 150.54 176.15 150.54C176.15 150.54 176.15 162.44 174.53 163.68C173.4 164.53 168.66 161.68 165.78 159.34C167.25 161.52 175.04 166.81 176.53 165.68C178.02 164.55 178.15 152.54 178.15 152.54C178.15 152.54 180.78 152.42 184.28 146.92C187.78 141.42 191.65 138.92 191.9 141.17C192.15 143.42 194.03 140.54 194.15 138.29C194.27 136.04 194.78 137.67 196.03 137.67C197.28 137.67 197.53 135.29 195.53 134.04Z" fill="black"/>
<path opacity="0.1" d="M171.52 109.54H174.23L174.27 109.42L171.75 108.91L171.52 109.54Z" fill="black"/>
<path opacity="0.1" d="M167.77 105.23V104.92H167L167.77 105.23Z" fill="black"/>
</g>
<path d="M193.31 413.35C193.31 413.35 275.65 288.29 372.65 359.29C469.65 430.29 493.48 475.29 574.57 450.29C655.66 425.29 652.65 376.15 716.65 394.22C780.65 412.29 802.82 353.12 802.82 353.12" stroke="#6C63FF" stroke-width="4" stroke-miterlimit="10"/>
<path d="M810.648 329.409L810.639 329.406C806.16 327.475 800.965 329.54 799.035 334.019L790.393 354.065C788.462 358.544 790.528 363.739 795.006 365.669L795.015 365.673C799.493 367.604 804.689 365.539 806.619 361.06L815.261 341.014C817.192 336.535 815.126 331.34 810.648 329.409Z" fill="#6C63FF"/>
</g>
<defs>
<linearGradient id="paint0_linear" x1="569.97" y1="413.47" x2="569.97" y2="43.96" gradientUnits="userSpaceOnUse">
<stop stop-color="#808080" stop-opacity="0.25"/>
<stop offset="0.54" stop-color="#808080" stop-opacity="0.12"/>
<stop offset="1" stop-color="#808080" stop-opacity="0.1"/>
</linearGradient>
<linearGradient id="paint1_linear" x1="172097" y1="362347" x2="172097" y2="145338" gradientUnits="userSpaceOnUse">
<stop stop-color="#808080" stop-opacity="0.25"/>
<stop offset="0.54" stop-color="#808080" stop-opacity="0.12"/>
<stop offset="1" stop-color="#808080" stop-opacity="0.1"/>
</linearGradient>
<linearGradient id="paint2_linear" x1="26585.9" y1="442277" x2="26585.9" y2="147387" gradientUnits="userSpaceOnUse">
<stop stop-color="#808080" stop-opacity="0.25"/>
<stop offset="0.54" stop-color="#808080" stop-opacity="0.12"/>
<stop offset="1" stop-color="#808080" stop-opacity="0.1"/>
</linearGradient>
<clipPath id="clip0">
<rect width="1110.65" height="810.94" fill="white" transform="translate(0 -156)"/>
</clipPath>
</defs>
</svg>
